<?xml version="1.0" encoding="UTF-8" standalone="no"?>
<!-- Created with Inkscape (http://www.inkscape.org/) -->
<svg
   xmlns:dc="http://purl.org/dc/elements/1.1/"
   xmlns:cc="http://creativecommons.org/ns#"
   xmlns:rdf="http://www.w3.org/1999/02/22-rdf-syntax-ns#"
   xmlns:svg="http://www.w3.org/2000/svg"
   xmlns="http://www.w3.org/2000/svg"
   xmlns:sodipodi="http://sodipodi.sourceforge.net/DTD/sodipodi-0.dtd"
   xmlns:inkscape="http://www.inkscape.org/namespaces/inkscape"
   width="250"
   height="100"
   id="svg2"
   sodipodi:version="0.32"
   inkscape:version="0.46"
   sodipodi:docname="multiplane.svg"
   inkscape:output_extension="org.inkscape.output.svg.inkscape"
   version="1.0">
  <defs
     id="defs4">
    <inkscape:perspective
       sodipodi:type="inkscape:persp3d"
       inkscape:vp_x="0 : 526.18109 : 1"
       inkscape:vp_y="0 : 1000 : 0"
       inkscape:vp_z="744.09448 : 526.18109 : 1"
       inkscape:persp3d-origin="372.04724 : 350.78739 : 1"
       id="perspective10" />
  </defs>
  <sodipodi:namedview
     id="base"
     pagecolor="#ffffff"
     bordercolor="#666666"
     borderopacity="1.0"
     gridtolerance="10000"
     guidetolerance="10"
     objecttolerance="10"
     inkscape:pageopacity="0.0"
     inkscape:pageshadow="2"
     inkscape:zoom="1"
     inkscape:cx="136.80077"
     inkscape:cy="-73.222537"
     inkscape:document-units="pt"
     inkscape:current-layer="layer1"
     showgrid="false"
     inkscape:window-width="1280"
     inkscape:window-height="953"
     inkscape:window-x="0"
     inkscape:window-y="48"
     units="px"
     showguides="true"
     inkscape:guide-bbox="true" />
  <metadata
     id="metadata7">
    <rdf:RDF>
      <cc:Work
         rdf:about="">
        <dc:format>image/svg+xml</dc:format>
        <dc:type
           rdf:resource="http://purl.org/dc/dcmitype/StillImage" />
      </cc:Work>
    </rdf:RDF>
  </metadata>
  <g
     inkscape:label="Layer 1"
     inkscape:groupmode="layer"
     id="layer1"
     transform="translate(-167.97263,-92.342582)">
    <path
       style="fill:#ffffff;fill-rule:evenodd;stroke:#000000;stroke-width:0.55763328;stroke-linecap:butt;stroke-linejoin:miter;stroke-miterlimit:4;stroke-dasharray:none;stroke-opacity:1"
       d="M 246.11238,131.16631 L 339.7861,131.16631 C 339.7861,133.74708 339.7861,133.74708 339.7861,133.74708 L 246.11238,133.74708 L 246.11238,133.74708 L 246.11238,131.16631 z"
       id="path5625" />
    <g
       id="g3361"
       transform="matrix(1,0,0,1.0123537,0,-2.0035603)">
      <g
         transform="matrix(1,0,0,2.1113356,0,-112.45769)"
         id="g3351">
        <path
           style="fill:none;fill-rule:evenodd;stroke:#000000;stroke-width:0.34096491;stroke-linecap:butt;stroke-linejoin:miter;stroke-miterlimit:4;stroke-dasharray:none;stroke-opacity:1"
           d="M 358.07296,101.44759 L 307.81435,129.96137"
           id="path5841" />
        <path
           style="fill:none;fill-rule:evenodd;stroke:#000000;stroke-width:0.34633964;stroke-linecap:butt;stroke-linejoin:miter;stroke-miterlimit:4;stroke-dasharray:none;stroke-opacity:1"
           d="M 358.29108,129.93468 L 307.791,101.44465"
           id="path5843" />
      </g>
      <g
         transform="matrix(1,0,0,2.1113356,-79.81841,-112.45769)"
         id="g3355">
        <path
           style="fill:none;fill-rule:evenodd;stroke:#000000;stroke-width:0.34096491;stroke-linecap:butt;stroke-linejoin:miter;stroke-miterlimit:4;stroke-dasharray:none;stroke-opacity:1"
           d="M 358.07296,101.44759 L 307.81435,129.96137"
           id="path3357" />
        <path
           style="fill:none;fill-rule:evenodd;stroke:#000000;stroke-width:0.34633964;stroke-linecap:butt;stroke-linejoin:miter;stroke-miterlimit:4;stroke-dasharray:none;stroke-opacity:1"
           d="M 358.29108,129.93468 L 307.791,101.44465"
           id="path3359" />
      </g>
    </g>
    <text
       xml:space="preserve"
       style="font-size:8px;font-style:normal;font-variant:normal;font-weight:normal;font-stretch:normal;text-align:start;line-height:120.00000477%;writing-mode:lr-tb;text-anchor:start;fill:#000000;fill-opacity:1;stroke:none;stroke-width:1px;stroke-linecap:butt;stroke-linejoin:miter;stroke-opacity:1;font-family:Sans;-inkscape-font-specification:Sans"
       x="798.5"
       y="19.5"
       id="text4249"
       sodipodi:linespacing="120%"
       transform="translate(167.97263,92.342582)"><tspan
         sodipodi:role="line"
         id="tspan4251"
         x="798.5"
         y="19.5" /></text>
    <path
       style="fill:#ffffff;fill-rule:evenodd;stroke:#000000;stroke-width:0.49848771;stroke-linecap:butt;stroke-linejoin:miter;stroke-miterlimit:4;stroke-dasharray:none;stroke-opacity:1"
       d="M 279.5956,100.39929 L 279.5956,162.37704 C 278.2228,162.37704 278.2228,162.37704 278.2228,162.37704 L 278.2228,100.39929 L 278.2228,100.39929 L 279.5956,100.39929 z"
       id="path5770" />
    <path
       style="fill:#ffffff;fill-rule:evenodd;stroke:#000000;stroke-width:0.49848771;stroke-linecap:butt;stroke-linejoin:miter;stroke-miterlimit:4;stroke-dasharray:none;stroke-opacity:1"
       d="M 307.6757,100.39929 L 307.6757,162.37704 C 306.3029,162.37704 306.3029,162.37704 306.3029,162.37704 L 306.3029,100.39929 L 306.3029,100.39929 L 307.6757,100.39929 z"
       id="path5781" />
    <path
       style="fill:#ffffff;fill-rule:evenodd;stroke:#000000;stroke-width:0.49848771;stroke-linecap:butt;stroke-linejoin:miter;stroke-miterlimit:4;stroke-dasharray:none;stroke-opacity:1"
       d="M 358.4985,100.33386 L 358.4985,162.31161 C 359.8713,162.31161 359.8713,162.31161 359.8713,162.31161 L 359.8713,100.33386 L 359.8713,100.33386 L 358.4985,100.33386 z"
       id="path5633" />
    <path
       style="fill:#ffffff;fill-rule:evenodd;stroke:#000000;stroke-width:0.49848771;stroke-linecap:butt;stroke-linejoin:miter;stroke-miterlimit:4;stroke-dasharray:none;stroke-opacity:1"
       d="M 227.4,100.33386 L 227.4,162.31161 C 226.02719,162.31161 226.02719,162.31161 226.02719,162.31161 L 226.02719,100.33386 L 226.02719,100.33386 L 227.4,100.33386 z"
       id="path5645" />
    <path
       style="fill:#ffffff;fill-rule:evenodd;stroke:#000000;stroke-width:0.49785161;stroke-linecap:butt;stroke-linejoin:miter;stroke-miterlimit:4;stroke-dasharray:none;stroke-opacity:1"
       d="M 294.6746,99.872263 L 294.6746,129.29396 C 291.2239,129.29396 291.2239,129.29396 291.2239,129.29396 L 291.2239,99.872263 L 291.2239,99.872263 L 294.6746,99.872263 z"
       id="path5655" />
    <path
       style="fill:none;fill-rule:evenodd;stroke:#000000;stroke-width:0.47175494;stroke-linecap:butt;stroke-linejoin:miter;stroke-miterlimit:4;stroke-dasharray:none;stroke-opacity:1"
       d="M 279.2504,100.9335 L 306.7668,130.32616"
       id="path5847" />
    <path
       style="fill:none;fill-rule:evenodd;stroke:#000000;stroke-width:0.47175494;stroke-linecap:butt;stroke-linejoin:miter;stroke-miterlimit:4;stroke-dasharray:none;stroke-opacity:1"
       d="M 279.1316,130.51938 L 306.7487,100.93302"
       id="path5849" />
    <path
       style="fill:#ffffff;fill-rule:evenodd;stroke:#000000;stroke-width:0.49848771;stroke-linecap:butt;stroke-linejoin:miter;stroke-miterlimit:4;stroke-dasharray:none;stroke-opacity:1"
       d="M 283.317,137.4875 L 284.9777,125.40431 L 284.9777,125.40431 C 285.9357,117.89602 299.0243,117.74223 300.2565,125.40431 L 302.5815,137.78959 L 283.317,137.4875 z"
       id="path5669"
       sodipodi:nodetypes="cccccc" />
    <path
       style="fill:#ffffff;fill-rule:evenodd;stroke:#000000;stroke-width:0.9375;stroke-linecap:butt;stroke-linejoin:miter;stroke-miterlimit:4;stroke-dasharray:none;stroke-opacity:1"
       d="M 214.00865,162.24713 L 371.8898,162.24713 C 371.8898,164.35493 371.8898,164.35493 371.8898,164.35493 L 214.00865,164.35493 L 214.00865,164.35493 L 214.00865,162.24713 z"
       id="path5675" />
    <path
       style="fill:#ffffff;fill-rule:evenodd;stroke:#000000;stroke-width:0.9375;stroke-linecap:butt;stroke-linejoin:miter;stroke-miterlimit:4;stroke-dasharray:none;stroke-opacity:1"
       d="M 214.00868,98.883931 L 371.8898,98.883931 C 371.8898,100.99174 371.8898,100.99174 371.8898,100.99174 L 214.00868,100.99174 L 214.00868,100.99174 L 214.00868,98.883931 z"
       id="path5741" />
    <path
       style="fill:#ffffff;fill-rule:evenodd;stroke:#000000;stroke-width:0.9375;stroke-linecap:butt;stroke-linejoin:miter;stroke-miterlimit:4;stroke-dasharray:none;stroke-opacity:1"
       d="M 214.00865,107.93582 L 371.8898,107.93582 C 371.8898,110.04362 371.8898,110.04362 371.8898,110.04362 L 214.00865,110.04362 L 214.00865,110.04362 L 214.00865,107.93582 z"
       id="path5743" />
    <path
       style="fill:#ffffff;fill-rule:evenodd;stroke:#000000;stroke-width:0.9375;stroke-linecap:butt;stroke-linejoin:miter;stroke-miterlimit:4;stroke-dasharray:none;stroke-opacity:1"
       d="M 214.00865,116.9877 L 371.8898,116.9877 C 371.8898,119.0955 371.8898,119.0955 371.8898,119.0955 L 214.00865,119.0955 L 214.00865,119.0955 L 214.00865,116.9877 z"
       id="path5745" />
    <path
       style="fill:#ffffff;fill-rule:evenodd;stroke:#000000;stroke-width:0.9375;stroke-linecap:butt;stroke-linejoin:miter;stroke-miterlimit:4;stroke-dasharray:none;stroke-opacity:1"
       d="M 214.00865,126.03959 L 371.8898,126.03959 C 371.8898,128.14739 371.8898,128.14739 371.8898,128.14739 L 214.00865,128.14739 L 214.00865,128.14739 L 214.00865,126.03959 z"
       id="path5747" />
    <path
       style="fill:#ffffff;fill-rule:evenodd;stroke:#000000;stroke-width:0.9375;stroke-linecap:butt;stroke-linejoin:miter;stroke-miterlimit:4;stroke-dasharray:none;stroke-opacity:1"
       d="M 214.00865,135.09147 L 371.8898,135.09147 C 371.8898,137.19928 371.8898,137.19928 371.8898,137.19928 L 214.00865,137.19928 L 214.00865,137.19928 L 214.00865,135.09147 z"
       id="path5753" />
    <path
       style="fill:#ffffff;fill-rule:evenodd;stroke:#000000;stroke-width:0.9375;stroke-linecap:butt;stroke-linejoin:miter;stroke-miterlimit:4;stroke-dasharray:none;stroke-opacity:1"
       d="M 214.00865,144.14336 L 371.8898,144.14336 C 371.8898,146.25117 371.8898,146.25117 371.8898,146.25117 L 214.00865,146.25117 L 214.00865,146.25117 L 214.00865,144.14336 z"
       id="path5755" />
    <path
       style="fill:#ffffff;fill-rule:evenodd;stroke:#000000;stroke-width:0.9375;stroke-linecap:butt;stroke-linejoin:miter;stroke-miterlimit:4;stroke-dasharray:none;stroke-opacity:1"
       d="M 214.00865,153.19525 L 371.8898,153.19525 C 371.8898,155.30305 371.8898,155.30305 371.8898,155.30305 L 214.00865,155.30305 L 214.00865,155.30305 L 214.00865,153.19525 z"
       id="path5757" />
    <g
       id="g5657"
       transform="matrix(0.5310417,0,0,0.5310417,102.99382,65.904377)"
       style="stroke-width:0.9375;stroke-miterlimit:4;stroke-dasharray:none">
      <path
         id="path5659"
         d="M 325.48316,211.70613 L 390.58826,211.70613 C 390.58826,214.6912 390.58826,214.6912 390.58826,214.6912 L 325.48316,214.6912 L 325.48316,214.6912 L 325.48316,211.70613 z"
         style="fill:#ffffff;fill-rule:evenodd;stroke:#000000;stroke-width:0.9375;stroke-linecap:butt;stroke-linejoin:miter;stroke-miterlimit:4;stroke-dasharray:none;stroke-opacity:1" />
      <path
         id="path5661"
         d="M 342.0344,173.978 L 328.62583,214.64032 C 325.60465,213.52765 325.60465,213.52765 325.60465,213.52765 L 339.01323,172.86532 L 339.01323,172.86532 L 342.0344,173.978 z"
         style="fill:#ffffff;fill-rule:evenodd;stroke:#000000;stroke-width:0.9375;stroke-linecap:butt;stroke-linejoin:miter;stroke-miterlimit:4;stroke-dasharray:none;stroke-opacity:1" />
      <path
         id="path5663"
         d="M 373.62279,173.978 L 387.03136,214.64032 C 390.05254,213.52765 390.05254,213.52765 390.05254,213.52765 L 376.64396,172.86532 L 376.64396,172.86532 L 373.62279,173.978 z"
         style="fill:#ffffff;fill-rule:evenodd;stroke:#000000;stroke-width:0.9375;stroke-linecap:butt;stroke-linejoin:miter;stroke-miterlimit:4;stroke-dasharray:none;stroke-opacity:1" />
      <path
         sodipodi:nodetypes="ccscccsc"
         id="path5665"
         d="M 318.04891,224.1802 L 316.31459,202.82425 C 316.03316,200.80348 317.61245,199.29791 320.32376,199.09262 C 323.13964,198.88012 324.81904,200.03857 324.94076,202.12372 L 326.67507,223.47967 L 326.67507,223.47967 C 326.87871,225.52152 325.44369,227.10326 322.88207,227.29887 C 319.80166,227.53354 318.28687,226.4186 318.04891,224.1802 z"
         style="fill:#ffffff;fill-rule:evenodd;stroke:#000000;stroke-width:0.9375;stroke-linecap:butt;stroke-linejoin:miter;stroke-miterlimit:4;stroke-dasharray:none;stroke-opacity:1" />
      <path
         sodipodi:nodetypes="ccscccsc"
         id="path5667"
         d="M 397.35788,224.1802 L 399.0922,202.82425 C 399.37363,200.80348 397.79434,199.29791 395.08303,199.09262 C 392.26715,198.88012 390.58775,200.03857 390.46603,202.12372 L 388.73172,223.47967 L 388.73172,223.47967 C 388.52808,225.52152 389.9631,227.10326 392.52472,227.29887 C 395.60513,227.53354 397.11992,226.4186 397.35788,224.1802 z"
         style="fill:#ffffff;fill-rule:evenodd;stroke:#000000;stroke-width:0.9375;stroke-linecap:butt;stroke-linejoin:miter;stroke-miterlimit:4;stroke-dasharray:none;stroke-opacity:1" />
    </g>
    <path
       sodipodi:type="arc"
       style="fill:#ffffff;stroke:#000000;stroke-width:0.93869787;stroke-linejoin:bevel;stroke-miterlimit:4;stroke-dasharray:none;stroke-opacity:1"
       id="path5681"
       sodipodi:cx="359.10922"
       sodipodi:cy="143.72997"
       sodipodi:rx="29.7995"
       sodipodi:ry="29.7995"
       d="M 388.90872,143.72997 A 29.7995,29.7995 0 1 1 329.30972,143.72997 A 29.7995,29.7995 0 1 1 388.90872,143.72997 z"
       transform="matrix(0.5310417,0,0,0.5310417,102.24727,69.247747)" />
    <path
       sodipodi:type="arc"
       style="fill:#ffffff;stroke:#000000;stroke-width:1.50982964;stroke-linejoin:bevel;stroke-miterlimit:4;stroke-dasharray:none;stroke-opacity:1"
       id="path5683"
       sodipodi:cx="359.10922"
       sodipodi:cy="143.72997"
       sodipodi:rx="29.7995"
       sodipodi:ry="29.7995"
       d="M 388.90872,143.72997 A 29.7995,29.7995 0 1 1 329.30972,143.72997 A 29.7995,29.7995 0 1 1 388.90872,143.72997 z"
       transform="matrix(0.3297402,0,0,0.3297402,174.53648,98.1808)" />
    <path
       sodipodi:type="arc"
       style="fill:#ffffff;stroke:#000000;stroke-width:2.33763933;stroke-linejoin:bevel;stroke-miterlimit:4;stroke-dasharray:none;stroke-opacity:1"
       id="path5685"
       sodipodi:cx="359.10922"
       sodipodi:cy="143.72997"
       sodipodi:rx="29.7995"
       sodipodi:ry="29.7995"
       d="M 388.90872,143.72997 A 29.7995,29.7995 0 1 1 329.30972,143.72997 A 29.7995,29.7995 0 1 1 388.90872,143.72997 z"
       transform="matrix(0.2129719,0,0,0.2129719,216.46905,114.9639)" />
  </g>
</svg>
