<?xml version="1.0" encoding="UTF-8" standalone="no"?>
<!-- Created with Inkscape (http://www.inkscape.org/) -->
<svg
   xmlns:dc="http://purl.org/dc/elements/1.1/"
   xmlns:cc="http://creativecommons.org/ns#"
   xmlns:rdf="http://www.w3.org/1999/02/22-rdf-syntax-ns#"
   xmlns:svg="http://www.w3.org/2000/svg"
   xmlns="http://www.w3.org/2000/svg"
   xmlns:sodipodi="http://sodipodi.sourceforge.net/DTD/sodipodi-0.dtd"
   xmlns:inkscape="http://www.inkscape.org/namespaces/inkscape"
   width="250"
   height="100"
   id="svg2"
   sodipodi:version="0.32"
   inkscape:version="0.46"
   sodipodi:docname="quadruplane.svg"
   inkscape:output_extension="org.inkscape.output.svg.inkscape"
   version="1.0">
  <defs
     id="defs4">
    <inkscape:perspective
       sodipodi:type="inkscape:persp3d"
       inkscape:vp_x="0 : 526.18109 : 1"
       inkscape:vp_y="0 : 1000 : 0"
       inkscape:vp_z="744.09448 : 526.18109 : 1"
       inkscape:persp3d-origin="372.04724 : 350.78739 : 1"
       id="perspective10" />
  </defs>
  <sodipodi:namedview
     id="base"
     pagecolor="#ffffff"
     bordercolor="#666666"
     borderopacity="1.0"
     gridtolerance="10000"
     guidetolerance="10"
     objecttolerance="10"
     inkscape:pageopacity="0.0"
     inkscape:pageshadow="2"
     inkscape:zoom="2.8284271"
     inkscape:cx="121.94696"
     inkscape:cy="52.084885"
     inkscape:document-units="pt"
     inkscape:current-layer="layer1"
     showgrid="false"
     inkscape:window-width="1280"
     inkscape:window-height="953"
     inkscape:window-x="0"
     inkscape:window-y="48"
     units="px"
     showguides="true"
     inkscape:guide-bbox="true" />
  <metadata
     id="metadata7">
    <rdf:RDF>
      <cc:Work
         rdf:about="">
        <dc:format>image/svg+xml</dc:format>
        <dc:type
           rdf:resource="http://purl.org/dc/dcmitype/StillImage" />
      </cc:Work>
    </rdf:RDF>
  </metadata>
  <g
     inkscape:label="Layer 1"
     inkscape:groupmode="layer"
     id="layer1"
     transform="translate(-167.97263,-92.342582)">
    <text
       xml:space="preserve"
       style="font-size:8px;font-style:normal;font-variant:normal;font-weight:normal;font-stretch:normal;text-align:start;line-height:120.00000477%;writing-mode:lr-tb;text-anchor:start;fill:#000000;fill-opacity:1;stroke:none;stroke-width:1px;stroke-linecap:butt;stroke-linejoin:miter;stroke-opacity:1;font-family:Sans;-inkscape-font-specification:Sans"
       x="798.5"
       y="19.5"
       id="text4249"
       sodipodi:linespacing="120%"
       transform="translate(167.97263,92.342582)"><tspan
         sodipodi:role="line"
         id="tspan4251"
         x="798.5"
         y="19.5" /></text>
    <path
       style="fill:#ffffff;fill-rule:evenodd;stroke:#000000;stroke-width:0.55763322;stroke-linecap:butt;stroke-linejoin:miter;stroke-miterlimit:4;stroke-dasharray:none;stroke-opacity:1"
       d="M 247.35338,137.41632 L 341.0271,137.41632 C 341.0271,140.74709 341.0271,140.74709 341.0271,140.74709 L 247.35338,140.74709 L 247.35338,140.74709 L 247.35338,137.41632 z"
       id="path4750" />
    <path
       style="fill:#ffffff;fill-rule:evenodd;stroke:#000000;stroke-width:0.47446173;stroke-linecap:butt;stroke-linejoin:miter;stroke-miterlimit:4;stroke-dasharray:none;stroke-opacity:1"
       d="M 293.50384,102.5162 L 293.50384,159.81476 C 294.87665,159.81476 294.87665,159.81476 294.87665,159.81476 L 294.87665,102.5162 L 294.87665,102.5162 L 293.50384,102.5162 z"
       id="path5370" />
    <path
       style="fill:#ffffff;fill-rule:evenodd;stroke:#000000;stroke-width:0.47446173;stroke-linecap:butt;stroke-linejoin:miter;stroke-miterlimit:4;stroke-dasharray:none;stroke-opacity:1"
       d="M 294.87665,102.5162 L 294.87665,159.81476 C 293.50384,159.81476 293.50384,159.81476 293.50384,159.81476 L 293.50384,102.5162 L 293.50384,102.5162 L 294.87665,102.5162 z"
       id="path4756" />
    <path
       style="fill:none;fill-rule:evenodd;stroke:#000000;stroke-width:0.36467135;stroke-linecap:butt;stroke-linejoin:miter;stroke-miterlimit:4;stroke-dasharray:none;stroke-opacity:1"
       d="M 280.01496,103.45157 L 308.36553,118.62747"
       id="path4863" />
    <path
       style="fill:none;fill-rule:evenodd;stroke:#000000;stroke-width:0.35649967;stroke-linecap:butt;stroke-linejoin:miter;stroke-miterlimit:4;stroke-dasharray:none;stroke-opacity:1"
       d="M 279.8807,118.91381 L 308.49979,103.38091"
       id="path4865" />
    <path
       style="fill:#ffffff;fill-rule:evenodd;stroke:#000000;stroke-width:0.49785158;stroke-linecap:butt;stroke-linejoin:miter;stroke-miterlimit:4;stroke-dasharray:none;stroke-opacity:1"
       d="M 295.9156,99.87226 L 295.9156,129.29396 C 292.46489,129.29396 292.46489,129.29396 292.46489,129.29396 L 292.46489,99.87226 L 292.46489,99.87226 L 295.9156,99.87226 z"
       id="path4774" />
    <path
       style="fill:#ffffff;fill-rule:evenodd;stroke:#000000;stroke-width:0.49848771;stroke-linecap:butt;stroke-linejoin:miter;stroke-miterlimit:4;stroke-dasharray:none;stroke-opacity:1"
       d="M 284.55798,137.4875 L 286.21871,125.40431 L 286.21871,125.40431 C 287.17668,117.89602 300.26527,117.74223 301.49747,125.40431 L 303.8225,137.78958 L 284.55798,137.4875 z"
       id="path4788"
       sodipodi:nodetypes="cccccc" />
    <g
       id="g4776"
       transform="matrix(0.5310417,0,0,0.5310417,104.23482,65.904375)"
       style="stroke-width:0.9375;stroke-miterlimit:4;stroke-dasharray:none">
      <path
         id="path4778"
         d="M 325.48316,211.70613 L 390.58826,211.70613 C 390.58826,214.6912 390.58826,214.6912 390.58826,214.6912 L 325.48316,214.6912 L 325.48316,214.6912 L 325.48316,211.70613 z"
         style="fill:#ffffff;fill-rule:evenodd;stroke:#000000;stroke-width:0.9375;stroke-linecap:butt;stroke-linejoin:miter;stroke-miterlimit:4;stroke-dasharray:none;stroke-opacity:1" />
      <path
         id="path4780"
         d="M 342.0344,173.978 L 328.62583,214.64032 C 325.60465,213.52765 325.60465,213.52765 325.60465,213.52765 L 339.01323,172.86532 L 339.01323,172.86532 L 342.0344,173.978 z"
         style="fill:#ffffff;fill-rule:evenodd;stroke:#000000;stroke-width:0.9375;stroke-linecap:butt;stroke-linejoin:miter;stroke-miterlimit:4;stroke-dasharray:none;stroke-opacity:1" />
      <path
         id="path4782"
         d="M 373.62279,173.978 L 387.03136,214.64032 C 390.05254,213.52765 390.05254,213.52765 390.05254,213.52765 L 376.64396,172.86532 L 376.64396,172.86532 L 373.62279,173.978 z"
         style="fill:#ffffff;fill-rule:evenodd;stroke:#000000;stroke-width:0.9375;stroke-linecap:butt;stroke-linejoin:miter;stroke-miterlimit:4;stroke-dasharray:none;stroke-opacity:1" />
      <path
         sodipodi:nodetypes="ccscccsc"
         id="path4784"
         d="M 318.04891,224.1802 L 316.31459,202.82425 C 316.03316,200.80348 317.61245,199.29791 320.32376,199.09262 C 323.13964,198.88012 324.81904,200.03857 324.94076,202.12372 L 326.67507,223.47967 L 326.67507,223.47967 C 326.87871,225.52152 325.44369,227.10326 322.88207,227.29887 C 319.80166,227.53354 318.28687,226.4186 318.04891,224.1802 z"
         style="fill:#ffffff;fill-rule:evenodd;stroke:#000000;stroke-width:0.9375;stroke-linecap:butt;stroke-linejoin:miter;stroke-miterlimit:4;stroke-dasharray:none;stroke-opacity:1" />
      <path
         sodipodi:nodetypes="ccscccsc"
         id="path4786"
         d="M 397.35788,224.1802 L 399.0922,202.82425 C 399.37363,200.80348 397.79434,199.29791 395.08303,199.09262 C 392.26715,198.88012 390.58775,200.03857 390.46603,202.12372 L 388.73172,223.47967 L 388.73172,223.47967 C 388.52808,225.52152 389.9631,227.10326 392.52472,227.29887 C 395.60513,227.53354 397.11992,226.4186 397.35788,224.1802 z"
         style="fill:#ffffff;fill-rule:evenodd;stroke:#000000;stroke-width:0.9375;stroke-linecap:butt;stroke-linejoin:miter;stroke-miterlimit:4;stroke-dasharray:none;stroke-opacity:1" />
    </g>
    <g
       id="g2425"
       transform="translate(0.2781234,0)">
      <path
         id="path2421"
         d="M 279.47021,102.64988 L 279.47021,159.94844 C 278.0974,159.94844 278.0974,159.94844 278.0974,159.94844 L 278.0974,102.64988 L 278.0974,102.64988 L 279.47021,102.64988 z"
         style="fill:#ffffff;fill-rule:evenodd;stroke:#000000;stroke-width:0.47446173;stroke-linecap:butt;stroke-linejoin:miter;stroke-miterlimit:4;stroke-dasharray:none;stroke-opacity:1" />
      <path
         id="path2423"
         d="M 309.72684,102.64989 L 309.72684,159.94844 C 308.35403,159.94844 308.35403,159.94844 308.35403,159.94844 L 308.35403,102.64989 L 308.35403,102.64989 L 309.72684,102.64989 z"
         style="fill:#ffffff;fill-rule:evenodd;stroke:#000000;stroke-width:0.47446173;stroke-linecap:butt;stroke-linejoin:miter;stroke-miterlimit:4;stroke-dasharray:none;stroke-opacity:1" />
    </g>
    <g
       id="g2444">
      <g
         id="g2434">
        <path
           style="fill:none;fill-rule:evenodd;stroke:#000000;stroke-width:0.38144916;stroke-linecap:butt;stroke-linejoin:miter;stroke-miterlimit:4;stroke-dasharray:none;stroke-opacity:1"
           d="M 359.59758,102.85575 L 310.04443,159.63788"
           id="path5366" />
        <path
           style="fill:none;fill-rule:evenodd;stroke:#000000;stroke-width:0.39169902;stroke-linecap:butt;stroke-linejoin:miter;stroke-miterlimit:4;stroke-dasharray:none;stroke-opacity:1"
           d="M 359.82426,159.82272 L 309.87161,102.70113"
           id="path5368" />
      </g>
      <g
         transform="translate(-81.315384,0)"
         id="g2438">
        <path
           style="fill:none;fill-rule:evenodd;stroke:#000000;stroke-width:0.38144916;stroke-linecap:butt;stroke-linejoin:miter;stroke-miterlimit:4;stroke-dasharray:none;stroke-opacity:1"
           d="M 359.59758,102.85575 L 310.04443,159.63788"
           id="path2440" />
        <path
           style="fill:none;fill-rule:evenodd;stroke:#000000;stroke-width:0.39169902;stroke-linecap:butt;stroke-linejoin:miter;stroke-miterlimit:4;stroke-dasharray:none;stroke-opacity:1"
           d="M 359.82426,159.82272 L 309.87161,102.70113"
           id="path2442" />
      </g>
    </g>
    <path
       style="fill:#ffffff;fill-rule:evenodd;stroke:#000000;stroke-width:1.01704335;stroke-linecap:butt;stroke-linejoin:miter;stroke-miterlimit:4;stroke-dasharray:none;stroke-opacity:1"
       d="M 201.59004,159.90963 L 386.79044,159.90963 C 386.79044,163.4693 386.79044,163.4693 386.79044,163.4693 L 201.59004,163.4693 L 201.59004,163.4693 L 201.59004,159.90963 z"
       id="path4794" />
    <g
       id="g2460"
       transform="translate(-9.4659537e-4,0)">
      <path
         id="path2454"
         d="M 228.48404,102.52857 L 228.48404,159.82713 C 227.11123,159.82713 227.11123,159.82713 227.11123,159.82713 L 227.11123,102.52857 L 227.11123,102.52857 L 228.48404,102.52857 z"
         style="fill:#ffffff;fill-rule:evenodd;stroke:#000000;stroke-width:0.47446173;stroke-linecap:butt;stroke-linejoin:miter;stroke-miterlimit:4;stroke-dasharray:none;stroke-opacity:1" />
      <path
         id="path2456"
         d="M 361.27115,102.52858 L 361.27115,159.82713 C 359.89834,159.82713 359.89834,159.82713 359.89834,159.82713 L 359.89834,102.52858 L 359.89834,102.52858 L 361.27115,102.52858 z"
         style="fill:#ffffff;fill-rule:evenodd;stroke:#000000;stroke-width:0.47446173;stroke-linecap:butt;stroke-linejoin:miter;stroke-miterlimit:4;stroke-dasharray:none;stroke-opacity:1" />
    </g>
    <path
       style="fill:#ffffff;fill-rule:evenodd;stroke:#000000;stroke-width:1.01704335;stroke-linecap:butt;stroke-linejoin:miter;stroke-miterlimit:4;stroke-dasharray:none;stroke-opacity:1"
       d="M 201.59004,139.68478 L 386.79044,139.68478 C 386.79044,143.24445 386.79044,143.24445 386.79044,143.24445 L 201.59004,143.24445 L 201.59004,143.24445 L 201.59004,139.68478 z"
       id="path2410" />
    <path
       style="fill:#ffffff;fill-rule:evenodd;stroke:#000000;stroke-width:1.01704335;stroke-linecap:butt;stroke-linejoin:miter;stroke-miterlimit:4;stroke-dasharray:none;stroke-opacity:1"
       d="M 201.59004,119.45992 L 386.79044,119.45992 C 386.79044,123.01959 386.79044,123.01959 386.79044,123.01959 L 201.59004,123.01959 L 201.59004,123.01959 L 201.59004,119.45992 z"
       id="path2412" />
    <path
       style="fill:#ffffff;fill-rule:evenodd;stroke:#000000;stroke-width:1.01704335;stroke-linecap:butt;stroke-linejoin:miter;stroke-miterlimit:4;stroke-dasharray:none;stroke-opacity:1"
       d="M 201.59004,99.235068 L 386.79044,99.235068 C 386.79044,102.79474 386.79044,102.79474 386.79044,102.79474 L 201.59004,102.79474 L 201.59004,102.79474 L 201.59004,99.235068 z"
       id="path2414" />
    <path
       sodipodi:type="arc"
       style="fill:#ffffff;stroke:#000000;stroke-width:0.93869787;stroke-linejoin:bevel;stroke-miterlimit:4;stroke-dasharray:none;stroke-opacity:1"
       id="path4796"
       sodipodi:cx="359.10922"
       sodipodi:cy="143.72997"
       sodipodi:rx="29.7995"
       sodipodi:ry="29.7995"
       d="M 388.90872,143.72997 A 29.7995,29.7995 0 1 1 329.30972,143.72997 A 29.7995,29.7995 0 1 1 388.90872,143.72997 z"
       transform="matrix(0.5310417,0,0,0.5310417,103.48827,69.247744)" />
    <path
       sodipodi:type="arc"
       style="fill:#ffffff;stroke:#000000;stroke-width:1.50982964;stroke-linejoin:bevel;stroke-miterlimit:4;stroke-dasharray:none;stroke-opacity:1"
       id="path4798"
       sodipodi:cx="359.10922"
       sodipodi:cy="143.72997"
       sodipodi:rx="29.7995"
       sodipodi:ry="29.7995"
       d="M 388.90872,143.72997 A 29.7995,29.7995 0 1 1 329.30972,143.72997 A 29.7995,29.7995 0 1 1 388.90872,143.72997 z"
       transform="matrix(0.3297402,0,0,0.3297402,175.7775,98.1808)" />
    <path
       sodipodi:type="arc"
       style="fill:#ffffff;stroke:#000000;stroke-width:2.33763933;stroke-linejoin:bevel;stroke-miterlimit:4;stroke-dasharray:none;stroke-opacity:1"
       id="path4800"
       sodipodi:cx="359.10922"
       sodipodi:cy="143.72997"
       sodipodi:rx="29.7995"
       sodipodi:ry="29.7995"
       d="M 388.90872,143.72997 A 29.7995,29.7995 0 1 1 329.30972,143.72997 A 29.7995,29.7995 0 1 1 388.90872,143.72997 z"
       transform="matrix(0.2129719,0,0,0.2129719,217.71007,114.96389)" />
  </g>
</svg>
