<?xml version="1.0" encoding="UTF-8" standalone="no"?>
<svg
   version="1.1"
   id="Layer_1"
   x="0px"
   y="0px"
   viewBox="0 0 1177 1648"
   enable-background="new 0 0 1177 1648"
   xml:space="preserve"
   sodipodi:docname="1550355375colour.svg"
   inkscape:version="1.2.2 (b0a8486, 2022-12-01)"
   xmlns:inkscape="http://www.inkscape.org/namespaces/inkscape"
   xmlns:sodipodi="http://sodipodi.sourceforge.net/DTD/sodipodi-0.dtd"
   xmlns:xlink="http://www.w3.org/1999/xlink"
   xmlns="http://www.w3.org/2000/svg"
   xmlns:svg="http://www.w3.org/2000/svg"
   xmlns:rdf="http://www.w3.org/1999/02/22-rdf-syntax-ns#"
   xmlns:cc="http://creativecommons.org/ns#"
   xmlns:dc="http://purl.org/dc/elements/1.1/"><defs
   id="defs58"><linearGradient
     inkscape:collect="always"
     id="linearGradient2216"><stop
       style="stop-color:#e0d27e;stop-opacity:1;"
       offset="0"
       id="stop2212" /><stop
       style="stop-color:#e0d27e;stop-opacity:0;"
       offset="1"
       id="stop2214" /></linearGradient><linearGradient
     inkscape:collect="always"
     id="linearGradient2206"><stop
       style="stop-color:#8f80aa;stop-opacity:1;"
       offset="0"
       id="stop2202" /><stop
       style="stop-color:#8f80aa;stop-opacity:0;"
       offset="1"
       id="stop2204" /></linearGradient><radialGradient
     inkscape:collect="always"
     xlink:href="#linearGradient2206"
     id="radialGradient2208"
     cx="575.38495"
     cy="526.54803"
     fx="575.38495"
     fy="526.54803"
     r="562.06645"
     gradientTransform="matrix(1.6085967,-0.03220732,0.01169137,0.58392567,-365.61485,280.41904)"
     gradientUnits="userSpaceOnUse" /><radialGradient
     inkscape:collect="always"
     xlink:href="#linearGradient2216"
     id="radialGradient2218"
     cx="508.73309"
     cy="513.38123"
     fx="508.73309"
     fy="513.38123"
     r="548.75445"
     gradientTransform="matrix(1.6073587,-0.13760195,0.05512311,0.64390515,-359.77757,305.26279)"
     gradientUnits="userSpaceOnUse" /></defs><sodipodi:namedview
   id="namedview56"
   pagecolor="#ffffff"
   bordercolor="#000000"
   borderopacity="0.25"
   inkscape:showpageshadow="2"
   inkscape:pageopacity="0.0"
   inkscape:pagecheckerboard="0"
   inkscape:deskcolor="#d1d1d1"
   showgrid="false"
   inkscape:zoom="0.22392792"
   inkscape:cx="562.68107"
   inkscape:cy="1520.5786"
   inkscape:window-width="1652"
   inkscape:window-height="1099"
   inkscape:window-x="0"
   inkscape:window-y="25"
   inkscape:window-maximized="0"
   inkscape:current-layer="g53" />
<g
   id="g53">
	
	
	
<g
   id="g3004"><path
     id="path47"
     d="M 484.49805 1215.543 C 487.02818 1218.6757 484.24625 1218.4156 498.88867 1258.1582 C 550.81162 1394.9171 524.80371 1286.0199 551.17969 1408.3438 C 554.35568 1423.8927 555.87148 1406.9801 537.0625 1509.082 C 533.9875 1509.307 530.87265 1509.1328 527.84766 1509.7578 C 523.33066 1511.2158 523.07149 1518.8145 527.52148 1520.5645 C 530.15448 1521.3645 532.9463 1520.9486 535.6543 1520.9316 C 537.78629 1575.0766 527.97352 1608.6921 551.1875 1619.1621 C 563.61749 1624.9231 583.38433 1623.9707 598.44531 1623.9707 C 625.46029 1623.3187 647.42719 1624.8057 661.32617 1619.7207 C 684.01815 1611.6137 676.16597 1578.2556 678.16797 1521.1406 C 680.70097 1520.9156 683.41739 1521.1057 685.77539 1519.9727 C 688.63339 1518.1317 688.70781 1513.7324 686.50781 1511.3574 C 684.25781 1508.6574 680.39981 1509.0154 677.25781 1508.6484 C 676.51181 1505.8634 660.4338 1419.8406 660.3418 1418.9766 C 660.8748 1414.8316 674.26041 1353.9705 676.81641 1343.4805 C 685.3864 1332.3455 718.25828 1225.2932 720.11328 1218.6172 C 710.47229 1221.1842 701.00544 1224.4672 691.18945 1226.3672 C 691.28282 1226.1904 691.84006 1225.2647 691.93945 1225.0781 C 680.04275 1227.5694 667.66383 1229.5232 654.71875 1230.8496 C 654.52095 1231.356 654.30296 1231.9459 654.10547 1232.4512 C 638.07248 1234.1512 621.93239 1234.9184 605.81641 1234.5684 C 605.87307 1234.1055 605.98171 1233.2297 606.03906 1232.7617 C 593.21537 1232.5075 579.89903 1231.7055 565.97656 1230.2305 C 566.05708 1230.876 566.13038 1231.5224 566.21094 1232.168 C 552.86395 1231.301 522.49168 1226.4858 511.17969 1223.4258 C 510.93731 1222.7883 510.68979 1222.078 510.44727 1221.4395 C 501.99795 1219.6968 493.34293 1217.7252 484.49805 1215.543 z M 541.40234 1343.0137 C 546.36834 1344.2227 551.30097 1345.5735 556.29297 1346.6895 C 556.66797 1357.0024 556.66736 1406.7181 556.06836 1413.2441 C 551.60236 1389.7532 545.87734 1366.4966 541.40234 1343.0137 z M 672.42969 1343.4551 C 667.61369 1366.9961 661.83085 1390.3467 657.38086 1413.9707 C 656.68986 1412.7617 656.71645 1416.1442 656.68945 1347.4883 C 661.88145 1345.9383 667.16369 1344.7051 672.42969 1343.4551 z M 561.14258 1347.7051 C 565.65157 1348.6051 570.17519 1349.4389 574.74219 1350.0059 C 570.72519 1369.2888 566.21718 1388.4618 562.49219 1407.8027 C 562.12619 1409.6447 561.6502 1411.4853 561.0332 1413.2773 C 560.7502 1399.3454 560.80917 1385.4135 560.82617 1371.4805 C 561.02617 1363.5555 560.48458 1355.5971 561.14258 1347.7051 z M 652.83008 1348.2383 C 652.92108 1370.1963 652.85567 1392.1532 652.76367 1414.1191 C 651.61567 1410.4261 639.15327 1353.0503 639.07227 1350.2383 C 643.66426 1349.6463 648.23008 1348.7883 652.83008 1348.2383 z M 578.875 1350.6211 C 597.39098 1352.5131 616.11688 1352.9313 634.63086 1350.8223 C 635.90086 1356.1463 648.87609 1415.3869 649.37109 1419.7539 C 644.7881 1419.7539 640.20585 1419.7787 635.63086 1419.7207 C 635.25586 1414.2797 636.49609 1408.5867 634.62109 1403.3457 C 630.8211 1394.5787 616.25625 1394.4459 612.28125 1403.1289 C 610.23925 1408.3949 611.48828 1414.1523 611.23828 1419.6523 C 608.01328 1419.8023 604.78926 1419.7935 601.57227 1419.6855 C 601.28827 1413.8776 602.62286 1407.6351 599.88086 1402.2441 C 595.58186 1394.4361 582.42421 1394.5127 578.19922 1402.3457 C 575.64922 1407.7787 577.0338 1413.9359 576.5918 1419.7109 C 572.3758 1419.7769 568.1574 1419.8029 563.94141 1419.6699 C 564.75041 1415.7829 577.778 1354.4321 578.875 1350.6211 z M 606.07422 1430.166 C 607.58559 1430.2108 609.1168 1430.3724 610.5918 1430.3184 C 612.1168 1434.0764 613.91622 1438.2359 617.82422 1440.0859 C 623.07421 1443.0449 630.22325 1441.0361 633.40625 1435.9941 C 634.67325 1434.2441 635.00742 1431.9193 636.48242 1430.3613 C 641.42342 1430.1443 646.39766 1430.1279 651.34766 1430.4609 C 656.43865 1456.6009 661.73829 1482.7087 666.61328 1508.8906 C 666.61228 1508.8906 547.41116 1509.2578 547.41016 1509.2578 C 552.33515 1482.9588 557.54357 1456.7105 562.35156 1430.3945 C 567.02656 1429.9785 571.71758 1430.2865 576.39258 1430.3945 C 577.58458 1433.2535 578.61777 1436.4518 581.25977 1438.3438 C 585.60976 1441.8267 592.40019 1442.1097 596.74219 1438.4688 C 599.27518 1436.5348 600.24278 1433.4107 601.67578 1430.7188 C 603.07128 1430.1938 604.56285 1430.1213 606.07422 1430.166 z "
     style="stroke:#4b4b4b;stroke-opacity:1;fill:#423933;fill-opacity:1" /><path
     style="opacity:1;fill:#d8be21;fill-opacity:1;stroke:none;stroke-opacity:1"
     d="M 100.72076,248.32877 C 142.84483,171.93469 240.83058,113.30318 298.22479,78.507185 335.66136,55.810774 347.58483,65.89302 384.14375,51.39831 528.39055,-5.7919846 765.14064,23.827699 905.53002,110.90972 1024.9231,184.96797 1022.2176,217.7764 1071.4605,253.53846 l 52.0969,140.66175 13.8925,140.66175 -92.0379,230.96312 -217.07059,305.63542 -178.91403,243.1191 -137.14076,-71.1992 -29.5216,-39.941 -29.52161,-22.5753 L 309.10854,1026.3098 109.40358,772.77134 39.940991,548.75448 67.726027,345.5764 Z"
     id="path1449"
     sodipodi:nodetypes="cssscccccccccccccc" /><path
     style="opacity:1;fill:url(#radialGradient2218);fill-opacity:1;stroke:none;stroke-opacity:1"
     d="M 100.72076,248.32877 C 142.84483,171.93469 240.83058,113.30318 298.22479,78.507185 335.66136,55.810774 347.58483,65.89302 384.14375,51.39831 528.39055,-5.7919846 765.14064,23.827699 905.53002,110.90972 1024.9231,184.96797 1022.2176,217.7764 1071.4605,253.53846 l 52.0969,140.66175 13.8925,140.66175 -92.0379,230.96312 -217.07059,305.63542 -189.89063,240.586 -126.16416,-68.6661 -29.5216,-39.941 -29.52161,-22.5753 L 309.10854,1026.3098 109.40358,772.77134 39.940991,548.75448 67.726027,345.5764 Z"
     id="path2210"
     sodipodi:nodetypes="cssscccccccccccccc" /><path
     id="path437"
     d="M 551.91797 24.029297 C 547.29297 24.463295 542.49314 24.19669 538.03516 25.679688 C 536.58516 27.162684 535.94317 29.202926 535.07617 31.044922 C 491.18027 133.86372 490.07372 377.94936 493.63672 488.95312 C 496.45372 552.981 494.28435 570.93991 511.69531 753.56055 C 527.33168 912.71481 546.18187 1071.5392 565.97656 1230.2305 C 579.89902 1231.7055 593.21539 1232.5075 606.03906 1232.7617 C 633.10552 1011.8987 737.25455 220.18874 637.17383 26.611328 C 616.83387 25.34333 584.01991 24.029297 551.91797 24.029297 z M 433.72266 36.253906 C 403.63372 40.763898 349.41562 54.739776 302.13672 75.552734 C 292.12774 80.012726 293.37524 76.43608 263.7793 122.20898 C 107.4166 381.63546 225.37011 777.85958 304.62695 922.48828 C 318.74693 950.10622 320.3808 951.64124 432.76758 1145.1719 C 463.23252 1196.7777 446.44331 1173.2182 479.99023 1210.4102 C 482.51846 1213.3768 483.71122 1214.5688 484.49805 1215.543 C 493.34292 1217.7252 501.99795 1219.6968 510.44727 1221.4395 C 461.19207 1091.7436 409.07923 938.91249 374.20898 803.68359 C 341.98806 678.17585 334.64695 614.1522 331.25195 533.31836 C 317.00899 179.71206 422.12768 56.596866 433.72266 36.253906 z M 748.51172 46.136719 C 753.1527 54.677701 764.73399 69.809838 781.75195 107.88477 C 827.96587 212.82355 841.65802 339.45052 842.91602 453.1543 C 854.95711 686.65828 740.16587 1012.1008 654.71875 1230.8496 C 667.66382 1229.5232 680.04277 1227.5694 691.93945 1225.0781 C 706.03369 1198.6275 779.90925 1075.403 813.77734 1017.1758 C 889.0052 887.30402 933.49873 789.39395 963.51367 637.94727 C 986.54663 521.69249 996.08824 405.8007 972.9043 286.83594 C 950.13434 170.76116 904.87564 109.3722 900.09766 106.1582 C 836.48978 70.460278 771.83768 51.295709 748.51172 46.136719 z M 107.17578 237.2793 C 86.856802 265.62927 63.788535 312.38962 52.310547 358.26758 C -15.268386 553.99538 56.180221 761.67363 199.45508 910.14648 C 223.58805 934.63746 246.80318 960.00317 270.41016 984.99414 C 316.50711 1034.2551 316.36697 1034.3066 319.91797 1037.3926 C 308.43198 1017.7176 221.991 907.53474 179.74805 831.50781 C 133.99609 749.76689 95.446752 636.99205 81.634766 533.66016 C 62.990784 392.5523 92.862796 293.72424 107.17578 237.2793 z M 1071.4316 254.08789 C 1081.1146 291.36085 1088.8158 329.21724 1092.9648 367.5332 C 1128.3298 677.17989 949.50348 902.52241 825.09961 1075.9902 C 824.00861 1077.5142 823.00723 1079.0998 822.11523 1080.7578 C 831.94822 1069.3498 840.99982 1057.2748 850.50781 1045.5918 C 998.18666 860.81498 1209.5978 635.48014 1135.4219 382.52539 C 1119.5189 327.51145 1090.8326 278.03587 1071.4316 254.08789 z "
     style="fill:#560bdb;fill-opacity:1" /><path
     id="path2177"
     d="m 551.91797,24.029297 c -4.625,0.433998 -9.42483,0.167393 -13.88281,1.650391 -1.45,1.482996 -2.09199,3.523238 -2.95899,5.365234 -43.8959,102.818798 -45.00245,346.904438 -41.43945,457.908198 2.817,64.02788 0.64763,81.98679 18.05859,264.60743 15.63637,159.15426 34.48656,317.97865 54.28125,476.66995 13.92246,1.475 27.23883,2.277 40.0625,2.5312 C 633.10552,1011.8987 737.25455,220.18874 637.17383,26.611328 616.83387,25.34333 584.01991,24.029297 551.91797,24.029297 Z M 433.72266,36.253906 c -30.08894,4.509992 -84.30704,18.48587 -131.58594,39.298828 -10.00898,4.459992 -8.76148,0.883346 -38.35742,46.656246 -156.3627,259.42648 -38.40919,655.6506 40.84765,800.2793 14.11998,27.61794 15.75385,29.15296 128.14063,222.68362 30.46494,51.6058 13.67573,28.0463 47.22265,65.2383 2.52823,2.9666 3.72099,4.1586 4.50782,5.1328 8.84487,2.1822 17.4999,4.1538 25.94922,5.8965 C 461.19207,1091.7436 409.07923,938.91249 374.20898,803.68359 341.98806,678.17585 334.64695,614.1522 331.25195,533.31836 317.00899,179.71206 422.12768,56.596866 433.72266,36.253906 Z m 314.78906,9.882813 c 4.64098,8.540982 16.22227,23.673119 33.24023,61.748051 46.21392,104.93878 59.90607,231.56575 61.16407,345.26953 12.04109,233.50398 -102.75015,558.9465 -188.19727,777.6953 12.94507,-1.3264 25.32402,-3.2802 37.2207,-5.7715 14.09424,-26.4506 87.9698,-149.6751 121.83789,-207.9023 C 889.0052,887.30402 933.49873,789.39395 963.51367,637.94727 986.54663,521.69249 996.08824,405.8007 972.9043,286.83594 950.13434,170.76116 904.87564,109.3722 900.09766,106.1582 836.48978,70.460278 771.83768,51.295709 748.51172,46.136719 Z M 107.17578,237.2793 c -20.318978,28.34997 -43.387245,75.11032 -54.865233,120.98828 -67.578933,195.7278 3.869674,403.40605 147.144533,551.8789 24.13297,24.49098 47.3481,49.85669 70.95508,74.84766 46.09695,49.26096 45.95681,49.31246 49.50781,52.39846 C 308.43198,1017.7176 221.991,907.53474 179.74805,831.50781 133.99609,749.76689 95.446752,636.99205 81.634766,533.66016 62.990784,392.5523 92.862796,293.72424 107.17578,237.2793 Z m 964.25582,16.80859 c -11.1558,-25.24337 17.3842,75.12935 21.5332,113.44531 35.365,309.64669 -143.46132,534.98921 -267.86519,708.457 -1.091,1.524 -2.09238,3.1096 -2.98438,4.7676 9.83299,-11.408 18.88459,-23.483 28.39258,-35.166 147.67885,-184.77682 359.08999,-410.11166 284.91409,-663.06641 -15.903,-55.01394 -44.5893,-104.48952 -63.9903,-128.4375 z"
     style="fill:url(#radialGradient2208);fill-opacity:1"
     sodipodi:nodetypes="ccccccccccccccccccccccccccccccccccccccccccccc" /><path
     id="path2220"
     style="stroke:#560bdb;stroke-opacity:1;fill:#560bdb;fill-opacity:1;stroke-width:1.5;stroke-dasharray:none"
     d="M 484.49805 1215.543 C 487.02817 1218.6757 484.24627 1218.4156 498.88867 1258.1582 C 529.06995 1337.6521 532.91839 1334.232 536.03125 1341.3809 L 561.13477 1347.877 C 561.13941 1347.8198 561.13781 1347.7623 561.14258 1347.7051 C 564.86281 1348.4476 568.59917 1349.1067 572.35547 1349.6465 L 586.86328 1351.0957 L 587.36328 1351.3086 C 603.10244 1352.5106 618.93933 1352.6097 634.63086 1350.8223 C 634.63317 1350.832 634.65581 1350.9392 634.6582 1350.9492 C 636.0787 1350.7473 637.59694 1350.4944 639.07617 1350.2617 C 639.07612 1350.2601 639.07231 1350.2398 639.07227 1350.2383 C 639.86235 1350.1364 640.65061 1350.0092 641.43945 1349.8945 C 648.05032 1348.8075 655.372 1347.3462 662.79297 1345.832 C 665.99753 1345.005 669.21297 1344.2186 672.42969 1343.4551 C 672.39724 1343.6137 672.35871 1343.7711 672.32617 1343.9297 C 673.91726 1343.5901 675.57486 1343.2133 677.18164 1342.8652 C 686.22286 1329.5914 718.28082 1225.2121 720.11328 1218.6172 C 710.4723 1221.1842 701.00543 1224.4672 691.18945 1226.3672 C 691.28282 1226.1904 691.84006 1225.2647 691.93945 1225.0781 C 680.04277 1227.5694 667.66382 1229.5232 654.71875 1230.8496 C 654.52095 1231.356 654.30296 1231.9459 654.10547 1232.4512 C 638.07249 1234.1512 621.93237 1234.9184 605.81641 1234.5684 C 605.87307 1234.1055 605.98171 1233.2297 606.03906 1232.7617 C 593.21539 1232.5075 579.89902 1231.7055 565.97656 1230.2305 C 566.05708 1230.876 566.13038 1231.5224 566.21094 1232.168 C 552.86396 1231.301 522.49167 1226.4858 511.17969 1223.4258 C 510.93731 1222.7883 510.68979 1222.078 510.44727 1221.4395 C 501.99795 1219.6968 493.34292 1217.7252 484.49805 1215.543 z " /></g></g>
<metadata
   id="metadata3407"><rdf:RDF><cc:Work
       rdf:about=""><dc:creator><cc:Agent><dc:title>j4p4n</dc:title></cc:Agent></dc:creator><cc:license
         rdf:resource="http://creativecommons.org/publicdomain/zero/1.0/" /></cc:Work><cc:License
       rdf:about="http://creativecommons.org/publicdomain/zero/1.0/"><cc:permits
         rdf:resource="http://creativecommons.org/ns#Reproduction" /><cc:permits
         rdf:resource="http://creativecommons.org/ns#Distribution" /><cc:permits
         rdf:resource="http://creativecommons.org/ns#DerivativeWorks" /></cc:License></rdf:RDF></metadata></svg>
