<?xml version="1.0" encoding="UTF-8" standalone="no"?>
<svg
   version="1.1"
   id="Layer_1"
   x="0px"
   y="0px"
   viewBox="0 0 1350 2300"
   enable-background="new 0 0 1177 1648"
   xml:space="preserve"
   sodipodi:docname="montgolfiereArchimede.svg"
   inkscape:version="1.4.3 (0d15f75, 2025-12-25)"
   width="1350"
   height="2300"
   xmlns:inkscape="http://www.inkscape.org/namespaces/inkscape"
   xmlns:sodipodi="http://sodipodi.sourceforge.net/DTD/sodipodi-0.dtd"
   xmlns:xlink="http://www.w3.org/1999/xlink"
   xmlns="http://www.w3.org/2000/svg"
   xmlns:svg="http://www.w3.org/2000/svg"
   xmlns:rdf="http://www.w3.org/1999/02/22-rdf-syntax-ns#"
   xmlns:cc="http://creativecommons.org/ns#"
   xmlns:dc="http://purl.org/dc/elements/1.1/"><defs
   id="defs58"><marker
     style="overflow:visible"
     id="Triangle"
     refX="0"
     refY="0"
     orient="auto-start-reverse"
     inkscape:stockid="Triangle arrow"
     markerWidth="1"
     markerHeight="1"
     viewBox="0 0 1 1"
     inkscape:isstock="true"
     inkscape:collect="always"
     preserveAspectRatio="xMidYMid"><path
       transform="scale(0.5)"
       style="fill:context-stroke;fill-rule:evenodd;stroke:context-stroke;stroke-width:1pt"
       d="M 5.77,0 -2.88,5 V -5 Z"
       id="path135" /></marker><marker
     style="overflow:visible"
     id="DartArrow"
     refX="0"
     refY="0"
     orient="auto-start-reverse"
     inkscape:stockid="Dart arrow"
     markerWidth="1"
     markerHeight="1"
     viewBox="0 0 1 1"
     inkscape:isstock="true"
     inkscape:collect="always"
     preserveAspectRatio="xMidYMid"><path
       style="fill:context-stroke;fill-rule:evenodd;stroke:none"
       d="M 0,0 5,-5 -12.5,0 5,5 Z"
       transform="scale(-0.5)"
       id="path6" /></marker><marker
     style="overflow:visible"
     id="marker4"
     refX="0"
     refY="0"
     orient="auto-start-reverse"
     inkscape:stockid="Dart arrow"
     markerWidth="1"
     markerHeight="1"
     viewBox="0 0 1 1"
     inkscape:isstock="true"
     inkscape:collect="always"
     preserveAspectRatio="xMidYMid"><path
       style="fill:context-stroke;fill-rule:evenodd;stroke:none"
       d="M 0,0 5,-5 -12.5,0 5,5 Z"
       transform="scale(-0.5)"
       id="path4" /></marker><marker
     style="overflow:visible"
     id="Dot"
     refX="0"
     refY="0"
     orient="auto"
     inkscape:stockid="Dot"
     markerWidth="1"
     markerHeight="1"
     viewBox="0 0 1 1"
     inkscape:isstock="true"
     inkscape:collect="always"
     preserveAspectRatio="xMidYMid"><path
       transform="scale(0.5)"
       style="fill:context-stroke;fill-rule:evenodd;stroke:none"
       d="M 5,0 C 5,2.76 2.76,5 0,5 -2.76,5 -5,2.76 -5,0 c 0,-2.76 2.3,-5 5,-5 2.76,0 5,2.24 5,5 z"
       sodipodi:nodetypes="sssss"
       id="path17" /></marker><linearGradient
     inkscape:collect="always"
     id="linearGradient2216"><stop
       style="stop-color:#e0d27e;stop-opacity:1;"
       offset="0"
       id="stop2212" /><stop
       style="stop-color:#e0d27e;stop-opacity:0;"
       offset="1"
       id="stop2214" /></linearGradient><linearGradient
     inkscape:collect="always"
     id="linearGradient2206"><stop
       style="stop-color:#8f80aa;stop-opacity:1;"
       offset="0"
       id="stop2202" /><stop
       style="stop-color:#8f80aa;stop-opacity:0;"
       offset="1"
       id="stop2204" /></linearGradient><radialGradient
     inkscape:collect="always"
     xlink:href="#linearGradient2206"
     id="radialGradient2208"
     cx="575.38495"
     cy="526.54803"
     fx="575.38495"
     fy="526.54803"
     r="562.06647"
     gradientTransform="matrix(1.6085967,-0.03220732,0.01169137,0.58392567,-365.61485,280.41904)"
     gradientUnits="userSpaceOnUse" /><radialGradient
     inkscape:collect="always"
     xlink:href="#linearGradient2216"
     id="radialGradient2218"
     cx="508.73309"
     cy="513.38123"
     fx="508.73309"
     fy="513.38123"
     r="548.75446"
     gradientTransform="matrix(1.6073587,-0.13760195,0.05512311,0.64390515,-359.77757,305.26279)"
     gradientUnits="userSpaceOnUse" /><radialGradient
     fx="0"
     fy="0"
     cx="0"
     cy="0"
     r="1"
     gradientUnits="userSpaceOnUse"
     gradientTransform="matrix(5.3959617,-3.3128639,3.3104418,5.3920167,516.11678,767.92586)"
     spreadMethod="pad"
     id="radialGradient403"><stop
       style="stop-opacity:1;stop-color:#5c0000 icc-color(sRGB IEC61966-2.1, 0.36077881, 0, 0);"
       offset="0"
       id="stop399" /><stop
       style="stop-opacity:1;stop-color:#ed1c24 icc-color(sRGB IEC61966-2.1, 0.92939758, 0.10980225, 0.14117432);"
       offset="0.27"
       id="stop400" /><stop
       style="stop-opacity:1;stop-color:#f69679 icc-color(sRGB IEC61966-2.1, 0.96469116, 0.58822632, 0.47450256);"
       offset="0.58"
       id="stop401" /><stop
       style="stop-opacity:1;stop-color:#ee2526 icc-color(sRGB IEC61966-2.1, 0.93331909, 0.14509583, 0.14901733);"
       offset="0.79"
       id="stop402" /><stop
       style="stop-opacity:1;stop-color:#800000 icc-color(sRGB IEC61966-2.1, 0.50195312, 0, 0);"
       offset="1"
       id="stop403" /></radialGradient><marker
     style="overflow:visible"
     id="DartArrow-8"
     refX="0"
     refY="0"
     orient="auto-start-reverse"
     inkscape:stockid="Dart arrow"
     markerWidth="1"
     markerHeight="1"
     viewBox="0 0 1 1"
     inkscape:isstock="true"
     inkscape:collect="always"
     preserveAspectRatio="xMidYMid"><path
       style="fill:context-stroke;fill-rule:evenodd;stroke:none"
       d="M 0,0 5,-5 -12.5,0 5,5 Z"
       transform="scale(-0.5)"
       id="path6-8" /></marker><marker
     style="overflow:visible"
     id="Triangle-5"
     refX="0"
     refY="0"
     orient="auto-start-reverse"
     inkscape:stockid="Triangle arrow"
     markerWidth="1"
     markerHeight="1"
     viewBox="0 0 1 1"
     inkscape:isstock="true"
     inkscape:collect="always"
     preserveAspectRatio="xMidYMid"><path
       transform="scale(0.5)"
       style="fill:context-stroke;fill-rule:evenodd;stroke:context-stroke;stroke-width:1pt"
       d="M 5.77,0 -2.88,5 V -5 Z"
       id="path135-5" /></marker><marker
     style="overflow:visible"
     id="Triangle-5-1"
     refX="0"
     refY="0"
     orient="auto-start-reverse"
     inkscape:stockid="Triangle arrow"
     markerWidth="1"
     markerHeight="1"
     viewBox="0 0 1 1"
     inkscape:isstock="true"
     inkscape:collect="always"
     preserveAspectRatio="xMidYMid"><path
       transform="scale(0.5)"
       style="fill:context-stroke;fill-rule:evenodd;stroke:context-stroke;stroke-width:1pt"
       d="M 5.77,0 -2.88,5 V -5 Z"
       id="path135-5-1" /></marker></defs><sodipodi:namedview
   id="namedview56"
   pagecolor="#ffffff"
   bordercolor="#000000"
   borderopacity="0.25"
   inkscape:showpageshadow="2"
   inkscape:pageopacity="0.0"
   inkscape:pagecheckerboard="0"
   inkscape:deskcolor="#d1d1d1"
   showgrid="false"
   inkscape:zoom="0.44785584"
   inkscape:cx="447.6887"
   inkscape:cy="1135.41"
   inkscape:window-width="2240"
   inkscape:window-height="1294"
   inkscape:window-x="-11"
   inkscape:window-y="-11"
   inkscape:window-maximized="1"
   inkscape:current-layer="g53" />
<g
   id="g53">
	
	
	
<g
   id="g3004"
   transform="translate(86.321102,226.7358)"><path
     id="path47"
     d="m 484.49805,1215.543 c 2.53013,3.1327 -0.2518,2.8726 14.39062,42.6152 51.92295,136.7589 25.91504,27.8617 52.29102,150.1856 3.17599,15.5489 4.69179,-1.3637 -14.11719,100.7382 -3.075,0.225 -6.18985,0.051 -9.21484,0.6758 -4.517,1.458 -4.77617,9.0567 -0.32618,10.8067 2.633,0.8 5.42482,0.3841 8.13282,0.3671 2.13199,54.145 -7.68078,87.7605 15.5332,98.2305 12.42999,5.761 32.19683,4.8086 47.25781,4.8086 27.01498,-0.652 48.98188,0.835 62.88086,-4.25 22.69198,-8.107 14.8398,-41.4651 16.8418,-98.5801 2.533,-0.225 5.24942,-0.035 7.60742,-1.1679 2.858,-1.841 2.93242,-6.2403 0.73242,-8.6153 -2.25,-2.7 -6.108,-2.342 -9.25,-2.709 -0.746,-2.785 -16.82401,-88.8078 -16.91601,-89.6718 0.533,-4.145 13.91861,-65.0061 16.47461,-75.4961 8.56999,-11.135 41.44187,-118.1873 43.29687,-124.8633 -9.64099,2.567 -19.10784,5.85 -28.92383,7.75 0.0934,-0.1768 0.65061,-1.1025 0.75,-1.2891 -11.8967,2.4913 -24.27562,4.4451 -37.2207,5.7715 -0.1978,0.5064 -0.41579,1.0963 -0.61328,1.6016 -16.03299,1.7 -32.17308,2.4672 -48.28906,2.1172 0.0567,-0.4629 0.1653,-1.3387 0.22265,-1.8067 -12.82369,-0.2542 -26.14003,-1.0562 -40.0625,-2.5312 0.0805,0.6455 0.15382,1.2919 0.23438,1.9375 -13.34699,-0.867 -43.71926,-5.6822 -55.03125,-8.7422 -0.24238,-0.6375 -0.4899,-1.3478 -0.73242,-1.9863 -8.44932,-1.7427 -17.10434,-3.7143 -25.94922,-5.8965 z m 56.90429,127.4707 c 4.966,1.209 9.89863,2.5598 14.89063,3.6758 0.375,10.3129 0.37439,60.0286 -0.22461,66.5546 -4.466,-23.4909 -10.19102,-46.7475 -14.66602,-70.2304 z m 131.02735,0.4414 c -4.816,23.541 -10.59884,46.8916 -15.04883,70.5156 -0.691,-1.209 -0.66441,2.1735 -0.69141,-66.4824 5.192,-1.55 10.47424,-2.7832 15.74024,-4.0332 z m -111.28711,4.25 c 4.50899,0.9 9.03261,1.7338 13.59961,2.3008 -4.017,19.2829 -8.52501,38.4559 -12.25,57.7968 -0.366,1.842 -0.84199,3.6826 -1.45899,5.4746 -0.283,-13.9319 -0.22403,-27.8638 -0.20703,-41.7968 0.2,-7.925 -0.34159,-15.8834 0.31641,-23.7754 z m 91.6875,0.5332 c 0.091,21.958 0.0256,43.9149 -0.0664,65.8808 -1.148,-3.693 -13.6104,-61.0688 -13.6914,-63.8808 4.59199,-0.592 9.15781,-1.45 13.75781,-2 z m -73.95508,2.3828 c 18.51598,1.892 37.24188,2.3102 55.75586,0.2012 1.27,5.324 14.24523,64.5646 14.74023,68.9316 -4.58299,0 -9.16524,0.025 -13.74023,-0.033 -0.375,-5.441 0.86523,-11.134 -1.00977,-16.375 -3.79999,-8.767 -18.36484,-8.8998 -22.33984,-0.2168 -2.042,5.266 -0.79297,11.0234 -1.04297,16.5234 -3.225,0.15 -6.44902,0.1412 -9.66601,0.033 -0.284,-5.8079 1.05059,-12.0504 -1.69141,-17.4414 -4.299,-7.808 -17.45665,-7.7314 -21.68164,0.1016 -2.55,5.433 -1.16542,11.5902 -1.60742,17.3652 -4.216,0.066 -8.4344,0.092 -12.65039,-0.041 0.809,-3.887 13.83659,-65.2378 14.93359,-69.0488 z m 27.19922,79.5449 c 1.51137,0.045 3.04258,0.2064 4.51758,0.1524 1.525,3.758 3.32442,7.9175 7.23242,9.7675 5.24999,2.959 12.39903,0.9502 15.58203,-4.0918 1.267,-1.75 1.60117,-4.0748 3.07617,-5.6328 4.941,-0.217 9.91524,-0.2334 14.86524,0.1 5.09099,26.14 10.39063,52.2478 15.26562,78.4297 -10e-4,0 -119.20212,0.3672 -119.20312,0.3672 4.92499,-26.299 10.13341,-52.5473 14.9414,-78.8633 4.675,-0.416 9.36602,-0.108 14.04102,0 1.192,2.859 2.22519,6.0573 4.86719,7.9493 4.34999,3.4829 11.14042,3.7659 15.48242,0.125 2.53299,-1.934 3.50059,-5.0581 4.93359,-7.75 1.3955,-0.525 2.88707,-0.5975 4.39844,-0.5528 z"
     style="fill:#423933;fill-opacity:1;stroke:#4b4b4b;stroke-opacity:1" /><path
     style="opacity:1;fill:#d8be21;fill-opacity:1;stroke:none;stroke-opacity:1"
     d="M 100.72076,248.32877 C 142.84483,171.93469 240.83058,113.30318 298.22479,78.507185 335.66136,55.810774 347.58483,65.89302 384.14375,51.39831 528.39055,-5.7919846 765.14064,23.827699 905.53002,110.90972 1024.9231,184.96797 1022.2176,217.7764 1071.4605,253.53846 l 52.0969,140.66175 13.8925,140.66175 -92.0379,230.96312 -217.07059,305.63542 -178.91403,243.1191 -137.14076,-71.1992 -29.5216,-39.941 -29.52161,-22.5753 L 309.10854,1026.3098 109.40358,772.77134 39.940991,548.75448 67.726027,345.5764 Z"
     id="path1449"
     sodipodi:nodetypes="cssscccccccccccccc" /><path
     style="opacity:1;fill:url(#radialGradient2218);fill-opacity:1;stroke:none;stroke-opacity:1"
     d="M 100.72076,248.32877 C 142.84483,171.93469 240.83058,113.30318 298.22479,78.507185 335.66136,55.810774 347.58483,65.89302 384.14375,51.39831 528.39055,-5.7919846 765.14064,23.827699 905.53002,110.90972 1024.9231,184.96797 1022.2176,217.7764 1071.4605,253.53846 l 52.0969,140.66175 13.8925,140.66175 -92.0379,230.96312 -217.07059,305.63542 -189.89063,240.586 -126.16416,-68.6661 -29.5216,-39.941 -29.52161,-22.5753 L 309.10854,1026.3098 109.40358,772.77134 39.940991,548.75448 67.726027,345.5764 Z"
     id="path2210"
     sodipodi:nodetypes="cssscccccccccccccc" /><path
     id="path437"
     d="m 551.91797,24.029297 c -4.625,0.433998 -9.42483,0.167393 -13.88281,1.650391 -1.45,1.482996 -2.09199,3.523238 -2.95899,5.365234 -43.8959,102.818798 -45.00245,346.904438 -41.43945,457.908198 2.817,64.02788 0.64763,81.98679 18.05859,264.60743 15.63637,159.15426 34.48656,317.97865 54.28125,476.66995 13.92246,1.475 27.23883,2.277 40.0625,2.5312 C 633.10552,1011.8987 737.25455,220.18874 637.17383,26.611328 616.83387,25.34333 584.01991,24.029297 551.91797,24.029297 Z M 433.72266,36.253906 c -30.08894,4.509992 -84.30704,18.48587 -131.58594,39.298828 -10.00898,4.459992 -8.76148,0.883346 -38.35742,46.656246 -156.3627,259.42648 -38.40919,655.6506 40.84765,800.2793 14.11998,27.61794 15.75385,29.15296 128.14063,222.68362 30.46494,51.6058 13.67573,28.0463 47.22265,65.2383 2.52823,2.9666 3.72099,4.1586 4.50782,5.1328 8.84487,2.1822 17.4999,4.1538 25.94922,5.8965 C 461.19207,1091.7436 409.07923,938.91249 374.20898,803.68359 341.98806,678.17585 334.64695,614.1522 331.25195,533.31836 317.00899,179.71206 422.12768,56.596866 433.72266,36.253906 Z m 314.78906,9.882813 c 4.64098,8.540982 16.22227,23.673119 33.24023,61.748051 46.21392,104.93878 59.90607,231.56575 61.16407,345.26953 12.04109,233.50398 -102.75015,558.9465 -188.19727,777.6953 12.94507,-1.3264 25.32402,-3.2802 37.2207,-5.7715 14.09424,-26.4506 87.9698,-149.6751 121.83789,-207.9023 C 889.0052,887.30402 933.49873,789.39395 963.51367,637.94727 986.54663,521.69249 996.08824,405.8007 972.9043,286.83594 950.13434,170.76116 904.87564,109.3722 900.09766,106.1582 836.48978,70.460278 771.83768,51.295709 748.51172,46.136719 Z M 107.17578,237.2793 c -20.318978,28.34997 -43.387245,75.11032 -54.865233,120.98828 -67.578933,195.7278 3.869674,403.40605 147.144533,551.8789 24.13297,24.49098 47.3481,49.85669 70.95508,74.84766 46.09695,49.26096 45.95681,49.31246 49.50781,52.39846 C 308.43198,1017.7176 221.991,907.53474 179.74805,831.50781 133.99609,749.76689 95.446752,636.99205 81.634766,533.66016 62.990784,392.5523 92.862796,293.72424 107.17578,237.2793 Z m 964.25582,16.80859 c 9.683,37.27296 17.3842,75.12935 21.5332,113.44531 35.365,309.64669 -143.46132,534.98921 -267.86519,708.457 -1.091,1.524 -2.09238,3.1096 -2.98438,4.7676 9.83299,-11.408 18.88459,-23.483 28.39258,-35.166 147.67885,-184.77682 359.08999,-410.11166 284.91409,-663.06641 -15.903,-55.01394 -44.5893,-104.48952 -63.9903,-128.4375 z"
     style="fill:#560bdb;fill-opacity:1" /><path
     id="path2177"
     d="m 551.91797,24.029297 c -4.625,0.433998 -9.42483,0.167393 -13.88281,1.650391 -1.45,1.482996 -2.09199,3.523238 -2.95899,5.365234 -43.8959,102.818798 -45.00245,346.904438 -41.43945,457.908198 2.817,64.02788 0.64763,81.98679 18.05859,264.60743 15.63637,159.15426 34.48656,317.97865 54.28125,476.66995 13.92246,1.475 27.23883,2.277 40.0625,2.5312 C 633.10552,1011.8987 737.25455,220.18874 637.17383,26.611328 616.83387,25.34333 584.01991,24.029297 551.91797,24.029297 Z M 433.72266,36.253906 c -30.08894,4.509992 -84.30704,18.48587 -131.58594,39.298828 -10.00898,4.459992 -8.76148,0.883346 -38.35742,46.656246 -156.3627,259.42648 -38.40919,655.6506 40.84765,800.2793 14.11998,27.61794 15.75385,29.15296 128.14063,222.68362 30.46494,51.6058 13.67573,28.0463 47.22265,65.2383 2.52823,2.9666 3.72099,4.1586 4.50782,5.1328 8.84487,2.1822 17.4999,4.1538 25.94922,5.8965 C 461.19207,1091.7436 409.07923,938.91249 374.20898,803.68359 341.98806,678.17585 334.64695,614.1522 331.25195,533.31836 317.00899,179.71206 422.12768,56.596866 433.72266,36.253906 Z m 314.78906,9.882813 c 4.64098,8.540982 16.22227,23.673119 33.24023,61.748051 46.21392,104.93878 59.90607,231.56575 61.16407,345.26953 12.04109,233.50398 -102.75015,558.9465 -188.19727,777.6953 12.94507,-1.3264 25.32402,-3.2802 37.2207,-5.7715 14.09424,-26.4506 87.9698,-149.6751 121.83789,-207.9023 C 889.0052,887.30402 933.49873,789.39395 963.51367,637.94727 986.54663,521.69249 996.08824,405.8007 972.9043,286.83594 950.13434,170.76116 904.87564,109.3722 900.09766,106.1582 836.48978,70.460278 771.83768,51.295709 748.51172,46.136719 Z M 107.17578,237.2793 c -20.318978,28.34997 -43.387245,75.11032 -54.865233,120.98828 -67.578933,195.7278 3.869674,403.40605 147.144533,551.8789 24.13297,24.49098 47.3481,49.85669 70.95508,74.84766 46.09695,49.26096 45.95681,49.31246 49.50781,52.39846 C 308.43198,1017.7176 221.991,907.53474 179.74805,831.50781 133.99609,749.76689 95.446752,636.99205 81.634766,533.66016 62.990784,392.5523 92.862796,293.72424 107.17578,237.2793 Z m 964.25582,16.80859 c -11.1558,-25.24337 17.3842,75.12935 21.5332,113.44531 35.365,309.64669 -143.46132,534.98921 -267.86519,708.457 -1.091,1.524 -2.09238,3.1096 -2.98438,4.7676 9.83299,-11.408 18.88459,-23.483 28.39258,-35.166 147.67885,-184.77682 359.08999,-410.11166 284.91409,-663.06641 -15.903,-55.01394 -44.5893,-104.48952 -63.9903,-128.4375 z"
     style="fill:url(#radialGradient2208);fill-opacity:1"
     sodipodi:nodetypes="ccccccccccccccccccccccccccccccccccccccccccccc" /><path
     id="path2220"
     style="fill:#560bdb;fill-opacity:1;stroke:#560bdb;stroke-width:1.5;stroke-dasharray:none;stroke-opacity:1"
     d="m 484.49805,1215.543 c 2.53012,3.1327 -0.25178,2.8726 14.39062,42.6152 30.18128,79.4939 34.02972,76.0738 37.14258,83.2227 l 25.10352,6.4961 c 0.005,-0.057 0.003,-0.1147 0.008,-0.1719 3.72023,0.7425 7.45659,1.4016 11.21289,1.9414 l 14.50781,1.4492 0.5,0.2129 c 15.73916,1.202 31.57605,1.3011 47.26758,-0.4863 0.002,0.01 0.0249,0.1169 0.0273,0.1269 1.4205,-0.2019 2.93874,-0.4548 4.41797,-0.6875 -5e-5,0 -0.004,-0.022 -0.004,-0.023 0.79008,-0.1019 1.57834,-0.2291 2.36718,-0.3438 6.61087,-1.087 13.93255,-2.5483 21.35352,-4.0625 3.20456,-0.827 6.42,-1.6134 9.63672,-2.3769 -0.0325,0.1586 -0.071,0.316 -0.10352,0.4746 1.59109,-0.3396 3.24869,-0.7164 4.85547,-1.0645 9.04122,-13.2738 41.09918,-117.6531 42.93164,-124.248 -9.64098,2.567 -19.10785,5.85 -28.92383,7.75 0.0934,-0.1768 0.65061,-1.1025 0.75,-1.2891 -11.89668,2.4913 -24.27563,4.4451 -37.2207,5.7715 -0.1978,0.5064 -0.41579,1.0963 -0.61328,1.6016 -16.03298,1.7 -32.1731,2.4672 -48.28906,2.1172 0.0567,-0.4629 0.1653,-1.3387 0.22265,-1.8067 -12.82367,-0.2542 -26.14004,-1.0562 -40.0625,-2.5312 0.0805,0.6455 0.15382,1.2919 0.23438,1.9375 -13.34698,-0.867 -43.71927,-5.6822 -55.03125,-8.7422 -0.24238,-0.6375 -0.4899,-1.3478 -0.73242,-1.9863 -8.44932,-1.7427 -17.10435,-3.7143 -25.94922,-5.8965 z" /></g><path
   style="fill:#483737;fill-opacity:1;stroke:#ff0000;stroke-width:10;stroke-dasharray:none;stroke-opacity:1;marker-end:url(#Dot)"
   d="M 238.04539,1388.7073 439.05301,1053.4708"
   id="path1" /><text
   xml:space="preserve"
   style="font-weight:bold;font-size:53.3333px;font-family:Helvetica;-inkscape-font-specification:'Helvetica Bold';letter-spacing:0px;writing-mode:lr-tb;direction:ltr;text-orientation:upright;fill:#ff0000;fill-opacity:1;stroke:none;stroke-width:10;stroke-dasharray:none;stroke-opacity:1"
   x="70.335136"
   y="1435.7299"
   id="text1"><tspan
     sodipodi:role="line"
     id="tspan1"
     x="70.335136"
     y="1435.7299"
     style="font-size:53.3333px">Air chaud ρ(T)</tspan></text><text
   xml:space="preserve"
   style="font-weight:bold;font-size:53.3333px;font-family:Helvetica;-inkscape-font-specification:'Helvetica Bold';letter-spacing:0px;writing-mode:lr-tb;direction:ltr;text-orientation:upright;fill:#ff0000;fill-opacity:1;stroke:none;stroke-width:10;stroke-dasharray:none;stroke-opacity:1"
   x="924.62384"
   y="1634.1865"
   id="text1-9"><tspan
     sodipodi:role="line"
     id="tspan1-4"
     x="924.62384"
     y="1634.1865"
     style="font-style:normal;font-variant:normal;font-weight:bold;font-stretch:normal;font-size:53.3333px;font-family:Helvetica;-inkscape-font-specification:'Helvetica Bold';fill:#0000ff;fill-opacity:1">Air froid ρ(T₀)</tspan></text><path
   style="fill:#0000ff;fill-opacity:1;stroke:#00ae28;stroke-width:10;stroke-dasharray:none;stroke-opacity:1;marker-end:url(#DartArrow-8)"
   d="M 676.99996,775.57873 V 945.82089"
   id="path2-4" /><path
   style="fill:#0000ff;fill-opacity:1;stroke:#e420e2;stroke-width:10;stroke-dasharray:none;stroke-opacity:1;marker-end:url(#marker4)"
   d="M 676.99996,774.70053 V 82.520118"
   id="path3" /><path
   style="fill:#00ae28;fill-opacity:1;stroke:#00ae28;stroke-width:10;stroke-dasharray:none;stroke-opacity:1;marker-end:url(#DartArrow)"
   d="M 688.99996,1799.6863 V 2190.437"
   id="path5" /><g
   id="g2"
   transform="matrix(11.174252,0,0,11.174252,-5092.2262,-7811.7496)"><path
     id="path398"
     d="m 516.18018,767.83262 -5.48024,3.3646 c 0.01,0.0159 0.0104,0.0265 0.0188,0.0401 1.82985,2.98044 5.72773,3.90891 8.70931,2.07837 0.0591,-0.0363 0.1083,-0.0759 0.16285,-0.10937 l -3.28089,-5.34388 5.22797,-3.20973 c -0.008,-0.0125 -0.0135,-0.0277 -0.0232,-0.0436 -1.81101,-2.94976 -5.64748,-3.88778 -8.62111,-2.13095 z"
     style="fill:#ffffff;fill-opacity:1;fill-rule:nonzero;stroke:none;stroke-width:1.33333" /><path
     id="path399"
     d="m 521.51472,764.60941 c 1.82984,2.98043 0.89543,6.87884 -2.08614,8.70939 -2.98044,1.82984 -6.87972,0.89909 -8.70957,-2.08134 -1.82705,-2.97589 -0.89543,-6.87885 2.085,-8.70869 2.98158,-1.83055 6.88365,-0.89525 8.71071,2.08064 z"
     style="fill:none;stroke:#942923;stroke-width:0.333333;stroke-linecap:butt;stroke-linejoin:miter;stroke-miterlimit:4;stroke-dasharray:none;stroke-opacity:1" /><path
     id="path403"
     d="m 510.72223,771.23737 c 0.0356,0.0579 0.0761,0.11442 0.11146,0.16625 v 0 l 5.34843,-3.28367 3.20694,5.22343 0.042,-0.0258 c 2.94976,-1.81101 3.89258,-5.6473 2.13583,-8.61316 v 0 l -5.35297,3.28647 -3.3639,-5.4791 c -0.0159,0.01 -0.0265,0.0104 -0.0412,0.0194 v 0 c -2.98384,1.83194 -3.91345,5.73052 -2.08639,8.70642"
     style="fill:url(#radialGradient403);stroke:none;stroke-width:1.33333" /></g><text
   xml:space="preserve"
   style="font-style:normal;font-variant:normal;font-weight:bold;font-stretch:normal;font-size:53.3333px;font-family:Helvetica;-inkscape-font-specification:'Helvetica Bold';letter-spacing:0px;writing-mode:lr-tb;direction:ltr;text-orientation:upright;fill:#00ae28;fill-opacity:1;stroke:#00ae28;stroke-width:10;stroke-dasharray:none;stroke-opacity:1"
   x="707.18042"
   y="2030.4286"
   id="text5"><tspan
     sodipodi:role="line"
     id="tspan5"
     x="707.18042"
     y="2030.4286"
     style="stroke:none">P (montgolfière)</tspan></text><text
   xml:space="preserve"
   style="font-style:normal;font-variant:normal;font-weight:bold;font-stretch:normal;font-size:53.3333px;font-family:Helvetica;-inkscape-font-specification:'Helvetica Bold';letter-spacing:0px;writing-mode:lr-tb;direction:ltr;text-orientation:upright;fill:#00ae28;fill-opacity:1;stroke:none;stroke-width:10;stroke-dasharray:none;stroke-opacity:1"
   x="701.18042"
   y="904.6933"
   id="text6"><tspan
     sodipodi:role="line"
     id="tspan6"
     x="701.18042"
     y="904.6933">P(air)</tspan></text><text
   xml:space="preserve"
   style="font-style:normal;font-variant:normal;font-weight:bold;font-stretch:normal;font-size:53.3333px;font-family:Helvetica;-inkscape-font-specification:'Helvetica Bold';letter-spacing:0px;writing-mode:lr-tb;direction:ltr;text-orientation:upright;fill:#e420e2;fill-opacity:1;stroke:none;stroke-width:10;stroke-dasharray:none;stroke-opacity:1"
   x="704.07104"
   y="479.9769"
   id="text7"><tspan
     sodipodi:role="line"
     id="tspan7"
     x="704.07104"
     y="479.9769">A</tspan></text><path
   style="fill:#e420e2;fill-opacity:1;stroke:#e420e2;stroke-width:4;stroke-dasharray:none;stroke-opacity:1;marker-end:url(#Triangle)"
   d="m 704.17665,427.87415 h 42.62953"
   id="path7" /><path
   style="fill:none;fill-opacity:1;stroke:#00ae28;stroke-width:4;stroke-dasharray:none;stroke-opacity:1;marker-end:url(#Triangle-5)"
   d="m 705.25354,846.97228 h 126.4813"
   id="path7-7" /><path
   style="fill:none;fill-opacity:1;stroke:#00ae28;stroke-width:4;stroke-dasharray:none;stroke-opacity:1;marker-end:url(#Triangle-5-1)"
   d="M 713.07507,1976.3587 H 1115.5767"
   id="path7-7-2" /></g>
<metadata
   id="metadata3407"><rdf:RDF><cc:Work
       rdf:about=""><dc:creator><cc:Agent><dc:title>j4p4n</dc:title></cc:Agent></dc:creator><cc:license
         rdf:resource="http://creativecommons.org/publicdomain/zero/1.0/" /></cc:Work><cc:License
       rdf:about="http://creativecommons.org/publicdomain/zero/1.0/"><cc:permits
         rdf:resource="http://creativecommons.org/ns#Reproduction" /><cc:permits
         rdf:resource="http://creativecommons.org/ns#Distribution" /><cc:permits
         rdf:resource="http://creativecommons.org/ns#DerivativeWorks" /></cc:License></rdf:RDF></metadata></svg>
