<?xml version="1.0" encoding="UTF-8" standalone="no"?>
<svg
   version="1.1"
   width="920"
   height="712"
   id="svg66"
   sodipodi:docname="polaireAvion.svg"
   inkscape:export-filename="polaireAvion.pdf"
   inkscape:export-xdpi="96"
   inkscape:export-ydpi="96"
   inkscape:version="1.4.3 (0d15f75, 2025-12-25)"
   xmlns:inkscape="http://www.inkscape.org/namespaces/inkscape"
   xmlns:sodipodi="http://sodipodi.sourceforge.net/DTD/sodipodi-0.dtd"
   xmlns:xlink="http://www.w3.org/1999/xlink"
   xmlns="http://www.w3.org/2000/svg"
   xmlns:svg="http://www.w3.org/2000/svg">
  <sodipodi:namedview
     id="namedview66"
     pagecolor="#ffffff"
     bordercolor="#000000"
     borderopacity="0.25"
     inkscape:showpageshadow="2"
     inkscape:pageopacity="0.0"
     inkscape:pagecheckerboard="0"
     inkscape:deskcolor="#d1d1d1"
     inkscape:zoom="1.4227528"
     inkscape:cx="540.50148"
     inkscape:cy="360.21718"
     inkscape:window-width="2240"
     inkscape:window-height="1294"
     inkscape:window-x="-11"
     inkscape:window-y="-11"
     inkscape:window-maximized="1"
     inkscape:current-layer="svg66"
     showguides="false" />
  <defs
     id="defs1">
    <clipPath
       clipPathUnits="userSpaceOnUse"
       id="clipPath66">
      <path
         fill="none"
         stroke="none"
         d="M 0,0 H 17.555556 V 26.37037 H 0 Z"
         id="path67"
         style="stroke-width:0.037037" />
    </clipPath>
  </defs>
  <path
     fill="none"
     stroke="#c0c0c0"
     paint-order="fill stroke markers"
     d="m 52.5,0.5 v 712 m 29,-712 v 712 m 29,-712 v 712 m 29,-712 v 712 m 29,-712 v 712 m 29,-712 v 712 m 29,-712 v 712 m 29,-712 v 712 m 29,-712 v 712 m 30,-712 v 712 m 29,-712 v 712 m 29,-712 v 712 m 29,-712 v 712 m 29,-712 v 712 m 29,-712 v 712"
     stroke-opacity="1"
     stroke-linecap="round"
     stroke-linejoin="round"
     stroke-miterlimit="10"
     id="path2" />
  <path
     fill="none"
     stroke="#c0c0c0"
     paint-order="fill stroke markers"
     d="m 459.492,-0.5 v 712 m 29,-712 v 712 m 29,-712 v 712 m 29,-712 v 712 m 29,-712 v 712 m 29,-712 v 712 m 29,-712 v 712 m 29,-712 v 712 m 29,-712 v 712 m 30,-712 v 712 m 29,-712 v 712 m 29,-712 v 712 m 29,-712 v 712 m 29,-712 v 712 m 29,-712 v 712"
     stroke-opacity="1"
     stroke-linecap="round"
     stroke-linejoin="round"
     stroke-miterlimit="10"
     id="path2-2" />
  <path
     fill="none"
     stroke="#c0c0c0"
     paint-order="fill stroke markers"
     d="m 866.5,0.5 v 712 m 29,-712 v 712 m 29,-712 v 712 m 29,-712 v 712 m 29,-712 v 712 m 29,-712 v 712 m 29,-712 v 712 m 29,-712 v 712 m 29,-712 v 712 m 30,-712 v 712 m 29,-712 v 712 m 29,-712 v 712 m 29,-712 v 712 m 29,-712 v 712 m 29,-712 v 712"
     stroke-opacity="1"
     stroke-linecap="round"
     stroke-linejoin="round"
     stroke-miterlimit="10"
     id="path2-2-4" />
  <path
     fill="none"
     stroke="#c0c0c0"
     paint-order="fill stroke markers"
     d=""
     stroke-opacity="0.235294"
     stroke-linecap="round"
     stroke-linejoin="round"
     stroke-miterlimit="10"
     id="path3" />
  <path
     fill="none"
     stroke="#c0c0c0"
     paint-order="fill stroke markers"
     d="m 23.5,24.5 h 451 m -451,0 h 451 m -451,27 h 451 m -451,27 h 451 m -451,27 h 451 m -451,28 h 451 m -451,27 h 451 m -451,27 h 451 m -451,27 h 451 m -451,27 h 451 m -451,27 h 451 m -451,27 h 451 m -451,27 h 451 m -451,27 h 451 m -451,27 h 451 m -451,27 h 451 m -451,27 h 451 m -451,27 h 451 m -451,27 h 451 m -451,27 h 451 m -451,27 h 451 m -451,54 h 451 m -451,28 h 451 m -451,27 h 451 m -451,27 h 451 m -451,27 h 451"
     stroke-opacity="1"
     stroke-linecap="round"
     stroke-linejoin="round"
     stroke-miterlimit="10"
     id="path4" />
  <path
     fill="none"
     stroke="#c0c0c0"
     paint-order="fill stroke markers"
     d="m 474.18312,24.5 h 451 m -451,0 h 451 m -451,27 h 451 m -451,27 h 451 m -451,27 h 451 m -451,28 h 451 m -451,27 h 451 m -451,27 h 451 m -451,27 h 451 m -451,27 h 451 m -451,27 h 451 m -451,27 h 451 m -451,27 h 451 m -451,27 h 451 m -451,27 h 451 m -451,27 h 451 m -451,27 h 451 m -451,27 h 451 m -451,27 h 451 m -451,27 h 451 m -451,27 h 451 m -451,54 h 451 m -451,28 h 451 m -451,27 h 451 m -451,27 h 451 m -451,27 h 451"
     stroke-opacity="1"
     stroke-linecap="round"
     stroke-linejoin="round"
     stroke-miterlimit="10"
     id="path4-4" />
  <path
     fill="none"
     stroke="#c0c0c0"
     paint-order="fill stroke markers"
     d=""
     stroke-opacity="0.235294"
     stroke-linecap="round"
     stroke-linejoin="round"
     stroke-miterlimit="10"
     id="path5" />
  <path
     fill="none"
     stroke="#000000"
     paint-order="fill stroke markers"
     d="m 23.5,2.5 v 710"
     stroke-opacity="1"
     stroke-miterlimit="10"
     id="path6" />
  <path
     fill="#000000"
     stroke="none"
     paint-order="stroke fill markers"
     fill-rule="evenodd"
     d="m 23.236996,1 -3,12 h 6"
     fill-opacity="1"
     id="path7" />
  <text
     fill="#000000"
     stroke="none"
     font-family="geogebra-sans-serif, sans-serif"
     font-size="12px"
     font-style="normal"
     font-weight="normal"
     text-decoration="normal"
     x="893"
     y="561"
     text-anchor="start"
     dominant-baseline="alphabetic"
     fill-opacity="1"
     id="text7">Cx</text>
  <path
     fill="none"
     stroke="#000000"
     paint-order="fill stroke markers"
     d="m 23.5,565.5 h 449"
     stroke-opacity="1"
     stroke-miterlimit="10"
     id="path8" />
  <path
     fill="#000000"
     stroke="none"
     paint-order="stroke fill markers"
     fill-rule="evenodd"
     d="m 917,565.92485 -12,-3 v 6"
     fill-opacity="1"
     id="path9" />
  <path
     fill="none"
     stroke="#000000"
     paint-order="fill stroke markers"
     d="m 23.5,565.5 v 3"
     stroke-opacity="1"
     stroke-miterlimit="10"
     id="path10" />
  <text
     fill="#000000"
     stroke="none"
     font-family="geogebra-sans-serif, sans-serif"
     font-size="10px"
     font-style="normal"
     font-weight="normal"
     text-decoration="normal"
     x="157.16455"
     y="579"
     text-anchor="start"
     dominant-baseline="alphabetic"
     fill-opacity="1"
     id="text10">0.05</text>
  <path
     fill="none"
     stroke="#000000"
     paint-order="fill stroke markers"
     d="m 168.5,565.5 v 3"
     stroke-opacity="1"
     stroke-miterlimit="10"
     id="path11" />
  <text
     fill="#000000"
     stroke="none"
     font-family="geogebra-sans-serif, sans-serif"
     font-size="10px"
     font-style="normal"
     font-weight="normal"
     text-decoration="normal"
     x="306.52148"
     y="579"
     text-anchor="start"
     dominant-baseline="alphabetic"
     fill-opacity="1"
     id="text11">0.1</text>
  <text
     fill="#000000"
     stroke="none"
     font-family="geogebra-sans-serif, sans-serif"
     font-size="10px"
     font-style="normal"
     font-weight="normal"
     text-decoration="normal"
     x="596.31396"
     y="579.00244"
     text-anchor="start"
     dominant-baseline="alphabetic"
     fill-opacity="1"
     id="text11-1">0.2</text>
  <path
     fill="none"
     stroke="#000000"
     paint-order="fill stroke markers"
     d="m 314.5,565.5 v 3"
     stroke-opacity="1"
     stroke-miterlimit="10"
     id="path12" />
  <text
     fill="#000000"
     stroke="none"
     font-family="geogebra-sans-serif, sans-serif"
     font-size="10px"
     font-style="normal"
     font-weight="normal"
     text-decoration="normal"
     x="739.16455"
     y="579.00244"
     text-anchor="start"
     dominant-baseline="alphabetic"
     fill-opacity="1"
     id="text11-3">0.25</text>
  <g
     id="svg66-21"
     transform="translate(580.36523,0.00244141)">
    <text
       fill="#000000"
       stroke="none"
       font-family="geogebra-sans-serif, sans-serif"
       font-size="10px"
       font-style="normal"
       font-weight="normal"
       text-decoration="normal"
       x="307"
       y="579"
       text-anchor="start"
       dominant-baseline="alphabetic"
       fill-opacity="1"
       id="text11-6"><tspan
         sodipodi:role="line"
         id="tspan68"
         x="307"
         y="579">0.3</tspan></text>
  </g>
  <text
     fill="#000000"
     stroke="none"
     font-family="geogebra-sans-serif, sans-serif"
     font-size="10px"
     font-style="normal"
     font-weight="normal"
     text-decoration="normal"
     x="448.16455"
     y="579"
     text-anchor="start"
     dominant-baseline="alphabetic"
     fill-opacity="1"
     id="text12">0.15</text>
  <path
     fill="none"
     stroke="#000000"
     paint-order="fill stroke markers"
     d="m 459.5,565.5 v 3"
     stroke-opacity="1"
     stroke-miterlimit="10"
     id="path13" />
  <path
     fill="none"
     stroke="#000000"
     paint-order="fill stroke markers"
     d="m 459.5,565.5 h 449"
     stroke-opacity="1"
     stroke-miterlimit="10"
     id="path8-5" />
  <path
     fill="none"
     stroke="#000000"
     paint-order="fill stroke markers"
     d="m 604.5,565.5 v 3"
     stroke-opacity="1"
     stroke-miterlimit="10"
     id="path11-1" />
  <path
     fill="none"
     stroke="#000000"
     paint-order="fill stroke markers"
     d="m 750.5,565.5 v 3"
     stroke-opacity="1"
     stroke-miterlimit="10"
     id="path12-7" />
  <path
     fill="none"
     stroke="#000000"
     paint-order="fill stroke markers"
     d="m 895.5,565.5 v 3"
     stroke-opacity="1"
     stroke-miterlimit="10"
     id="path13-1" />
  <text
     fill="#000000"
     stroke="none"
     font-family="geogebra-sans-serif, sans-serif"
     font-size="12px"
     font-style="normal"
     font-weight="normal"
     text-decoration="normal"
     x="28"
     y="14"
     text-anchor="start"
     dominant-baseline="alphabetic"
     fill-opacity="1"
     id="text13">Cz</text>
  <path
     fill="none"
     stroke="#000000"
     paint-order="fill stroke markers"
     d="m 20.5,674.5 h 3"
     stroke-opacity="1"
     stroke-miterlimit="10"
     id="path14" />
  <path
     fill="none"
     stroke="#000000"
     paint-order="fill stroke markers"
     d="m 20.5,620.5 h 3"
     stroke-opacity="1"
     stroke-miterlimit="10"
     id="path15" />
  <path
     fill="none"
     stroke="#000000"
     paint-order="fill stroke markers"
     d="m 20.5,511.5 h 3"
     stroke-opacity="1"
     stroke-miterlimit="10"
     id="path16" />
  <path
     fill="none"
     stroke="#000000"
     paint-order="fill stroke markers"
     d="m 20.5,457.5 h 3"
     stroke-opacity="1"
     stroke-miterlimit="10"
     id="path17" />
  <path
     fill="none"
     stroke="#000000"
     paint-order="fill stroke markers"
     d="m 20.5,403.5 h 3"
     stroke-opacity="1"
     stroke-miterlimit="10"
     id="path18" />
  <path
     fill="none"
     stroke="#000000"
     paint-order="fill stroke markers"
     d="m 20.5,349.5 h 3"
     stroke-opacity="1"
     stroke-miterlimit="10"
     id="path19" />
  <path
     fill="none"
     stroke="#000000"
     paint-order="fill stroke markers"
     d="m 20.5,295.5 h 3"
     stroke-opacity="1"
     stroke-miterlimit="10"
     id="path20" />
  <path
     fill="none"
     stroke="#000000"
     paint-order="fill stroke markers"
     d="m 20.5,241.5 h 3"
     stroke-opacity="1"
     stroke-miterlimit="10"
     id="path21" />
  <path
     fill="none"
     stroke="#000000"
     paint-order="fill stroke markers"
     d="m 20.5,187.5 h 3"
     stroke-opacity="1"
     stroke-miterlimit="10"
     id="path22" />
  <path
     fill="none"
     stroke="#000000"
     paint-order="fill stroke markers"
     d="m 20.5,133.5 h 3"
     stroke-opacity="1"
     stroke-miterlimit="10"
     id="path23" />
  <path
     fill="none"
     stroke="#000000"
     paint-order="fill stroke markers"
     d="m 20.5,78.5 h 3"
     stroke-opacity="1"
     stroke-miterlimit="10"
     id="path24" />
  <path
     fill="none"
     stroke="#000000"
     paint-order="fill stroke markers"
     d="m 20.5,24.5 h 3"
     stroke-opacity="1"
     stroke-miterlimit="10"
     id="path25" />
  <text
     fill="#000000"
     stroke="none"
     font-family="geogebra-sans-serif, sans-serif"
     font-size="10px"
     font-style="normal"
     font-weight="normal"
     text-decoration="normal"
     x="3"
     y="678"
     text-anchor="start"
     dominant-baseline="alphabetic"
     fill-opacity="1"
     id="text25">–0.4</text>
  <text
     fill="#000000"
     stroke="none"
     font-family="geogebra-sans-serif, sans-serif"
     font-size="10px"
     font-style="normal"
     font-weight="normal"
     text-decoration="normal"
     x="3"
     y="624"
     text-anchor="start"
     dominant-baseline="alphabetic"
     fill-opacity="1"
     id="text26">–0.2</text>
  <text
     fill="#000000"
     stroke="none"
     font-family="geogebra-sans-serif, sans-serif"
     font-size="10px"
     font-style="normal"
     font-weight="normal"
     text-decoration="normal"
     x="8"
     y="515"
     text-anchor="start"
     dominant-baseline="alphabetic"
     fill-opacity="1"
     id="text27">0.2</text>
  <text
     fill="#000000"
     stroke="none"
     font-family="geogebra-sans-serif, sans-serif"
     font-size="10px"
     font-style="normal"
     font-weight="normal"
     text-decoration="normal"
     x="8"
     y="461"
     text-anchor="start"
     dominant-baseline="alphabetic"
     fill-opacity="1"
     id="text28">0.4</text>
  <text
     fill="#000000"
     stroke="none"
     font-family="geogebra-sans-serif, sans-serif"
     font-size="10px"
     font-style="normal"
     font-weight="normal"
     text-decoration="normal"
     x="8"
     y="407"
     text-anchor="start"
     dominant-baseline="alphabetic"
     fill-opacity="1"
     id="text29">0.6</text>
  <text
     fill="#000000"
     stroke="none"
     font-family="geogebra-sans-serif, sans-serif"
     font-size="10px"
     font-style="normal"
     font-weight="normal"
     text-decoration="normal"
     x="8"
     y="353"
     text-anchor="start"
     dominant-baseline="alphabetic"
     fill-opacity="1"
     id="text30">0.8</text>
  <text
     fill="#000000"
     stroke="none"
     font-family="geogebra-sans-serif, sans-serif"
     font-size="10px"
     font-style="normal"
     font-weight="normal"
     text-decoration="normal"
     x="16"
     y="299"
     text-anchor="start"
     dominant-baseline="alphabetic"
     fill-opacity="1"
     id="text31">1</text>
  <text
     fill="#000000"
     stroke="none"
     font-family="geogebra-sans-serif, sans-serif"
     font-size="10px"
     font-style="normal"
     font-weight="normal"
     text-decoration="normal"
     x="8"
     y="245"
     text-anchor="start"
     dominant-baseline="alphabetic"
     fill-opacity="1"
     id="text32">1.2</text>
  <text
     fill="#000000"
     stroke="none"
     font-family="geogebra-sans-serif, sans-serif"
     font-size="10px"
     font-style="normal"
     font-weight="normal"
     text-decoration="normal"
     x="8"
     y="191"
     text-anchor="start"
     dominant-baseline="alphabetic"
     fill-opacity="1"
     id="text33">1.4</text>
  <text
     fill="#000000"
     stroke="none"
     font-family="geogebra-sans-serif, sans-serif"
     font-size="10px"
     font-style="normal"
     font-weight="normal"
     text-decoration="normal"
     x="8"
     y="137"
     text-anchor="start"
     dominant-baseline="alphabetic"
     fill-opacity="1"
     id="text34">1.6</text>
  <text
     fill="#000000"
     stroke="none"
     font-family="geogebra-sans-serif, sans-serif"
     font-size="10px"
     font-style="normal"
     font-weight="normal"
     text-decoration="normal"
     x="8"
     y="82"
     text-anchor="start"
     dominant-baseline="alphabetic"
     fill-opacity="1"
     id="text35">1.8</text>
  <text
     fill="#000000"
     stroke="none"
     font-family="geogebra-sans-serif, sans-serif"
     font-size="10px"
     font-style="normal"
     font-weight="normal"
     text-decoration="normal"
     x="16"
     y="28"
     text-anchor="start"
     dominant-baseline="alphabetic"
     fill-opacity="1"
     id="text36">2</text>
  <text
     fill="#000000"
     stroke="none"
     font-family="geogebra-sans-serif, sans-serif"
     font-size="10px"
     font-style="normal"
     font-weight="normal"
     text-decoration="normal"
     x="10"
     y="569"
     text-anchor="start"
     dominant-baseline="alphabetic"
     fill-opacity="1"
     id="text37">0</text>
  <path
     fill="none"
     stroke="#000000"
     paint-order="fill stroke markers"
     d="m 95.198668,620.33286 -2.174046,-5.34794 -2.061638,-5.46914 -1.950165,-5.58666 -1.839624,-5.70052 -1.730017,-5.81072 -1.621342,-5.91723 -1.513602,-6.02008 -1.406794,-6.11927 -1.300919,-6.21478 -1.195977,-6.30662 -1.091969,-6.39481 -0.988895,-6.47931 -0.886752,-6.56015 -0.785543,-6.63732 -0.685268,-6.71082 -0.585925,-6.78065 -0.487516,-6.84682 -0.390041,-6.90931 -0.293497,-6.96814 -0.197887,-7.0233 -0.103211,-7.07479 -0.0095,-7.12261 0.08334,-7.16676 0.17522,-7.20724 0.266163,-7.24405 0.356174,-7.2772 0.445251,-7.30668 0.533396,-7.33248 0.620607,-7.35463 0.706884,-7.37309 0.792229,-7.3879 0.876641,-7.39902 0.960119,-7.40649 1.042665,-7.41029 1.124276,-7.41041 1.204955,-7.40687 1.284701,-7.39966 1.363513,-7.38878 1.441393,-7.37423 1.518339,-7.35602 1.594351,-7.33412 1.669432,-7.30857 1.743577,-7.27935 1.816792,-7.24646 1.889071,-7.20989 1.960419,-7.16967 2.030832,-7.12576 2.10032,-7.0782 2.16886,-7.02696 2.23647,-6.97206 2.30316,-6.91348 2.3689,-6.85124 2.43372,-6.78533 2.4976,-6.71574 2.56055,-6.6425 2.62256,-6.56558 2.68365,-6.485 2.7438,-6.40074 2.80301,-6.31282 2.86129,-6.22122 2.91864,-6.12596 2.97506,-6.02703 3.03054,-5.92443 3.08509,-5.81817 3.13871,-5.70823 3.19139,-5.59462 3.24314,-5.47735 3.29396,-5.3564 3.34385,-5.2318 3.39279,-5.10351 3.44081,-4.97156 3.4879,-4.83595 3.53404,-4.69666 3.57927,-4.5537 3.62355,-4.40708 3.6669,-4.25679 3.70932,-4.10283 3.7508,-3.94519 3.79136,-3.7839 3.83098,-3.61893 3.86966,-3.45029 3.90741,-3.27798 3.94423,-3.10202 3.98012,-2.922363 4.01508,-2.739057 4.04909,-2.552076 4.08218,-2.361426 4.11433,-2.167109 4.14556,-1.969122 4.17584,-1.767466 4.20519,-1.562141 4.23362,-1.353149 4.2611,-1.140486 4.28765,-0.924156 4.31328,-0.704157 4.33797,-0.480488 4.36172,-0.253151 4.38454,-0.02215 4.40644,0.212529 4.42738,0.450872 4.44741,0.692884 4.4665,0.938565 4.48465,1.187914 4.50188,1.440933 4.51817,1.69762 4.53352,1.957976 4.54794,2.222 4.56144,2.489693 4.57399,2.761056 4.58562,3.036087 4.5963,3.314788 4.60606,3.59716 4.61489,3.88319 4.62278,4.1729 4.62973,4.46627 4.63576,4.76331 4.64086,5.06403 4.64501,5.36841 4.64823,5.67646 4.65053,5.98818 4.65188,6.30356 4.65231,6.62262 4.6518,6.94535 4.65036,7.27174 4.64799,7.6018 4.64468,7.93553 4.64044,8.27293 4.63527,8.614"
     stroke-opacity="1"
     stroke-linecap="round"
     stroke-linejoin="round"
     stroke-miterlimit="10"
     id="path37" />
  <path
     fill="none"
     stroke="#000000"
     paint-order="fill stroke markers"
     d="m 533.19867,620.33289 -2.17405,-5.34794 -2.06164,-5.46914 -1.95016,-5.58666 -1.83963,-5.70052 -1.73001,-5.81072 -1.62134,-5.91723 -1.51361,-6.02008 -1.40679,-6.11927 -1.30092,-6.21478 -1.19598,-6.30662 -1.09197,-6.39481 -0.98889,-6.47931 -0.88675,-6.56015 -0.78555,-6.63732 -0.68526,-6.71082 -0.58593,-6.78065 -0.48751,-6.84682 -0.39005,-6.90931 -0.29349,-6.96814 -0.19789,-7.0233 -0.10321,-7.07479 -0.01,-7.12261 0.0833,-7.16676 0.17522,-7.20724 0.26616,-7.24405 0.35618,-7.2772 0.44525,-7.30668 0.53339,-7.33248 0.62061,-7.35463 0.70688,-7.37309 0.79223,-7.3879 0.87665,-7.39902 0.96011,-7.40649 1.04267,-7.41029 1.12428,-7.41041 1.20495,-7.40687 1.2847,-7.39966 1.36351,-7.38878 1.4414,-7.37423 1.51834,-7.35602 1.59435,-7.33412 1.66943,-7.30857 1.74358,-7.27935 1.81679,-7.24646 1.88907,-7.20989 1.96042,-7.16967 2.03083,-7.12576 2.10032,-7.0782 2.16886,-7.02696 2.23647,-6.97206 2.30316,-6.91348 2.3689,-6.85124 2.43372,-6.78533 2.4976,-6.71574 2.56055,-6.6425 2.62256,-6.56558 2.68365,-6.485 2.7438,-6.40074 2.80301,-6.31282 2.86129,-6.22122 2.91864,-6.12596 2.97506,-6.02703 3.03054,-5.92443 3.08509,-5.81817 3.13871,-5.70823 3.19139,-5.59462 3.24314,-5.47735 3.29396,-5.3564 3.34385,-5.2318 3.39279,-5.10351 3.44081,-4.97156 3.4879,-4.83595 3.53404,-4.69666 3.57927,-4.5537 3.62355,-4.40708 3.6669,-4.25679 3.70932,-4.10283 3.7508,-3.94519 3.79136,-3.7839 3.83098,-3.61893 3.86966,-3.45029 3.90741,-3.27798 3.94423,-3.10202 3.98012,-2.922364 4.01508,-2.73906 4.04909,-2.55208 4.08218,-2.36142 4.11433,-2.16711 4.14556,-1.96912 4.17584,-1.76747 4.20519,-1.56214 4.23362,-1.35315 4.2611,-1.14049 4.28765,-0.92415 4.31328,-0.70416 4.33797,-0.48049 4.36172,-0.25315 4.38454,-0.0222 4.40644,0.21253 4.42738,0.45087 4.44741,0.69289 4.4665,0.93856 4.48465,1.18792 4.50188,1.44093 4.51817,1.69762 4.53352,1.95798 4.54794,2.222 4.56144,2.48969 4.57399,2.76105 4.58562,3.03609 4.5963,3.314794 4.60606,3.59716 4.61489,3.88319 4.62278,4.1729 4.62973,4.46627 4.63576,4.76331 4.64086,5.06403 4.64501,5.36841 4.64823,5.67646 4.65053,5.98818 4.65188,6.30356 4.65231,6.62262 4.6518,6.94535 4.65036,7.27174 4.64799,7.6018 4.64468,7.93553 4.64044,8.27293 4.63527,8.614"
     stroke-opacity="1"
     stroke-linecap="round"
     stroke-linejoin="round"
     stroke-miterlimit="10"
     id="path37-2" />
  <g
     transform="scale(27)"
     id="g64"
     clip-path="url(#clipPath66)">
    <g
       transform="translate(5.7407407,-0.47222222)"
       id="g48">
      <path
         fill="#3333ff"
         stroke="none"
         paint-order="stroke fill markers"
         d="M 0.246,-0.289 0.185,0 H 0.096 l 0.148,-0.694 h 0.249 q 0.089,0 0.143,0.0475 0.054,0.0475 0.054,0.1185 0,0.093 -0.0855,0.166 Q 0.519,-0.289 0.414,-0.289 H 0.246 m 0.072,-0.349 -0.062,0.291 h 0.141 q 0.097,0 0.1545,-0.054 0.0575,-0.054 0.0575,-0.12 0,-0.055 -0.0405,-0.086 Q 0.528,-0.638 0.459,-0.638 Z"
         id="path48" />
    </g>
    <g
       transform="translate(6.4347407,-0.47222222)"
       id="g49">
      <path
         fill="#3333ff"
         stroke="none"
         paint-order="stroke fill markers"
         d="m 0.522,-0.275 q 0,0.113 -0.0855,0.1995 Q 0.351,0.011 0.248,0.011 0.169,0.011 0.12,-0.0405 0.071,-0.092 0.071,-0.169 q 0,-0.109 0.085,-0.2005 0.085,-0.0915 0.191,-0.0915 0.079,0 0.127,0.054 0.048,0.054 0.048,0.132 m -0.261,0.222 q 0.08,0 0.1325,-0.0725 Q 0.446,-0.198 0.446,-0.28 0.446,-0.335 0.4155,-0.3675 0.385,-0.4 0.334,-0.4 0.258,-0.4 0.2045,-0.3335 0.151,-0.267 0.151,-0.177 q 0,0.066 0.0335,0.095 0.0335,0.029 0.0765,0.029 z"
         id="path49" />
    </g>
    <g
       transform="translate(7.0007407,-0.47222222)"
       id="g50">
      <path
         fill="#3333ff"
         stroke="none"
         paint-order="stroke fill markers"
         d="M 0.304,-0.694 0.156,0 H 0.081 l 0.148,-0.694 z"
         id="path50" />
    </g>
    <g
       transform="translate(7.3347407,-0.47222222)"
       id="g51">
      <path
         fill="#3333ff"
         stroke="none"
         paint-order="stroke fill markers"
         d="M 0.462,-0.294 0.399,0 H 0.324 Q 0.325,-0.004 0.3275,-0.0175 0.33,-0.031 0.331,-0.035 0.259,0.011 0.156,0.011 0.126,0.011 0.1055,-0.001 0.085,-0.013 0.0775,-0.032 0.07,-0.051 0.0675,-0.0625 0.065,-0.074 0.065,-0.085 0.065,-0.124 0.088,-0.1535 0.111,-0.183 0.1425,-0.199 0.174,-0.215 0.2175,-0.2255 0.261,-0.236 0.29,-0.2395 0.319,-0.243 0.348,-0.244 q 0.018,0 0.024,-0.002 Q 0.374,-0.248 0.3805,-0.2795 0.387,-0.311 0.387,-0.323 0.387,-0.332 0.385,-0.343 0.383,-0.354 0.3765,-0.3685 0.37,-0.383 0.3555,-0.3925 0.341,-0.402 0.319,-0.402 q -0.082,0 -0.161,0.05 0.002,-0.008 0.008,-0.066 0.086,-0.043 0.166,-0.043 0.062,0 0.0975,0.037 0.0355,0.037 0.0355,0.094 0,0.022 -0.003,0.036 M 0.349,-0.13 0.362,-0.194 q -0.223,0.01 -0.223,0.09 0,0.024 0.022,0.039 0.022,0.015 0.059,0.015 0.012,0 0.0245,-0.0015 Q 0.257,-0.053 0.2815,-0.0595 0.306,-0.066 0.3245,-0.084 0.343,-0.102 0.349,-0.13 Z"
         id="path51" />
    </g>
    <g
       transform="translate(7.8257407,-0.47222222)"
       id="g52">
      <path
         fill="#3333ff"
         stroke="none"
         paint-order="stroke fill markers"
         d="M 0.307,-0.68 0.288,-0.591 H 0.199 L 0.218,-0.68 H 0.307 M 0.081,0 0.175,-0.444 H 0.25 L 0.156,0 Z"
         id="path52" />
    </g>
    <g
       transform="translate(8.1617407,-0.47222222)"
       id="g53">
      <path
         fill="#3333ff"
         stroke="none"
         paint-order="stroke fill markers"
         d="M 0.424,-0.455 0.409,-0.388 Q 0.333,-0.386 0.2775,-0.338 0.222,-0.29 0.207,-0.234 0.204,-0.224 0.157,0 H 0.082 l 0.096,-0.45 h 0.07 L 0.229,-0.362 H 0.23 L 0.233,-0.365 Q 0.236,-0.368 0.2395,-0.372 0.243,-0.376 0.2505,-0.3825 0.258,-0.389 0.2655,-0.395 0.273,-0.401 0.2835,-0.4085 0.294,-0.416 0.305,-0.422 0.316,-0.428 0.33,-0.434 0.344,-0.44 0.3585,-0.4445 0.373,-0.449 0.39,-0.452 0.407,-0.455 0.424,-0.455 Z"
         id="path53" />
    </g>
    <g
       transform="translate(8.6117407,-0.47222222)"
       id="g54">
      <path
         fill="#3333ff"
         stroke="none"
         paint-order="stroke fill markers"
         d="m 0.461,-0.219 h -0.31 q -0.003,0.013 -0.003,0.037 0,0.06 0.0315,0.096 0.0315,0.036 0.0825,0.036 0.086,0 0.164,-0.056 Q 0.425,-0.099 0.4225,-0.0735 0.42,-0.048 0.419,-0.041 0.338,0.011 0.249,0.011 0.171,0.011 0.124,-0.0405 0.077,-0.092 0.077,-0.171 q 0,-0.11 0.0795,-0.2 0.0795,-0.09 0.1765,-0.09 0.07,0 0.106,0.044 0.032,0.04 0.032,0.11 0,0.045 -0.01,0.088 M 0.168,-0.274 h 0.248 q 0,-0.126 -0.095,-0.126 -0.043,0 -0.085,0.034 -0.042,0.034 -0.068,0.092 z"
         id="path54" />
    </g>
    <g
       transform="translate(9.4015185,-0.47222222)"
       id="g55">
      <path
         fill="#3333ff"
         stroke="none"
         paint-order="stroke fill markers"
         d="M 0.274,-0.444 0.257,-0.361 H 0.174 L 0.191,-0.444 H 0.274 M 0.097,0 0.115,-0.083 H 0.198 L 0.18,0 Z"
         id="path55" />
    </g>
    <g
       transform="translate(9.9822963,-0.47222222)"
       id="g56">
      <path
         fill="#3333ff"
         stroke="none"
         paint-order="stroke fill markers"
         d="M 0.722,-0.681 0.69,-0.6 H 0.689 Q 0.624,-0.652 0.531,-0.652 0.452,-0.652 0.38,-0.596 0.308,-0.54 0.2645,-0.45 0.221,-0.36 0.221,-0.264 q 0,0.092 0.046,0.157 0.046,0.065 0.138,0.065 0.061,0 0.101,-0.013 0.04,-0.013 0.098,-0.048 L 0.595,-0.034 Q 0.534,0.001 0.4895,0.0115 0.445,0.022 0.391,0.022 q -0.126,0 -0.193,-0.083 -0.067,-0.083 -0.067,-0.198 0,-0.111 0.0565,-0.217 0.0565,-0.106 0.1535,-0.173 0.097,-0.067 0.205,-0.067 0.089,0 0.176,0.035 z"
         id="path56" />
    </g>
    <g
       transform="matrix(0.7,0,0,0.7,10.621296,-0.32222222)"
       id="g57">
      <path
         fill="#3333ff"
         stroke="none"
         paint-order="stroke fill markers"
         d="m 0.477,-0.396 -0.338,0.335 h 0.092 q 0.006,0 0.018,-5e-4 0.012,-5e-4 0.018,-5e-4 H 0.415 L 0.402,0 H 0.028 Q 0.031,-0.021 0.035,-0.031 0.038,-0.043 0.049,-0.053 L 0.384,-0.386 H 0.3 q -0.006,0 -0.018,5e-4 -0.012,5e-4 -0.018,5e-4 h -0.14 l 0.012,-0.059 h 0.358 l -0.005,0.028 q -0.003,0.011 -0.012,0.02 z"
         id="path57" />
    </g>
    <g
       transform="translate(11.265174,-0.47222222)"
       id="g58">
      <path
         fill="#3333ff"
         stroke="none"
         paint-order="stroke fill markers"
         d="M 0.762,-0.33 H 0.164 q -0.033,0 -0.033,-0.02 0,-0.02 0.033,-0.02 h 0.598 q 0.033,0 0.033,0.02 0,0.02 -0.033,0.02 m -0.043,0.2 H 0.121 q -0.033,0 -0.033,-0.02 0,-0.02 0.033,-0.02 h 0.598 q 0.034,0 0.034,0.02 0,0.02 -0.034,0.02 z"
         id="path58" />
    </g>
    <g
       transform="translate(12.371952,-0.47222222)"
       id="g59">
      <path
         fill="#3333ff"
         stroke="none"
         paint-order="stroke fill markers"
         d="M 0.258,-0.386 0.176,0 H 0.101 L 0.183,-0.386 H 0.109 L 0.121,-0.444 H 0.195 L 0.216,-0.539 Q 0.231,-0.608 0.2875,-0.6565 0.344,-0.705 0.417,-0.705 q 0.038,0 0.077,0.011 L 0.48,-0.627 q -0.035,-0.017 -0.077,-0.017 -0.04,0 -0.0715,0.0205 Q 0.3,-0.603 0.293,-0.567 L 0.267,-0.444 H 0.38 l -0.012,0.058 z"
         id="path59" />
    </g>
    <g
       transform="translate(12.894952,-0.47222222)"
       id="g60">
      <path
         fill="#3333ff"
         stroke="none"
         paint-order="stroke fill markers"
         d="M 0.43,-0.75 H 0.491 Q 0.453,-0.717 0.4285,-0.693 0.404,-0.669 0.36,-0.6085 0.316,-0.548 0.285,-0.479 q -0.098,0.215 -0.098,0.432 0,0.185 0.092,0.297 H 0.218 Q 0.111,0.133 0.111,-0.064 0.111,-0.129 0.1245,-0.2075 0.138,-0.286 0.17,-0.3855 0.202,-0.485 0.2695,-0.583 0.337,-0.681 0.43,-0.75 Z"
         id="path60" />
    </g>
    <g
       transform="translate(13.415952,-0.47222222)"
       id="g61">
      <path
         fill="#3333ff"
         stroke="none"
         paint-order="stroke fill markers"
         d="M 0.722,-0.681 0.69,-0.6 H 0.689 Q 0.624,-0.652 0.531,-0.652 0.452,-0.652 0.38,-0.596 0.308,-0.54 0.2645,-0.45 0.221,-0.36 0.221,-0.264 q 0,0.092 0.046,0.157 0.046,0.065 0.138,0.065 0.061,0 0.101,-0.013 0.04,-0.013 0.098,-0.048 L 0.595,-0.034 Q 0.534,0.001 0.4895,0.0115 0.445,0.022 0.391,0.022 q -0.126,0 -0.193,-0.083 -0.067,-0.083 -0.067,-0.198 0,-0.111 0.0565,-0.217 0.0565,-0.106 0.1535,-0.173 0.097,-0.067 0.205,-0.067 0.089,0 0.176,0.035 z"
         id="path61" />
    </g>
    <g
       transform="matrix(0.7,0,0,0.7,14.054952,-0.32222222)"
       id="g62">
      <path
         fill="#3333ff"
         stroke="none"
         paint-order="stroke fill markers"
         d="M 0.309,-0.229 0.46,0 H 0.377 L 0.267,-0.188 0.082,0 H 0 L 0.243,-0.229 0.1,-0.444 h 0.083 l 0.104,0.165 0.168,-0.165 h 0.083 z"
         id="path62" />
    </g>
    <g
       transform="translate(14.442052,-0.47222222)"
       id="g63">
      <path
         fill="#3333ff"
         stroke="none"
         paint-order="stroke fill markers"
         d="m 0.215,-0.75 h 0.061 q 0.107,0.114 0.107,0.314 0,0.218 -0.106,0.43 Q 0.204,0.141 0.064,0.25 H 0.003 Q 0.089,0.18 0.1515,0.0815 0.214,-0.017 0.2425,-0.098 0.271,-0.179 0.2875,-0.2695 0.304,-0.36 0.306,-0.394 q 0.002,-0.034 0.002,-0.059 0,-0.184 -0.093,-0.297 z"
         id="path63" />
    </g>
  </g>
  <text
     xml:space="preserve"
     style="font-style:normal;font-variant:normal;font-weight:normal;font-stretch:normal;font-size:21.3333px;font-family:Arial;-inkscape-font-specification:Arial;letter-spacing:0px;writing-mode:lr-tb;direction:ltr;text-orientation:upright;fill:#000000;stroke-width:2.58683"
     id="text69"
     transform="translate(-6)"><textPath
       xlink:href="#path37"
       id="textPath69"><tspan
         id="tspan69">                                                       Polaire aile seule</tspan></textPath></text>
  <text
     xml:space="preserve"
     style="font-style:normal;font-variant:normal;font-weight:normal;font-stretch:normal;font-size:21.3333px;font-family:Arial;-inkscape-font-specification:Arial;letter-spacing:0px;writing-mode:lr-tb;direction:ltr;text-orientation:upright;fill:#000000;stroke-width:2.58683"
     id="text70"
     transform="translate(-6)"><textPath
       xlink:href="#path37-2"
       id="textPath70"><tspan
         id="tspan70">                                                       Polaire avion complet</tspan></textPath></text>
</svg>
