<svg version="1.1" xmlns="http://www.w3.org/2000/svg" xmlns:xlink="http://www.w3.org/1999/xlink" width="474" height="712"><defs><clipPath id="DvtzdQFzqnUX"><path fill="none" stroke="none" d=" M 0 0 L 474 0 L 474 712 L 0 712 L 0 0 Z"/></clipPath></defs><g transform="scale(1,1)" clip-path="url(#DvtzdQFzqnUX)"><g><rect fill="rgb(255,255,255)" stroke="none" x="0" y="0" width="475" height="712" fill-opacity="1"/><path fill="none" stroke="rgb(192,192,192)" paint-order="fill stroke markers" d=" M 52.5 0.5 L 52.5 712.5 M 81.5 0.5 L 81.5 712.5 M 110.5 0.5 L 110.5 712.5 M 139.5 0.5 L 139.5 712.5 M 168.5 0.5 L 168.5 712.5 M 197.5 0.5 L 197.5 712.5 M 226.5 0.5 L 226.5 712.5 M 255.5 0.5 L 255.5 712.5 M 284.5 0.5 L 284.5 712.5 M 314.5 0.5 L 314.5 712.5 M 343.5 0.5 L 343.5 712.5 M 372.5 0.5 L 372.5 712.5 M 401.5 0.5 L 401.5 712.5 M 430.5 0.5 L 430.5 712.5 M 459.5 0.5 L 459.5 712.5" stroke-opacity="1" stroke-linecap="round" stroke-linejoin="round" stroke-miterlimit="10"/><path fill="none" stroke="rgb(192,192,192)" paint-order="fill stroke markers" d="" stroke-opacity="0.23529411764705882" stroke-linecap="round" stroke-linejoin="round" stroke-miterlimit="10"/><path fill="none" stroke="rgb(192,192,192)" paint-order="fill stroke markers" d=" M 23.5 24.5 L 474.5 24.5 M 23.5 24.5 L 474.5 24.5 M 23.5 51.5 L 474.5 51.5 M 23.5 78.5 L 474.5 78.5 M 23.5 105.5 L 474.5 105.5 M 23.5 133.5 L 474.5 133.5 M 23.5 160.5 L 474.5 160.5 M 23.5 187.5 L 474.5 187.5 M 23.5 214.5 L 474.5 214.5 M 23.5 241.5 L 474.5 241.5 M 23.5 268.5 L 474.5 268.5 M 23.5 295.5 L 474.5 295.5 M 23.5 322.5 L 474.5 322.5 M 23.5 349.5 L 474.5 349.5 M 23.5 376.5 L 474.5 376.5 M 23.5 403.5 L 474.5 403.5 M 23.5 430.5 L 474.5 430.5 M 23.5 457.5 L 474.5 457.5 M 23.5 484.5 L 474.5 484.5 M 23.5 511.5 L 474.5 511.5 M 23.5 538.5 L 474.5 538.5 M 23.5 592.5 L 474.5 592.5 M 23.5 620.5 L 474.5 620.5 M 23.5 647.5 L 474.5 647.5 M 23.5 674.5 L 474.5 674.5 M 23.5 701.5 L 474.5 701.5" stroke-opacity="1" stroke-linecap="round" stroke-linejoin="round" stroke-miterlimit="10"/><path fill="none" stroke="rgb(192,192,192)" paint-order="fill stroke markers" d="" stroke-opacity="0.23529411764705882" stroke-linecap="round" stroke-linejoin="round" stroke-miterlimit="10"/><path fill="none" stroke="rgb(0,0,0)" paint-order="fill stroke markers" d=" M 23.5 2.5 L 23.5 712.5" stroke-opacity="1" stroke-miterlimit="10"/><path fill="rgb(0,0,0)" stroke="none" paint-order="stroke fill markers" fill-rule="evenodd" d=" M 23.2369956672203 1 L 20.2369956672203 13 L 26.2369956672203 13" fill-opacity="1"/><text fill="rgb(0,0,0)" stroke="none" font-family="geogebra-sans-serif, sans-serif" font-size="12px" font-style="normal" font-weight="normal" text-decoration="normal" x="449" y="561" text-anchor="start" dominant-baseline="alphabetic" fill-opacity="1">Cx</text><path fill="none" stroke="rgb(0,0,0)" paint-order="fill stroke markers" d=" M 23.5 565.5 L 472.5 565.5" stroke-opacity="1" stroke-miterlimit="10"/><path fill="rgb(0,0,0)" stroke="none" paint-order="stroke fill markers" fill-rule="evenodd" d=" M 473 565.9248546797514 L 461 562.9248546797514 L 461 568.9248546797514" fill-opacity="1"/><path fill="none" stroke="rgb(0,0,0)" paint-order="fill stroke markers" d=" M 23.5 565.5 L 23.5 568.5" stroke-opacity="1" stroke-miterlimit="10"/><text fill="rgb(0,0,0)" stroke="none" font-family="geogebra-sans-serif, sans-serif" font-size="10px" font-style="normal" font-weight="normal" text-decoration="normal" x="159" y="579" text-anchor="start" dominant-baseline="alphabetic" fill-opacity="1">0.05</text><path fill="none" stroke="rgb(0,0,0)" paint-order="fill stroke markers" d=" M 168.5 565.5 L 168.5 568.5" stroke-opacity="1" stroke-miterlimit="10"/><text fill="rgb(0,0,0)" stroke="none" font-family="geogebra-sans-serif, sans-serif" font-size="10px" font-style="normal" font-weight="normal" text-decoration="normal" x="307" y="579" text-anchor="start" dominant-baseline="alphabetic" fill-opacity="1">0.1</text><path fill="none" stroke="rgb(0,0,0)" paint-order="fill stroke markers" d=" M 314.5 565.5 L 314.5 568.5" stroke-opacity="1" stroke-miterlimit="10"/><text fill="rgb(0,0,0)" stroke="none" font-family="geogebra-sans-serif, sans-serif" font-size="10px" font-style="normal" font-weight="normal" text-decoration="normal" x="450" y="579" text-anchor="start" dominant-baseline="alphabetic" fill-opacity="1">0.15</text><path fill="none" stroke="rgb(0,0,0)" paint-order="fill stroke markers" d=" M 459.5 565.5 L 459.5 568.5" stroke-opacity="1" stroke-miterlimit="10"/><text fill="rgb(0,0,0)" stroke="none" font-family="geogebra-sans-serif, sans-serif" font-size="12px" font-style="normal" font-weight="normal" text-decoration="normal" x="28" y="14" text-anchor="start" dominant-baseline="alphabetic" fill-opacity="1">Cz</text><path fill="none" stroke="rgb(0,0,0)" paint-order="fill stroke markers" d=" M 20.5 674.5 L 23.5 674.5" stroke-opacity="1" stroke-miterlimit="10"/><path fill="none" stroke="rgb(0,0,0)" paint-order="fill stroke markers" d=" M 20.5 620.5 L 23.5 620.5" stroke-opacity="1" stroke-miterlimit="10"/><path fill="none" stroke="rgb(0,0,0)" paint-order="fill stroke markers" d=" M 20.5 511.5 L 23.5 511.5" stroke-opacity="1" stroke-miterlimit="10"/><path fill="none" stroke="rgb(0,0,0)" paint-order="fill stroke markers" d=" M 20.5 457.5 L 23.5 457.5" stroke-opacity="1" stroke-miterlimit="10"/><path fill="none" stroke="rgb(0,0,0)" paint-order="fill stroke markers" d=" M 20.5 403.5 L 23.5 403.5" stroke-opacity="1" stroke-miterlimit="10"/><path fill="none" stroke="rgb(0,0,0)" paint-order="fill stroke markers" d=" M 20.5 349.5 L 23.5 349.5" stroke-opacity="1" stroke-miterlimit="10"/><path fill="none" stroke="rgb(0,0,0)" paint-order="fill stroke markers" d=" M 20.5 295.5 L 23.5 295.5" stroke-opacity="1" stroke-miterlimit="10"/><path fill="none" stroke="rgb(0,0,0)" paint-order="fill stroke markers" d=" M 20.5 241.5 L 23.5 241.5" stroke-opacity="1" stroke-miterlimit="10"/><path fill="none" stroke="rgb(0,0,0)" paint-order="fill stroke markers" d=" M 20.5 187.5 L 23.5 187.5" stroke-opacity="1" stroke-miterlimit="10"/><path fill="none" stroke="rgb(0,0,0)" paint-order="fill stroke markers" d=" M 20.5 133.5 L 23.5 133.5" stroke-opacity="1" stroke-miterlimit="10"/><path fill="none" stroke="rgb(0,0,0)" paint-order="fill stroke markers" d=" M 20.5 78.5 L 23.5 78.5" stroke-opacity="1" stroke-miterlimit="10"/><path fill="none" stroke="rgb(0,0,0)" paint-order="fill stroke markers" d=" M 20.5 24.5 L 23.5 24.5" stroke-opacity="1" stroke-miterlimit="10"/><text fill="rgb(0,0,0)" stroke="none" font-family="geogebra-sans-serif, sans-serif" font-size="10px" font-style="normal" font-weight="normal" text-decoration="normal" x="3" y="678" text-anchor="start" dominant-baseline="alphabetic" fill-opacity="1">–0.4</text><text fill="rgb(0,0,0)" stroke="none" font-family="geogebra-sans-serif, sans-serif" font-size="10px" font-style="normal" font-weight="normal" text-decoration="normal" x="3" y="624" text-anchor="start" dominant-baseline="alphabetic" fill-opacity="1">–0.2</text><text fill="rgb(0,0,0)" stroke="none" font-family="geogebra-sans-serif, sans-serif" font-size="10px" font-style="normal" font-weight="normal" text-decoration="normal" x="8" y="515" text-anchor="start" dominant-baseline="alphabetic" fill-opacity="1">0.2</text><text fill="rgb(0,0,0)" stroke="none" font-family="geogebra-sans-serif, sans-serif" font-size="10px" font-style="normal" font-weight="normal" text-decoration="normal" x="8" y="461" text-anchor="start" dominant-baseline="alphabetic" fill-opacity="1">0.4</text><text fill="rgb(0,0,0)" stroke="none" font-family="geogebra-sans-serif, sans-serif" font-size="10px" font-style="normal" font-weight="normal" text-decoration="normal" x="8" y="407" text-anchor="start" dominant-baseline="alphabetic" fill-opacity="1">0.6</text><text fill="rgb(0,0,0)" stroke="none" font-family="geogebra-sans-serif, sans-serif" font-size="10px" font-style="normal" font-weight="normal" text-decoration="normal" x="8" y="353" text-anchor="start" dominant-baseline="alphabetic" fill-opacity="1">0.8</text><text fill="rgb(0,0,0)" stroke="none" font-family="geogebra-sans-serif, sans-serif" font-size="10px" font-style="normal" font-weight="normal" text-decoration="normal" x="16" y="299" text-anchor="start" dominant-baseline="alphabetic" fill-opacity="1">1</text><text fill="rgb(0,0,0)" stroke="none" font-family="geogebra-sans-serif, sans-serif" font-size="10px" font-style="normal" font-weight="normal" text-decoration="normal" x="8" y="245" text-anchor="start" dominant-baseline="alphabetic" fill-opacity="1">1.2</text><text fill="rgb(0,0,0)" stroke="none" font-family="geogebra-sans-serif, sans-serif" font-size="10px" font-style="normal" font-weight="normal" text-decoration="normal" x="8" y="191" text-anchor="start" dominant-baseline="alphabetic" fill-opacity="1">1.4</text><text fill="rgb(0,0,0)" stroke="none" font-family="geogebra-sans-serif, sans-serif" font-size="10px" font-style="normal" font-weight="normal" text-decoration="normal" x="8" y="137" text-anchor="start" dominant-baseline="alphabetic" fill-opacity="1">1.6</text><text fill="rgb(0,0,0)" stroke="none" font-family="geogebra-sans-serif, sans-serif" font-size="10px" font-style="normal" font-weight="normal" text-decoration="normal" x="8" y="82" text-anchor="start" dominant-baseline="alphabetic" fill-opacity="1">1.8</text><text fill="rgb(0,0,0)" stroke="none" font-family="geogebra-sans-serif, sans-serif" font-size="10px" font-style="normal" font-weight="normal" text-decoration="normal" x="16" y="28" text-anchor="start" dominant-baseline="alphabetic" fill-opacity="1">2</text><text fill="rgb(0,0,0)" stroke="none" font-family="geogebra-sans-serif, sans-serif" font-size="10px" font-style="normal" font-weight="normal" text-decoration="normal" x="10" y="569" text-anchor="start" dominant-baseline="alphabetic" fill-opacity="1">0</text><path fill="none" stroke="rgb(0,0,0)" paint-order="fill stroke markers" d=" M 95.19866775826428 620.3328621797518 L 93.02462236715273 614.9849200803844 L 90.96298389846457 609.5157824951033 L 89.01281917284145 603.9291181864993 L 87.17319501092494 598.2285959171633 L 85.4431782333567 592.4178844496862 L 83.82183566077836 586.5006525466589 L 82.30823411383153 580.4805689706723 L 80.90144041315784 574.3613024843172 L 79.60052137939891 568.1465218501845 L 78.40454383319636 561.8398958308653 L 77.31257459519182 555.4450931889502 L 76.32368048602689 548.9657826870302 L 75.43692832634324 542.4056330876962 L 74.65138493678248 535.7683131535391 L 73.9661171379862 529.0574916471497 L 73.38019175059604 522.2768373311189 L 72.89267559525365 515.4300189680378 L 72.5026354926006 508.5207053204969 L 72.20913826327859 501.5525651510874 L 72.01125072792917 494.52926722240005 L 71.908039707194 487.45448029702584 L 71.89857202171471 480.3318731375555 L 71.98191449213292 473.16511450658 L 72.15713393909022 465.9578731666902 L 72.42329718322827 458.7138178804771 L 72.77947104518867 451.4366174105314 L 73.22472234561307 444.1299405194441 L 73.75811790514308 436.7974559698061 L 74.37872454442032 429.44283252420826 L 75.08560908408643 422.0697389452413 L 75.87783834478299 414.68184399549637 L 76.75447914715168 407.2828164375643 L 77.71459831183411 399.87632503403586 L 78.75726265947188 392.46603854750197 L 79.88153901070662 385.0556257405535 L 81.08649418617995 377.64875537578143 L 82.37119500653353 370.2490962157766 L 83.73470829240892 362.8603170231298 L 85.17610086444782 355.4860865604321 L 86.6944395432918 348.13007359027426 L 88.2887911495825 340.7959468752472 L 89.95822250396152 333.4873751779417 L 91.70180042707054 326.2080272609488 L 93.51859173955113 318.96157188685936 L 95.40766326204495 311.75167781826417 L 97.36808181519358 304.5820138177542 L 99.39891421963868 297.4562486479203 L 101.49922729602189 290.3780510713534 L 103.66808786498478 283.3510898506443 L 105.90456274716901 276.37903374838396 L 108.20771876321618 269.46555152716326 L 110.57662273376793 262.614311949573 L 113.01034147946592 255.8289837782042 L 115.50794182095171 249.11323577564764 L 118.06849057886696 242.4707367044942 L 120.69105457385325 235.90515532733485 L 123.37470062655227 229.42016040676043 L 126.1184955576056 223.01942070536182 L 128.92150618765487 216.70660498572988 L 131.78279933734171 210.48538201045557 L 134.70144182730778 204.35942054212973 L 137.6765004781946 198.3323893433432 L 140.7070421106439 192.40795717668698 L 143.7921335452973 186.58979280475188 L 146.9308416027963 180.88156499012877 L 150.12223310378266 175.28694249540854 L 153.365374868898 169.8095940831821 L 156.6593337187838 164.4531885160403 L 160.00317647408184 159.22139455657407 L 163.39596995543369 154.11788096737428 L 166.83678098348096 149.14631651103184 L 170.32467637886526 144.3103699501376 L 173.85872296222826 139.61371004728244 L 177.43798755421153 135.06000556505722 L 181.06153697545673 130.652925266053 L 184.72843804660553 126.39613791286035 L 188.43775758829943 122.2933122680704 L 192.1885624211802 118.34811709427402 L 195.97991936588932 114.56422115406212 L 199.81089524306853 110.94529321002534 L 203.6805568733594 107.4950020247548 L 207.58797107740352 104.21701636084123 L 211.5322046758426 101.11500498087565 L 215.51232448931822 98.19263664744904 L 219.52739733847193 95.453580123152 L 223.57649004394548 92.9015041705756 L 227.65866942638047 90.54007755231072 L 231.77300230641842 88.37296903094813 L 235.9185555047011 86.40384736907885 L 240.09439584187 84.63638132929367 L 244.2995901385668 83.07423967418356 L 248.53320521543316 81.72109116633936 L 252.79430789311067 80.58060456835193 L 257.08196499224096 79.65644864281228 L 261.3952433334656 78.95229215231103 L 265.73320973742625 78.47180385943932 L 270.09493102476466 78.21865252678799 L 274.47947401612225 78.19650691694778 L 278.8859055321408 78.40903579250977 L 283.3132923934617 78.85990791606474 L 287.76070142072695 79.5527920502035 L 292.2271994345778 80.49135695751716 L 296.71185325565614 81.67927140059629 L 301.21372970460345 83.1202041420321 L 305.7318956020614 84.81782394441518 L 310.2654177686716 86.77579957033674 L 314.8133630250757 88.9977997823874 L 319.3747981919153 91.48749334315818 L 323.948790089832 94.24854901523986 L 328.53440553946757 97.28463556122347 L 333.1307113614634 100.59942174369968 L 337.7367743764612 104.19657632525957 L 342.3516614051027 108.07976806849393 L 346.97443926802947 112.25266573599373 L 351.60417478588306 116.71893809034981 L 356.2399347793052 121.48225389415296 L 360.8807860689374 126.54628190999426 L 365.5257954754214 131.91469090046445 L 370.17402981939864 137.59114962815437 L 374.824555921511 143.57932685565504 L 379.47644060239986 149.88289134555725 L 384.1287506827071 156.50551186045197 L 388.78055298307413 163.4508571629301 L 393.43091432414263 170.72259601558238 L 398.07890152655426 178.32439718099977 L 402.7235814109506 186.25992942177322 L 407.36402079797335 194.53286150049348 L 411.99928650826405 203.14686217975162" stroke-opacity="1" stroke-linecap="round" stroke-linejoin="round" stroke-miterlimit="10"/><path fill="rgb(255,0,255)" stroke="none" paint-order="stroke fill markers" d=" M 414.99928650826405 203.14686217975162 C 414.99928650826405 204.803716429244 413.6561407577564 206.14686217975162 411.99928650826405 206.14686217975162 C 410.3424322587717 206.14686217975162 408.99928650826405 204.803716429244 408.99928650826405 203.14686217975162 C 408.99928650826405 201.49000793025925 410.3424322587717 200.14686217975162 411.99928650826405 200.14686217975162 C 413.6561407577564 200.14686217975162 414.99928650826405 201.49000793025925 414.99928650826405 203.14686217975162 Z" fill-opacity="1"/><path fill="none" stroke="rgb(0,0,0)" paint-order="fill stroke markers" d=" M 414.99928650826405 203.14686217975162 C 414.99928650826405 204.803716429244 413.6561407577564 206.14686217975162 411.99928650826405 206.14686217975162 C 410.3424322587717 206.14686217975162 408.99928650826405 204.803716429244 408.99928650826405 203.14686217975162 C 408.99928650826405 201.49000793025925 410.3424322587717 200.14686217975162 411.99928650826405 200.14686217975162 C 413.6561407577564 200.14686217975162 414.99928650826405 201.49000793025925 414.99928650826405 203.14686217975162 Z" stroke-opacity="1" stroke-linecap="round" stroke-linejoin="round" stroke-miterlimit="10"/><text fill="rgb(255,0,255)" stroke="none" font-family="geogebra-sans-serif, sans-serif" font-size="12px" font-style="normal" font-weight="normal" text-decoration="normal" x="426" y="208" text-anchor="start" dominant-baseline="alphabetic" fill-opacity="1">E</text><path fill="rgb(255,0,255)" stroke="none" paint-order="stroke fill markers" d=" M 100.76665775748461 303.1602909801262 C 100.76665775748461 304.8171452296186 99.42351200697699 306.1602909801262 97.76665775748461 306.1602909801262 C 96.10980350799223 306.1602909801262 94.76665775748461 304.8171452296186 94.76665775748461 303.1602909801262 C 94.76665775748461 301.50343673063384 96.10980350799223 300.1602909801262 97.76665775748461 300.1602909801262 C 99.42351200697699 300.1602909801262 100.76665775748461 301.50343673063384 100.76665775748461 303.1602909801262 Z" fill-opacity="1"/><path fill="none" stroke="rgb(0,0,0)" paint-order="fill stroke markers" d=" M 100.76665775748461 303.1602909801262 C 100.76665775748461 304.8171452296186 99.42351200697699 306.1602909801262 97.76665775748461 306.1602909801262 C 96.10980350799223 306.1602909801262 94.76665775748461 304.8171452296186 94.76665775748461 303.1602909801262 C 94.76665775748461 301.50343673063384 96.10980350799223 300.1602909801262 97.76665775748461 300.1602909801262 C 99.42351200697699 300.1602909801262 100.76665775748461 301.50343673063384 100.76665775748461 303.1602909801262 Z" stroke-opacity="1" stroke-linecap="round" stroke-linejoin="round" stroke-miterlimit="10"/><text fill="rgb(255,0,255)" stroke="none" font-family="geogebra-sans-serif, sans-serif" font-size="12px" font-style="normal" font-weight="normal" text-decoration="normal" x="110" y="304" text-anchor="start" dominant-baseline="alphabetic" fill-opacity="1">C</text><path fill="rgb(255,0,255)" stroke="none" paint-order="stroke fill markers" d=" M 275.3133395900844 78.17833264476872 C 275.3133395900844 79.8351868942611 273.9701938395768 81.17833264476872 272.3133395900844 81.17833264476872 C 270.65648534059204 81.17833264476872 269.3133395900844 79.8351868942611 269.3133395900844 78.17833264476872 C 269.3133395900844 76.52147839527633 270.65648534059204 75.17833264476872 272.3133395900844 75.17833264476872 C 273.9701938395768 75.17833264476872 275.3133395900844 76.52147839527633 275.3133395900844 78.17833264476872 Z" fill-opacity="1"/><path fill="none" stroke="rgb(0,0,0)" paint-order="fill stroke markers" d=" M 275.3133395900844 78.17833264476872 C 275.3133395900844 79.8351868942611 273.9701938395768 81.17833264476872 272.3133395900844 81.17833264476872 C 270.65648534059204 81.17833264476872 269.3133395900844 79.8351868942611 269.3133395900844 78.17833264476872 C 269.3133395900844 76.52147839527633 270.65648534059204 75.17833264476872 272.3133395900844 75.17833264476872 C 273.9701938395768 75.17833264476872 275.3133395900844 76.52147839527633 275.3133395900844 78.17833264476872 Z" stroke-opacity="1" stroke-linecap="round" stroke-linejoin="round" stroke-miterlimit="10"/><text fill="rgb(255,0,255)" stroke="none" font-family="geogebra-sans-serif, sans-serif" font-size="12px" font-style="normal" font-weight="normal" text-decoration="normal" x="267" y="65" text-anchor="start" dominant-baseline="alphabetic" fill-opacity="1">D</text><path fill="rgb(255,0,255)" stroke="none" paint-order="stroke fill markers" d=" M 74.89189299067047 484.0659198190498 C 74.89189299067047 485.72277406854215 73.54874724016285 487.0659198190498 71.89189299067047 487.0659198190498 C 70.23503874117809 487.0659198190498 68.89189299067047 485.72277406854215 68.89189299067047 484.0659198190498 C 68.89189299067047 482.4090655695574 70.23503874117809 481.0659198190498 71.89189299067047 481.0659198190498 C 73.54874724016285 481.0659198190498 74.89189299067047 482.4090655695574 74.89189299067047 484.0659198190498 Z" fill-opacity="1"/><path fill="none" stroke="rgb(0,0,0)" paint-order="fill stroke markers" d=" M 74.89189299067047 484.0659198190498 C 74.89189299067047 485.72277406854215 73.54874724016285 487.0659198190498 71.89189299067047 487.0659198190498 C 70.23503874117809 487.0659198190498 68.89189299067047 485.72277406854215 68.89189299067047 484.0659198190498 C 68.89189299067047 482.4090655695574 70.23503874117809 481.0659198190498 71.89189299067047 481.0659198190498 C 73.54874724016285 481.0659198190498 74.89189299067047 482.4090655695574 74.89189299067047 484.0659198190498 Z" stroke-opacity="1" stroke-linecap="round" stroke-linejoin="round" stroke-miterlimit="10"/><text fill="rgb(255,0,255)" stroke="none" font-family="geogebra-sans-serif, sans-serif" font-size="12px" font-style="normal" font-weight="normal" text-decoration="normal" x="82" y="488" text-anchor="start" dominant-baseline="alphabetic" fill-opacity="1">B</text><path fill="rgb(255,0,255)" stroke="none" paint-order="stroke fill markers" d=" M 82.16624190404309 565.9297321474289 C 82.16624190404309 567.5865863969213 80.82309615353547 568.9297321474289 79.16624190404309 568.9297321474289 C 77.50938765455071 568.9297321474289 76.16624190404309 567.5865863969213 76.16624190404309 565.9297321474289 C 76.16624190404309 564.2728778979365 77.50938765455071 562.9297321474289 79.16624190404309 562.9297321474289 C 80.82309615353547 562.9297321474289 82.16624190404309 564.2728778979365 82.16624190404309 565.9297321474289 Z" fill-opacity="1"/><path fill="none" stroke="rgb(0,0,0)" paint-order="fill stroke markers" d=" M 82.16624190404309 565.9297321474289 C 82.16624190404309 567.5865863969213 80.82309615353547 568.9297321474289 79.16624190404309 568.9297321474289 C 77.50938765455071 568.9297321474289 76.16624190404309 567.5865863969213 76.16624190404309 565.9297321474289 C 76.16624190404309 564.2728778979365 77.50938765455071 562.9297321474289 79.16624190404309 562.9297321474289 C 80.82309615353547 562.9297321474289 82.16624190404309 564.2728778979365 82.16624190404309 565.9297321474289 Z" stroke-opacity="1" stroke-linecap="round" stroke-linejoin="round" stroke-miterlimit="10"/><text fill="rgb(255,0,255)" stroke="none" font-family="geogebra-sans-serif, sans-serif" font-size="12px" font-style="normal" font-weight="normal" text-decoration="normal" x="83" y="560" text-anchor="start" dominant-baseline="alphabetic" fill-opacity="1">A</text><g transform="scale(27,27)"><g transform="translate(5.7407407407407405,-0.4722222222222223)"><path fill="rgb(51,51,255)" stroke="none" paint-order="stroke fill markers" d=" M 0.246 -0.289 L 0.185 0 L 0.096 0 L 0.244 -0.6940000000000001 L 0.493 -0.6940000000000001 Q 0.582 -0.6940000000000001 0.636 -0.6465 Q 0.6900000000000001 -0.599 0.6900000000000001 -0.528 Q 0.6900000000000001 -0.435 0.6045 -0.362 Q 0.519 -0.289 0.41400000000000003 -0.289 L 0.246 -0.289 M 0.318 -0.638 L 0.256 -0.34700000000000003 L 0.397 -0.34700000000000003 Q 0.494 -0.34700000000000003 0.5515 -0.401 Q 0.609 -0.455 0.609 -0.521 Q 0.609 -0.5760000000000001 0.5685 -0.607 Q 0.528 -0.638 0.459 -0.638 L 0.318 -0.638 Z"/></g><g transform="translate(6.43474074074074,-0.4722222222222223)"><path fill="rgb(51,51,255)" stroke="none" paint-order="stroke fill markers" d=" M 0.522 -0.275 Q 0.522 -0.162 0.4365 -0.0755 Q 0.35100000000000003 0.011 0.248 0.011 Q 0.169 0.011 0.12 -0.0405 Q 0.07100000000000001 -0.092 0.07100000000000001 -0.169 Q 0.07100000000000001 -0.278 0.156 -0.3695 Q 0.241 -0.461 0.34700000000000003 -0.461 Q 0.426 -0.461 0.47400000000000003 -0.40700000000000003 Q 0.522 -0.353 0.522 -0.275 M 0.261 -0.053 Q 0.341 -0.053 0.3935 -0.1255 Q 0.446 -0.198 0.446 -0.28 Q 0.446 -0.335 0.41550000000000004 -0.3675 Q 0.385 -0.4 0.334 -0.4 Q 0.258 -0.4 0.20450000000000002 -0.3335 Q 0.151 -0.267 0.151 -0.177 Q 0.151 -0.111 0.1845 -0.082 Q 0.218 -0.053 0.261 -0.053 Z"/></g><g transform="translate(7.00074074074074,-0.4722222222222223)"><path fill="rgb(51,51,255)" stroke="none" paint-order="stroke fill markers" d=" M 0.304 -0.6940000000000001 L 0.156 0 L 0.081 0 L 0.229 -0.6940000000000001 L 0.304 -0.6940000000000001 Z"/></g><g transform="translate(7.33474074074074,-0.4722222222222223)"><path fill="rgb(51,51,255)" stroke="none" paint-order="stroke fill markers" d=" M 0.462 -0.294 L 0.399 0 L 0.324 0 Q 0.325 -0.004 0.3275 -0.0175 Q 0.33 -0.031 0.331 -0.035 Q 0.259 0.011 0.156 0.011 Q 0.126 0.011 0.1055 -0.001 Q 0.085 -0.013000000000000001 0.0775 -0.032 Q 0.07 -0.051000000000000004 0.0675 -0.0625 Q 0.065 -0.074 0.065 -0.085 Q 0.065 -0.124 0.088 -0.1535 Q 0.111 -0.183 0.14250000000000002 -0.199 Q 0.17400000000000002 -0.215 0.2175 -0.2255 Q 0.261 -0.23600000000000002 0.29 -0.23950000000000002 Q 0.319 -0.243 0.34800000000000003 -0.244 Q 0.366 -0.244 0.372 -0.246 Q 0.374 -0.248 0.3805 -0.2795 Q 0.387 -0.311 0.387 -0.323 Q 0.387 -0.332 0.385 -0.343 Q 0.383 -0.354 0.3765 -0.3685 Q 0.37 -0.383 0.3555 -0.3925 Q 0.341 -0.402 0.319 -0.402 Q 0.23700000000000002 -0.402 0.158 -0.352 Q 0.16 -0.36 0.166 -0.418 Q 0.252 -0.461 0.332 -0.461 Q 0.394 -0.461 0.4295 -0.424 Q 0.465 -0.387 0.465 -0.33 Q 0.465 -0.308 0.462 -0.294 M 0.34900000000000003 -0.13 L 0.362 -0.194 Q 0.139 -0.184 0.139 -0.10400000000000001 Q 0.139 -0.08 0.161 -0.065 Q 0.183 -0.05 0.22 -0.05 Q 0.232 -0.05 0.2445 -0.051500000000000004 Q 0.257 -0.053 0.28150000000000003 -0.059500000000000004 Q 0.306 -0.066 0.3245 -0.084 Q 0.343 -0.10200000000000001 0.34900000000000003 -0.13 Z"/></g><g transform="translate(7.8257407407407396,-0.4722222222222223)"><path fill="rgb(51,51,255)" stroke="none" paint-order="stroke fill markers" d=" M 0.307 -0.68 L 0.28800000000000003 -0.591 L 0.199 -0.591 L 0.218 -0.68 L 0.307 -0.68 M 0.081 0 L 0.17500000000000002 -0.444 L 0.25 -0.444 L 0.156 0 L 0.081 0 Z"/></g><g transform="translate(8.16174074074074,-0.4722222222222223)"><path fill="rgb(51,51,255)" stroke="none" paint-order="stroke fill markers" d=" M 0.424 -0.455 L 0.40900000000000003 -0.388 Q 0.333 -0.386 0.2775 -0.338 Q 0.222 -0.29 0.20700000000000002 -0.234 Q 0.20400000000000001 -0.224 0.157 0 L 0.082 0 L 0.178 -0.45 L 0.248 -0.45 L 0.229 -0.362 L 0.23 -0.362 L 0.233 -0.365 Q 0.23600000000000002 -0.368 0.23950000000000002 -0.372 Q 0.243 -0.376 0.2505 -0.3825 Q 0.258 -0.389 0.2655 -0.395 Q 0.273 -0.401 0.28350000000000003 -0.40850000000000003 Q 0.294 -0.41600000000000004 0.305 -0.422 Q 0.316 -0.428 0.33 -0.434 Q 0.34400000000000003 -0.44 0.3585 -0.4445 Q 0.373 -0.449 0.39 -0.452 Q 0.40700000000000003 -0.455 0.424 -0.455 Z"/></g><g transform="translate(8.61174074074074,-0.4722222222222223)"><path fill="rgb(51,51,255)" stroke="none" paint-order="stroke fill markers" d=" M 0.461 -0.219 L 0.151 -0.219 Q 0.148 -0.20600000000000002 0.148 -0.182 Q 0.148 -0.122 0.1795 -0.08600000000000001 Q 0.211 -0.05 0.262 -0.05 Q 0.34800000000000003 -0.05 0.426 -0.106 Q 0.425 -0.099 0.4225 -0.0735 Q 0.42 -0.048 0.419 -0.041 Q 0.338 0.011 0.249 0.011 Q 0.171 0.011 0.124 -0.0405 Q 0.077 -0.092 0.077 -0.171 Q 0.077 -0.281 0.1565 -0.371 Q 0.23600000000000002 -0.461 0.333 -0.461 Q 0.403 -0.461 0.439 -0.417 Q 0.47100000000000003 -0.377 0.47100000000000003 -0.307 Q 0.47100000000000003 -0.262 0.461 -0.219 M 0.168 -0.274 L 0.41600000000000004 -0.274 Q 0.41600000000000004 -0.4 0.321 -0.4 Q 0.278 -0.4 0.23600000000000002 -0.366 Q 0.194 -0.332 0.168 -0.274 Z"/></g><g transform="translate(9.401518518518518,-0.4722222222222223)"><path fill="rgb(51,51,255)" stroke="none" paint-order="stroke fill markers" d=" M 0.274 -0.444 L 0.257 -0.361 L 0.17400000000000002 -0.361 L 0.191 -0.444 L 0.274 -0.444 M 0.097 0 L 0.115 -0.083 L 0.198 -0.083 L 0.18 0 L 0.097 0 Z"/></g><g transform="translate(9.982296296296298,-0.4722222222222223)"><path fill="rgb(51,51,255)" stroke="none" paint-order="stroke fill markers" d=" M 0.722 -0.681 L 0.6900000000000001 -0.6 L 0.6890000000000001 -0.6 Q 0.624 -0.652 0.531 -0.652 Q 0.452 -0.652 0.38 -0.596 Q 0.308 -0.54 0.2645 -0.45 Q 0.221 -0.36 0.221 -0.264 Q 0.221 -0.17200000000000001 0.267 -0.107 Q 0.313 -0.042 0.405 -0.042 Q 0.466 -0.042 0.506 -0.055 Q 0.546 -0.068 0.604 -0.10300000000000001 L 0.595 -0.034 Q 0.534 0.001 0.4895 0.0115 Q 0.445 0.022 0.391 0.022 Q 0.265 0.022 0.198 -0.061 Q 0.131 -0.14400000000000002 0.131 -0.259 Q 0.131 -0.37 0.1875 -0.47600000000000003 Q 0.244 -0.582 0.341 -0.649 Q 0.438 -0.716 0.546 -0.716 Q 0.635 -0.716 0.722 -0.681 Z"/></g><g transform="translate(10.621296296296297,-0.3222222222222223) scale(0.7,0.7)"><path fill="rgb(51,51,255)" stroke="none" paint-order="stroke fill markers" d=" M 0.47700000000000004 -0.396 L 0.139 -0.061 L 0.231 -0.061 Q 0.23700000000000002 -0.061 0.249 -0.0615 Q 0.261 -0.062 0.267 -0.062 L 0.41500000000000004 -0.062 L 0.402 0 L 0.028 0 Q 0.031 -0.021 0.035 -0.031 Q 0.038 -0.043000000000000003 0.049 -0.053 L 0.384 -0.386 L 0.3 -0.386 Q 0.294 -0.386 0.28200000000000003 -0.3855 Q 0.27 -0.385 0.264 -0.385 L 0.124 -0.385 L 0.136 -0.444 L 0.494 -0.444 L 0.489 -0.41600000000000004 Q 0.486 -0.405 0.47700000000000004 -0.396 Z"/></g><g transform="translate(11.265174074074077,-0.4722222222222223)"><path fill="rgb(51,51,255)" stroke="none" paint-order="stroke fill markers" d=" M 0.762 -0.33 L 0.164 -0.33 Q 0.131 -0.33 0.131 -0.35000000000000003 Q 0.131 -0.37 0.164 -0.37 L 0.762 -0.37 Q 0.795 -0.37 0.795 -0.35000000000000003 Q 0.795 -0.33 0.762 -0.33 M 0.719 -0.13 L 0.121 -0.13 Q 0.088 -0.13 0.088 -0.15 Q 0.088 -0.17 0.121 -0.17 L 0.719 -0.17 Q 0.753 -0.17 0.753 -0.15 Q 0.753 -0.13 0.719 -0.13 Z"/></g><g transform="translate(12.371951851851856,-0.4722222222222223)"><path fill="rgb(51,51,255)" stroke="none" paint-order="stroke fill markers" d=" M 0.258 -0.386 L 0.176 0 L 0.101 0 L 0.183 -0.386 L 0.109 -0.386 L 0.121 -0.444 L 0.195 -0.444 L 0.216 -0.539 Q 0.231 -0.608 0.28750000000000003 -0.6565 Q 0.34400000000000003 -0.705 0.417 -0.705 Q 0.455 -0.705 0.494 -0.6940000000000001 L 0.48 -0.627 Q 0.445 -0.644 0.403 -0.644 Q 0.363 -0.644 0.3315 -0.6235 Q 0.3 -0.603 0.293 -0.5670000000000001 L 0.267 -0.444 L 0.38 -0.444 L 0.368 -0.386 L 0.258 -0.386 Z"/></g><g transform="translate(12.894951851851856,-0.4722222222222223)"><path fill="rgb(51,51,255)" stroke="none" paint-order="stroke fill markers" d=" M 0.43 -0.75 L 0.491 -0.75 Q 0.453 -0.717 0.4285 -0.6930000000000001 Q 0.404 -0.669 0.36 -0.6085 Q 0.316 -0.548 0.28500000000000003 -0.47900000000000004 Q 0.187 -0.264 0.187 -0.047 Q 0.187 0.138 0.279 0.25 L 0.218 0.25 Q 0.111 0.133 0.111 -0.064 Q 0.111 -0.129 0.1245 -0.20750000000000002 Q 0.138 -0.28600000000000003 0.17 -0.3855 Q 0.202 -0.485 0.2695 -0.583 Q 0.337 -0.681 0.43 -0.75 Z"/></g><g transform="translate(13.415951851851856,-0.4722222222222223)"><path fill="rgb(51,51,255)" stroke="none" paint-order="stroke fill markers" d=" M 0.722 -0.681 L 0.6900000000000001 -0.6 L 0.6890000000000001 -0.6 Q 0.624 -0.652 0.531 -0.652 Q 0.452 -0.652 0.38 -0.596 Q 0.308 -0.54 0.2645 -0.45 Q 0.221 -0.36 0.221 -0.264 Q 0.221 -0.17200000000000001 0.267 -0.107 Q 0.313 -0.042 0.405 -0.042 Q 0.466 -0.042 0.506 -0.055 Q 0.546 -0.068 0.604 -0.10300000000000001 L 0.595 -0.034 Q 0.534 0.001 0.4895 0.0115 Q 0.445 0.022 0.391 0.022 Q 0.265 0.022 0.198 -0.061 Q 0.131 -0.14400000000000002 0.131 -0.259 Q 0.131 -0.37 0.1875 -0.47600000000000003 Q 0.244 -0.582 0.341 -0.649 Q 0.438 -0.716 0.546 -0.716 Q 0.635 -0.716 0.722 -0.681 Z"/></g><g transform="translate(14.054951851851856,-0.3222222222222223) scale(0.7,0.7)"><path fill="rgb(51,51,255)" stroke="none" paint-order="stroke fill markers" d=" M 0.309 -0.229 L 0.46 0 L 0.377 0 L 0.267 -0.188 L 0.082 0 L 0 0 L 0.243 -0.229 L 0.1 -0.444 L 0.183 -0.444 L 0.28700000000000003 -0.279 L 0.455 -0.444 L 0.538 -0.444 L 0.309 -0.229 Z"/></g><g transform="translate(14.442051851851856,-0.4722222222222223)"><path fill="rgb(51,51,255)" stroke="none" paint-order="stroke fill markers" d=" M 0.215 -0.75 L 0.276 -0.75 Q 0.383 -0.636 0.383 -0.436 Q 0.383 -0.218 0.277 -0.006 Q 0.20400000000000001 0.14100000000000001 0.064 0.25 L 0.003 0.25 Q 0.089 0.18 0.1515 0.0815 Q 0.214 -0.017 0.2425 -0.098 Q 0.271 -0.179 0.28750000000000003 -0.2695 Q 0.304 -0.36 0.306 -0.394 Q 0.308 -0.428 0.308 -0.453 Q 0.308 -0.637 0.215 -0.75 Z"/></g></g></g></g></svg>