<svg xmlns="http://www.w3.org/2000/svg" width="360" height="361.5" font-family="Nimbus Sans L,Ubuntu,Liberation Sans,Helvetica,Arial,sans-serif" font-size="34.667" text-anchor="middle">
  <path d="M356.429 179.355a176.432 176.432 0 1 1-352.864 0 176.432 176.432 0 1 1 352.864 0"/>
  <path fill="#fbe90a" d="M21.75 133.16c-4.278 14.661-6.562 30.151-6.562 46.188 0 49.125 21.524 93.266 55.656 123.47l14.219-15.094c-30.124-26.418-49.156-65.19-49.156-108.38 0-14.063 2.02-27.648 5.78-40.5l-19.937-5.687z"/>
  <path fill="#01873c" d="m315.28 85.25-16.938 11.938c16.227 23.316 25.75 51.617 25.75 82.156 0 79.545-64.549 144.12-144.09 144.12-36.297 0-69.466-13.45-94.812-35.625l-13.469 15.75c28.966 25.271 66.851 40.562 108.28 40.562 90.976 0 164.81-73.836 164.81-164.81 0-34.98-10.923-67.405-29.531-94.094z"/>
  <path fill="none" stroke="#fff" stroke-width="2" d="M23.2 131.86C43.574 64.58 106.097 15.56 180 15.56c55.406 0 104.41 27.554 134.06 69.698"/>
  <g fill="#fff">
    <text x="229.896" y="85.131">40</text>
    <text x="261.563" y="119.677">60</text>
    <text x="282.538" y="170.674">80</text>
    <text x="274.312" y="231.541">100</text>
    <text x="243.468" y="280.07">120</text>
    <text x="182.601" y="296.932">140</text>
    <text x="119.677" y="280.892">160</text>
    <text x="84.309" y="237.299">180</text>
    <text x="81.019" y="179.311">200</text>
    <text x="95.002" y="127.491">220</text>
    <text x="139.007" y="87.599">240</text>
  </g>
  <path fill="#fff" d="m200.75 184.72-11.188 13.125 21.107 17.219c6.528 5.752 58.395 40.825 66.531 40.656.738-7.34-46.133-46.933-54.438-53.031z"/>
  <path fill="none" stroke="#fff" stroke-width="2" d="M277.2 255.72c.738-7.34-46.133-46.933-54.438-53.031l-29.888-24.406c-.544-6.61-6.063-11.812-12.812-11.812-.499 0-.985.038-1.469.094l-19.78-16.188c-.72-6.43-6.16-11.438-12.782-11.438-7.11 0-12.875 5.765-12.875 12.875s5.766 12.906 12.875 12.906c.924 0 1.82-.128 2.688-.313l18.469 15.125c.101 7.022 5.829 12.688 12.875 12.688q1.218 0 2.375-.219l28.232 23.062c6.528 5.753 58.395 40.826 66.53 40.657z"/>
  <path fill="#fff" d="M181.828 179.352a1.768 1.768 0 1 1-3.536 0 1.768 1.768 0 1 1 3.536 0"/>
  <path fill="none" stroke="#ff0101" stroke-width="6" d="m55.417 143.12-33.749-9.758"/>
  <path fill="none" stroke="#fff" stroke-width="3" d="m118.36 58.368-13.121-25.757M89.131 78.519 69.815 57.082m-4.075 48.947L41.394 90.403m10.368 44.326-27.282-9.495m20.73 37.55-28.689-3.527m29.28 40.532-28.562 4.349m39.368 31.91-26.25 12.061m47.516 20.676-21.74 19.039m49.984 5.498-15.695 24.213m48.68-8.586-8.705 27.587m46.849-21.437-.585 28.905m40.863-34.128 7.989 27.782m29.965-45.353 16.06 24.031m14.336-51.936 22.529 18.095m-2.381-52.501 26.814 10.773m-17.626-48.343 28.812 2.784m-30.84-42.827 28.348-5.741m-40.337-28.45 25.817-13.029m-46.312-16.782 21.429-19.359m-41.799.944 17.097-23.28m-58.984 2.41 8.191-27.754m11.038 35.127 12.28-26.163m3.374 25.162 10.528-17.787m11.683 34.002 13.725-15.468m8.911 40.871 17.005-11.838m.455 45.846 19.502-6.94m-11.505 45.807 20.657-1.351m-24.307 44.47 20.097 4.842m-35.356 33.383 17.914 10.333m-43.94 22.497 14.19 15.062m-50.511 9.893 8.969 18.653m-50.478-5.97 3.003 20.495m-46.855-20.785-3.3 20.408m-68.633-54.324L71.425 303.13m-12.16-45.306-17.368 11.29M41.813 220l-19.873 5.845m13.974-46.488H15.197m35.812-63.89-18.534-9.18m37.19-19.508L53.812 73.477m43.916-12.314L85.917 44.194m45.384-.28-7.01-19.497m-7.07 284.49-9.026 18.625m34.517-308.89 6.598 28.441m81.586-2.529 7.244-19.184"/>
  <path fill="#fff" d="m286.84 82.688-10.938 9.906c20.776 22.95 33.438 53.378 33.438 86.75 0 16.938-3.26 33.14-9.187 47.97l13.687 5.468c6.606-16.523 10.25-34.566 10.25-53.438 0-37.183-14.1-71.086-37.25-96.656"/>
</svg>
