<?xml version="1.0" encoding="UTF-8" standalone="no"?>
<!-- Created with Inkscape (http://www.inkscape.org/) -->

<svg
   version="1.0"
   width="274"
   height="201"
   id="svg2"
   sodipodi:docname="Front_froid.svg"
   inkscape:export-filename="Front_froid.pdf"
   inkscape:export-xdpi="96"
   inkscape:export-ydpi="96"
   inkscape:version="1.4.3 (0d15f75, 2025-12-25)"
   xmlns:inkscape="http://www.inkscape.org/namespaces/inkscape"
   xmlns:sodipodi="http://sodipodi.sourceforge.net/DTD/sodipodi-0.dtd"
   xmlns:xlink="http://www.w3.org/1999/xlink"
   xmlns="http://www.w3.org/2000/svg"
   xmlns:svg="http://www.w3.org/2000/svg">
  <sodipodi:namedview
     id="namedview1"
     pagecolor="#ffffff"
     bordercolor="#000000"
     borderopacity="0.25"
     inkscape:showpageshadow="2"
     inkscape:pageopacity="0.0"
     inkscape:pagecheckerboard="0"
     inkscape:deskcolor="#d1d1d1"
     inkscape:zoom="7.1273549"
     inkscape:cx="201.33696"
     inkscape:cy="143.60166"
     inkscape:window-width="2240"
     inkscape:window-height="1294"
     inkscape:window-x="-11"
     inkscape:window-y="-11"
     inkscape:window-maximized="1"
     inkscape:current-layer="svg2" />
  <defs
     id="defs4">
    <linearGradient
       id="linearGradient2">
      <stop
         style="stop-color:#7e010d;stop-opacity:1;"
         offset="0"
         id="stop1" />
      <stop
         style="stop-color:#ff0600;stop-opacity:1;"
         offset="1"
         id="stop2" />
    </linearGradient>
    <linearGradient
       id="linearGradient6506">
      <stop
         style="stop-color:#5b5b5b;stop-opacity:1"
         offset="0"
         id="stop6508" />
      <stop
         style="stop-color:white;stop-opacity:0.75789475"
         offset="1"
         id="stop6510" />
    </linearGradient>
    <linearGradient
       id="linearGradient3782">
      <stop
         style="stop-color:#122d9f;stop-opacity:0.36491227"
         offset="0"
         id="stop3784" />
      <stop
         style="stop-color:#122d9f;stop-opacity:1"
         offset="1"
         id="stop3786" />
    </linearGradient>
    <linearGradient
       id="linearGradient3766">
      <stop
         style="stop-color:#2543c5;stop-opacity:0.30175439"
         offset="0"
         id="stop3768" />
      <stop
         style="stop-color:#2543c5;stop-opacity:0.89473683"
         offset="1"
         id="stop3770" />
    </linearGradient>
    <linearGradient
       id="linearGradient3758">
      <stop
         style="stop-color:#0d69c5;stop-opacity:1"
         offset="0"
         id="stop3760" />
      <stop
         style="stop-color:#0d39c5;stop-opacity:1"
         offset="1"
         id="stop3762" />
    </linearGradient>
    <linearGradient
       id="linearGradient3752">
      <stop
         style="stop-color:#1891ff;stop-opacity:1"
         offset="0"
         id="stop3754" />
      <stop
         style="stop-color:#002588;stop-opacity:1"
         offset="1"
         id="stop3756" />
    </linearGradient>
    <linearGradient
       id="linearGradient3732">
      <stop
         style="stop-color:#72e072;stop-opacity:1"
         offset="0"
         id="stop3734" />
      <stop
         style="stop-color:#007d00;stop-opacity:1"
         offset="1"
         id="stop3736" />
    </linearGradient>
    <linearGradient
       x1="400.52744"
       y1="531.81799"
       x2="444.84085"
       y2="560.48108"
       id="linearGradient3738"
       xlink:href="#linearGradient3732"
       gradientUnits="userSpaceOnUse"
       gradientTransform="translate(-284.3579,3.030458)" />
    <radialGradient
       cx="0.17303854"
       cy="471.16833"
       r="107.5"
       fx="0.17303854"
       fy="471.16833"
       id="radialGradient3801"
       xlink:href="#linearGradient3766"
       gradientUnits="userSpaceOnUse"
       gradientTransform="matrix(1.465116,0,0,1.229173,12.39117,-100.1008)" />
    <radialGradient
       cx="4.528615"
       cy="539.32648"
       r="51.616074"
       fx="4.528615"
       fy="539.32648"
       id="radialGradient3804"
       xlink:href="#linearGradient3782"
       gradientUnits="userSpaceOnUse"
       gradientTransform="matrix(1.655612,0,0,1.3347,-3.576154,-180.5124)" />
    <linearGradient
       x1="392.97903"
       y1="536.17108"
       x2="392.81799"
       y2="494.67719"
       id="linearGradient6546"
       xlink:href="#linearGradient6506"
       gradientUnits="userSpaceOnUse"
       gradientTransform="translate(-289.9138,0)" />
    <radialGradient
       cx="4.528615"
       cy="539.32648"
       r="51.616074"
       fx="4.528615"
       fy="539.32648"
       id="radialGradient7471"
       xlink:href="#linearGradient3782"
       gradientUnits="userSpaceOnUse"
       gradientTransform="matrix(1.6599596,0,0,1.3338912,44.232985,-599.99651)" />
    <radialGradient
       cx="0.17303854"
       cy="471.16833"
       r="107.5"
       fx="0.17303854"
       fy="471.16833"
       id="radialGradient7473"
       xlink:href="#linearGradient3766"
       gradientUnits="userSpaceOnUse"
       gradientTransform="matrix(1.4689634,0,0,1.2284281,60.242239,-519.63364)" />
    <linearGradient
       x1="400.52744"
       y1="531.81799"
       x2="444.84085"
       y2="560.48108"
       id="linearGradient7475"
       xlink:href="#linearGradient2"
       gradientUnits="userSpaceOnUse"
       gradientTransform="matrix(1.002626,0,0,0.999394,-237.28609,-416.56488)" />
    <linearGradient
       x1="392.97903"
       y1="536.17108"
       x2="392.81799"
       y2="494.67719"
       id="linearGradient7477"
       xlink:href="#linearGradient6506"
       gradientUnits="userSpaceOnUse"
       gradientTransform="translate(-289.9138)" />
  </defs>
  <path
     d="M 0.75065348,138.50168 164.03547,188.47138 v 11.77858 L 0.75065348,150.28026 Z"
     style="fill:#8b5811;fill-opacity:1;fill-rule:nonzero;stroke:#000000;stroke-width:1.5;stroke-linecap:butt;stroke-linejoin:bevel;stroke-miterlimit:3;stroke-dasharray:none;stroke-dashoffset:0;stroke-opacity:1"
     id="rect2824" />
  <path
     d="m 273.25008,132.43393 -109.21462,56.03745 v 11.77858 l 109.21462,-56.03745 z"
     style="fill:#8b5811;fill-opacity:1;fill-rule:nonzero;stroke:#000000;stroke-width:1.5;stroke-linecap:butt;stroke-linejoin:bevel;stroke-miterlimit:3;stroke-dasharray:none;stroke-dashoffset:0;stroke-opacity:1"
     id="path2827" />
  <path
     d="M 164.03547,188.4714 1.1982558,138.85862 111.93472,82.910408 272.80248,132.70165 Z"
     style="fill:#207f1a;fill-opacity:1;fill-rule:evenodd;stroke:#000000;stroke-width:1px;stroke-linecap:butt;stroke-linejoin:bevel;stroke-opacity:1"
     id="path2829" />
  <path
     d="m 72.252455,99.598399 26.712744,9.969201 5.823621,-4.16435 11.90046,17.41457 -38.106795,0.50477 7.342851,-4.79531 -27.345751,-12.24069 z"
     style="fill:#a5cff2;fill-opacity:1;fill-rule:evenodd;stroke:#00254c;stroke-width:1px;stroke-linecap:butt;stroke-linejoin:miter;stroke-opacity:1"
     id="path3740" />
  <path
     d="M 0.49999698,68.722581 C 51.70554,82.64271 102.28444,135.82475 103.00061,170.08969 L 0.49999698,138.94786 Z"
     style="fill:url(#radialGradient7471);fill-opacity:1;fill-rule:evenodd;stroke:#010a59;stroke-width:1px;stroke-linecap:butt;stroke-linejoin:bevel;stroke-opacity:1"
     id="path2831" />
  <path
     d="M 107.19462,18.265996 1.1982558,68.766624 C 52.264013,82.697347 102.70026,135.61081 103.62277,169.86157 l 112.13745,-54.9979 c 0,-56.213361 -108.5656,-96.597674 -108.5656,-96.597674 z m -3.97917,151.689274 0.0627,0.0625 0.0627,-0.0312 z"
     style="fill:url(#radialGradient7473);fill-opacity:1;fill-rule:evenodd;stroke:#010a59;stroke-width:1px;stroke-linecap:butt;stroke-linejoin:bevel;stroke-opacity:1"
     id="path2835" />
  <path
     d="m 215.18459,138.84428 -11.52065,7.31917 c -8.60885,0.1262 -22.78813,-4.92151 -28.10535,-8.07633 l -4.93742,2.52385 c -4.05123,-6.8144 -5.82364,-26.50043 -5.82364,-26.50043 0,0 16.07828,13.69189 29.18145,14.89072 l -5.88693,2.77624 c 5.06403,2.27146 18.48369,6.18344 27.09254,7.06678 z"
     style="fill:url(#linearGradient7475);fill-opacity:1;fill-rule:evenodd;stroke:#ff0000;stroke-width:1px;stroke-linecap:butt;stroke-linejoin:round;stroke-opacity:1"
     id="path2845" />
  <g
     id="g6548"
     transform="matrix(1.002626,0,0,0.999394,47.81853,-419.5935)">
    <path
       d="m 59.72525,513.06699 c -0.55242,-2.90419 -0.4374,-4.65863 0.12627,-7.70241 0.63135,-3.40927 3.44083,-6.97637 6.9448,-8.20749 -2.17814,-2.36755 -3.91434,-3.53292 -3.91434,-6.06092 0,-2.78054 0.5682,-3.78807 2.0203,-5.93464 -3.09359,-3.15672 -7.70241,-4.16688 -7.82868,-13.25825 -0.12627,-9.09137 5.52427,-11.71146 9.21764,-14.89975 -2.87262,-3.9459 -3.03046,-3.6618 -3.03046,-8.46003 0,-4.79823 2.96647,-9.02739 5.30331,-11.36422 2.39912,-2.39911 6.02935,-3.94591 10.6066,-2.65165 -0.72605,-2.62008 0.88388,-13.38452 10.85914,-14.14213 4.98762,-0.37881 3.83401,2.25705 7.0395,2.25705 1.92721,0 4.44932,-1.49944 9.2492,-1.49944 4.67366,0 9.05982,5.36644 10.98542,9.97526 1.9256,-2.96733 2.90419,-6.18719 6.81853,-7.70242 3.91434,-1.51523 7.57614,-1.26269 10.6066,1.38896 3.03046,2.65165 5.17703,5.55418 5.17703,10.35407 0,4.92611 -0.88389,8.71256 -2.65165,11.99556 -1.71529,3.18554 -3.12516,4.35628 -5.93465,6.56599 2.74635,1.32583 7.97953,5.00897 8.83884,8.96511 0.85322,3.92811 0.68516,6.06975 -2.52538,10.73286 1.18439,2.68924 2.04993,6.5152 2.0203,9.97526 -0.25254,3.283 -0.63134,5.11389 -2.90419,8.20749 5.09534,1.72131 7.75861,3.17912 7.82868,9.47018 0.0447,5.08654 -2.87158,6.87648 -7.19733,9.72272 7.59485,3.48895 8.9651,5.82929 8.9651,8.20749 0,2.75693 -0.3788,5.55584 -5.05076,8.08122 -4.67196,2.52538 -20.70813,8.71255 -38.00699,8.58629 -17.29886,-0.12627 -20.96067,-0.88387 -28.78935,-1.89403 -7.84569,-1.01236 -18.81409,-5.93464 -20.45559,-7.70241 -1.57962,-1.70113 -2.76703,-5.83768 -1.38896,-8.5863 1.40251,-2.79736 3.83841,-3.12167 7.07107,-4.41942 z"
       style="fill:url(#linearGradient7477);fill-opacity:1;fill-rule:evenodd;stroke:#000000;stroke-width:0.998992px;stroke-linecap:butt;stroke-linejoin:round;stroke-opacity:1"
       id="path3824" />
    <path
       d="m 111.87438,443.80841 c 0,0 0.2518,-5.17703 6.37658,-5.17703 6.18791,0 7.00794,5.05076 7.00794,5.05076"
       style="fill:none;fill-opacity:0.75;fill-rule:evenodd;stroke:#000000;stroke-width:0.998992px;stroke-linecap:butt;stroke-linejoin:miter;stroke-opacity:1"
       id="path3826" />
    <path
       d="m 88.00952,438.88391 c -0.1894,-4.04061 2.99873,-7.38674 6.06092,-7.38674 3.12532,0 4.92449,4.23002 4.92449,4.23002 0,0 1.98633,-4.23002 5.61897,-4.23002 3.56982,0 5.17704,4.54569 4.54569,6.9448"
       style="fill:none;fill-opacity:0.75;fill-rule:evenodd;stroke:#000000;stroke-width:0.998992px;stroke-linecap:butt;stroke-linejoin:miter;stroke-opacity:1"
       id="path3828" />
    <path
       d="m 79.48636,463.31698 c -3.09359,-4.04061 2.97001,-9.15451 9.91212,-9.15451 7.06814,0 10.33006,3.65981 10.03839,7.76555 2.52538,-2.58852 5.39799,-3.21986 8.96511,-3.21986 3.44085,0 7.44987,1.01015 9.02823,2.96732"
       style="fill:none;fill-opacity:0.75;fill-rule:evenodd;stroke:#000000;stroke-width:0.998992px;stroke-linecap:butt;stroke-linejoin:round;stroke-opacity:1"
       id="path3830" />
    <path
       d="m 131.76175,453.97307 c 0,0 -2.9508,-1.38896 -7.19733,-1.38896 -4.24583,0 -10.79601,3.40926 -11.55362,6.75539"
       style="fill:none;fill-opacity:0.75;fill-rule:evenodd;stroke:#000000;stroke-width:0.998992px;stroke-linecap:butt;stroke-linejoin:miter;stroke-opacity:1"
       id="path4717" />
    <path
       d="m 69.82678,478.09046 c 0.56821,1.13642 3.96169,3.0936 7.1342,3.03046 3.17251,-0.0631 4.41942,-1.70464 5.55584,-3.283"
       style="fill:none;fill-opacity:0.75;fill-rule:evenodd;stroke:#000000;stroke-width:0.998992px;stroke-linecap:butt;stroke-linejoin:miter;stroke-opacity:1"
       id="path4719" />
    <path
       d="m 98.48985,478.97434 c 2.96732,2.39911 -0.63083,7.38674 -4.48255,7.38674 -3.72547,0 -4.60882,-1.83089 -3.59867,-5.11389"
       style="fill:none;fill-opacity:0.75;fill-rule:evenodd;stroke:#000000;stroke-width:0.998992px;stroke-linecap:butt;stroke-linejoin:miter;stroke-opacity:1"
       id="path4721" />
    <path
       d="m 90.09296,483.07809 c -1.04172,0.78918 -3.0857,1.28636 -5.42957,0.85231 -2.31335,-0.4284 -3.9459,-2.74635 -4.19844,-3.8512"
       style="fill:none;fill-opacity:0.75;fill-rule:evenodd;stroke:#000000;stroke-width:0.998992px;stroke-linecap:butt;stroke-linejoin:miter;stroke-opacity:1"
       id="path4723" />
    <path
       d="m 72.85723,498.23038 c 2.02031,2.84105 5.68189,3.53553 10.60661,3.53553 4.92573,0 10.35406,-2.20971 11.86929,-5.61897"
       style="fill:none;fill-opacity:0.75;fill-rule:evenodd;stroke:#000000;stroke-width:0.998992px;stroke-linecap:butt;stroke-linejoin:miter;stroke-opacity:1"
       id="path4725" />
    <path
       d="m 91.35565,499.80874 c 0.56821,1.76777 4.10375,4.70352 8.5863,4.73509 4.48255,0.0316 9.34391,-4.60882 9.34391,-4.60882"
       style="fill:none;fill-opacity:0.75;fill-rule:evenodd;stroke:#000000;stroke-width:0.998992px;stroke-linecap:butt;stroke-linejoin:miter;stroke-opacity:1"
       id="path4727" />
    <path
       d="m 105.18212,503.0286 c 0,0 2.52473,3.4724 7.3236,3.4724 4.862,0 9.90132,-3.0375 11.67989,-5.1139 1.83091,-2.1375 2.02031,-5.80838 -1.13642,-6.69226"
       style="fill:none;fill-opacity:0.75;fill-rule:evenodd;stroke:#000000;stroke-width:0.998992px;stroke-linecap:butt;stroke-linejoin:miter;stroke-opacity:1"
       id="path4729" />
    <path
       d="m 137.66483,510.66788 c 0,0 -3.74771,1.95717 -9.24921,1.51523 -5.49681,-0.44157 -11.30108,-1.89404 -13.25825,-5.99778"
       style="fill:none;fill-opacity:0.75;fill-rule:evenodd;stroke:#000000;stroke-width:0.998992px;stroke-linecap:butt;stroke-linejoin:miter;stroke-opacity:1"
       id="path5616" />
    <path
       d="m 59.72525,512.94072 c 0.75761,2.27284 4.32471,4.19845 9.91212,3.97748 5.58741,-0.22097 9.84899,-0.25254 12.43751,-4.86136"
       style="fill:none;fill-opacity:0.75;fill-rule:evenodd;stroke:#000000;stroke-width:0.998992px;stroke-linecap:butt;stroke-linejoin:miter;stroke-opacity:1"
       id="path5618" />
  </g>
</svg>
