<?xml version="1.0" encoding="UTF-8" standalone="no"?>
<!-- Generator: Adobe Illustrator 13.0.0, SVG Export Plug-In . SVG Version: 6.00 Build 14948)  -->

<svg
   version="1.1"
   x="0px"
   y="0px"
   width="238px"
   height="197px"
   viewBox="0 0 238 197"
   enable-background="new 0 0 238 197"
   xml:space="preserve"
   id="svg41"
   sodipodi:docname="Warmfront_no_language.svg"
   inkscape:export-filename="Warmfront_no_language.pdf"
   inkscape:export-xdpi="96"
   inkscape:export-ydpi="96"
   inkscape:version="1.4.3 (0d15f75, 2025-12-25)"
   xmlns:inkscape="http://www.inkscape.org/namespaces/inkscape"
   xmlns:sodipodi="http://sodipodi.sourceforge.net/DTD/sodipodi-0.dtd"
   xmlns="http://www.w3.org/2000/svg"
   xmlns:svg="http://www.w3.org/2000/svg"><defs
   id="defs41">
	
	
	
	<linearGradient
   id="SVGID_2_"
   gradientUnits="userSpaceOnUse"
   x1="126.3301"
   y1="133.7656"
   x2="141.7235"
   y2="86.3897">
		<stop
   offset="0"
   style="stop-color: rgb(231, 143, 20);"
   id="stop7" />
		<stop
   offset="1"
   style="stop-color: rgb(252, 217, 186);"
   id="stop8" />
	</linearGradient>
	
	
	
	
</defs><sodipodi:namedview
   id="namedview41"
   pagecolor="#ffffff"
   bordercolor="#000000"
   borderopacity="0.25"
   inkscape:showpageshadow="2"
   inkscape:pageopacity="0.0"
   inkscape:pagecheckerboard="0"
   inkscape:deskcolor="#d1d1d1"
   inkscape:zoom="3.6360364"
   inkscape:cx="127.88651"
   inkscape:cy="109.59736"
   inkscape:window-width="2240"
   inkscape:window-height="1294"
   inkscape:window-x="-11"
   inkscape:window-y="-11"
   inkscape:window-maximized="1"
   inkscape:current-layer="svg41" />
<filter
   id="AI_GaußscherWeichzeichner_1.5"
   x="-0.12176148"
   y="-0.25411167"
   width="1.243523"
   height="1.5082233">
	<feGaussianBlur
   stdDeviation="1.5"
   id="feGaussianBlur1" />
</filter>
<filter
   id="AI_GaußscherWeichzeichner_1"
   x="-0.022683113"
   y="-0.035730072"
   width="1.0453662"
   height="1.0714612">
	<feGaussianBlur
   stdDeviation="1"
   id="feGaussianBlur2" />
</filter>
<g
   id="Ebene_3">
	<polygon
   fill="#4A341C"
   stroke="#000000"
   stroke-width="1.5"
   stroke-linecap="round"
   stroke-linejoin="round"
   points="220.833,130.5 142.167,170.5 142.167,178.283 220.833,138.283"
   id="polygon2" />
	<polygon
   fill="#814B13"
   stroke="#000000"
   stroke-width="1.5"
   stroke-linecap="round"
   stroke-linejoin="round"
   points="25.383,142.116 142.167,178.283 142.167,170.5 25.383,134.333"
   id="polygon3" />
	<linearGradient
   id="SVGID_1_"
   gradientUnits="userSpaceOnUse"
   x1="25.3828"
   y1="132.167"
   x2="220.833"
   y2="132.167">
		<stop
   offset="0"
   style="stop-color: rgb(32, 141, 47);"
   id="stop3" />
		<stop
   offset="1"
   style="stop-color: rgb(4, 80, 47);"
   id="stop4" />
	</linearGradient>
	<polygon
   fill="url(#SVGID_1_)"
   stroke="#000000"
   stroke-width="1.5"
   stroke-linecap="round"
   stroke-linejoin="round"
   points="25.383,134.333 142.167,170.5 220.833,130.5 105.167,93.833"
   id="polygon4" />
</g>
<polygon
   opacity="0.7"
   fill="#e74c14"
   points="220.283,129.167 163.85,157.834 220.283,98.5 "
   id="polygon5" /><g
   filter="url(#AI_Gau%C3%9FscherWeichzeichner_1.5)"
   id="g6">
		<polygon
   points="164.833,128.5 171.5,130.667 169.167,120.5 147.5,122.5 152.283,124 141.934,130.167 154.5,134.667 "
   id="polygon6" />
	</g><polygon
   fill="#ff00cc"
   stroke="#000000"
   points="164.833,121.5 171.5,123.667 169.167,113.5 147.5,115.5 152.283,117 141.934,123.167 154.5,127.667 "
   id="polygon7" /><polygon
   opacity="0.6"
   fill="url(#SVGID_2_)"
   points="220.283,98.5 105.333,61.167 47.333,123 163.85,157.834 "
   id="polygon8"
   style="fill:url(#SVGID_2_)" /><g
   id="g10">
		<polygon
   fill="none"
   stroke="#f49260"
   stroke-width="1.5"
   stroke-linecap="round"
   stroke-linejoin="round"
   points="220.283,129.167 163.85,157.834 220.283,98.5 "
   id="polygon9" />
		<polygon
   fill="none"
   stroke="#f49260"
   stroke-width="1.5"
   stroke-linecap="round"
   stroke-linejoin="round"
   points="220.283,98.5 105.333,61.167 47.333,123 163.85,157.834 "
   id="polygon10" />
	</g><g
   opacity="0.75"
   filter="url(#AI_Gau%C3%9FscherWeichzeichner_1.5)"
   id="g11">
		<path
   d="m 79,147.334 12.667,5.167 22.5,-12.667 7,2.667 c 0,0 2.833,-7.834 3,-11.334 0.151,-3.167 -0.333,-9 -0.333,-9 0,0 -6.5,3.667 -14.667,6.667 -8.167,3 -14.167,4.5 -14.167,4.5 l 5.284,2.217 z"
   id="path10" />
	</g><path
   fill="#32cb3c"
   stroke="#000000"
   d="m 79,140.667 12.667,5.167 22.5,-12.667 7,2.667 c 0,0 2.833,-7.834 3,-11.334 0.151,-3.167 -0.333,-9 -0.333,-9 0,0 -6.5,3.667 -14.667,6.667 -8.167,3 -14.167,4.5 -14.167,4.5 l 5.284,2.217 z"
   id="path11"
   style="fill:#1546ff;fill-opacity:1;stroke:#000080;stroke-opacity:1" />
<g
   id="Ebene_2">
	<path
   fill="#FFFFFF"
   stroke="#6F6F6F"
   stroke-width="0.5"
   stroke-linecap="round"
   stroke-linejoin="round"
   d="M202,54.5   c0,0,0.666,2.5-0.667,3.667s-3.5,1.167-3.5,1.167s-0.279,2.279-1.333,3.333c-1.166,1.167-3.167,2-3.167,2s1.5,2.333,1.5,4   c0,3.271-5.596,6.167-8,6.167c-0.666,0-2.166-0.333-2.166-0.333s1.666,2.167,1.666,3.5c0,2.514-5.686,7.833-8.5,7.833   c-1.166,0-2.166-1.167-2.166-1.167s0.874,2.199-0.167,3.5c-1.333,1.667-4.333,2.167-4.333,2.167s1.666,1,1.666,2.167   c0,4.333-10.333,8.167-10.333,8.167s2,1.833,2,3.333c0,3.766-11.87,16.334-37,16.334c-15.379,0-39.5-3.305-39.5-13   c0-3,6.167-4.834,6.167-4.834s-2.333-3.333-2.333-4.833c0-3.5,4.333-5.833,4.333-5.833s-1.333-2.167-1.333-4.167   c0-5.5,6.167-7,6.167-7l0.103-0.079c-1.571-2.14-2.603-4.851-2.603-8.088c0-5.833,4.333-7.667,4.333-7.667S100,64,100,57.5   c0-8.126,5.167-11.333,5.167-11.333c-1-0.833-2.333-3.5-2.333-5.5c0-15.438,47.273-22.5,76.833-22.5c16.148,0,41,0.896,41,10.833   c0,2.087-0.489,3.808-1.587,5.072c0,0,0.419,1.762-0.747,2.928s-3,1.833-3,1.833s-0.5,2.333-1.5,3.333s-3,1.5-3,1.5   s0.334,2.334-1.166,3.667s-3,2-3,2s-0.5,2.333-1.5,3.333C204.317,53.517,202,54.5,202,54.5z"
   id="path12" />
	<g
   opacity="0.5"
   filter="url(#AI_GaußscherWeichzeichner_1)"
   id="g26">
		<path
   fill="none"
   stroke="#6F6F6F"
   stroke-width="0.5"
   stroke-linecap="round"
   stroke-linejoin="round"
   d="M217.988,35.362    c-1.302,1.822-2.258,1.989-5.988,1.989c-4.666,0-7-2.5-7-2.5s9,5.167-6.5,5.167c-11.333,0-9.833-4.167-9.833-4.167"
   id="path13" />
		<path
   fill="none"
   stroke="#6F6F6F"
   stroke-width="0.5"
   stroke-linecap="round"
   stroke-linejoin="round"
   d="M128.834,47.018    c0,0-2.5,3.667-12.167,3.667c-2.667,0-0.667-2.167-0.667-2.167s-1,2.5-5.333,2.5c-4.167,0-4.5-3.167-5.5-4"
   id="path14" />
		<path
   fill="none"
   stroke="#6F6F6F"
   stroke-width="0.5"
   stroke-linecap="round"
   stroke-linejoin="round"
   d="M101.161,81.517    c2.756,3.7,7.126,5.668,10.506,5.668c2,0,2.667-1.333,2.667-1.333s-1.667,3.333,10.333,3.333c7,0,9.166-2.333,9.166-2.333"
   id="path15" />
		<path
   fill="none"
   stroke="#6F6F6F"
   stroke-width="0.5"
   stroke-linecap="round"
   stroke-linejoin="round"
   d="M201.434,56.486    c0,0,0.066,1.865-3.601,1.865c-4.833,0-7-3.833-7-3.833"
   id="path16" />
		<path
   fill="none"
   stroke="#6F6F6F"
   stroke-width="0.5"
   stroke-linecap="round"
   stroke-linejoin="round"
   d="M184.667,75.351    c0,0-5.5,6.167-14.5,6.167c-4,0-4.167-2-4.167-2"
   id="path17" />
		<path
   fill="none"
   stroke="#6F6F6F"
   stroke-width="0.5"
   stroke-linecap="round"
   stroke-linejoin="round"
   d="M162.5,101.517    c0,0-0.333,4.5-9.833,4.5c-11,0-9.667-5.667-9.667-5.667"
   id="path18" />
		<path
   fill="none"
   stroke="#6F6F6F"
   stroke-width="0.5"
   stroke-linecap="round"
   stroke-linejoin="round"
   d="M145.25,104.537    c0,0-0.25,4.479-9.917,4.479c-8,0-9-3.167-9-3.167"
   id="path19" />
		<path
   fill="none"
   stroke="#6F6F6F"
   stroke-width="0.5"
   stroke-linecap="round"
   stroke-linejoin="round"
   d="M129,101.35    c0,0,0.167,6.167-9.333,6.167c-11.5,0-10-6.834-10-6.834"
   id="path20" />
		<path
   fill="none"
   stroke="#6F6F6F"
   stroke-width="0.5"
   stroke-linecap="round"
   stroke-linejoin="round"
   d="M158.833,84.685    c0,0-3.166,5.667-16.666,3.333"
   id="path21" />
		<path
   fill="none"
   stroke="#6F6F6F"
   stroke-width="0.5"
   stroke-linecap="round"
   stroke-linejoin="round"
   d="M105.5,67.185    c0,0,6.834,6,19.334,0.5"
   id="path22" />
		<path
   fill="none"
   stroke="#6F6F6F"
   stroke-width="0.5"
   stroke-linecap="round"
   stroke-linejoin="round"
   d="M140.167,60.351    c0,0,1.333,2.833,9.666,2.833c7,0,9.667-2.5,9.667-2.5s-7.5,4.5,8.333,4.5c5,0,9-2.333,9-2.333"
   id="path23" />
		<path
   fill="none"
   stroke="#6F6F6F"
   stroke-width="0.5"
   stroke-linecap="round"
   stroke-linejoin="round"
   d="M178.167,56.351    c0,0,8.021,2.646,14.521,0.313"
   id="path24" />
		<path
   fill="none"
   stroke="#6F6F6F"
   stroke-width="0.5"
   stroke-linecap="round"
   stroke-linejoin="round"
   d="M137.334,47.351    c0,0,7.5,6,19.333-1.833"
   id="path25" />
		<path
   fill="none"
   stroke="#6F6F6F"
   stroke-width="0.5"
   stroke-linecap="round"
   stroke-linejoin="round"
   d="M167.834,42.518    c0,0,4.166,2.5,9.166,0.333"
   id="path26" />
	</g>
	<g
   id="g41">
		<path
   fill="none"
   stroke="#6F6F6F"
   stroke-width="0.5"
   stroke-linecap="round"
   stroke-linejoin="round"
   d="M219.404,33.66    c-1.302,1.822-3.674,2.84-7.404,2.84c-4.666,0-7-2.5-7-2.5s9,5.167-6.5,5.167c-11.333,0-9.833-4.167-9.833-4.167"
   id="path27" />
		<path
   fill="none"
   stroke="#6F6F6F"
   stroke-width="0.5"
   stroke-linecap="round"
   stroke-linejoin="round"
   d="M219.404,33.66"
   id="path28" />
		<path
   fill="none"
   stroke="#6F6F6F"
   stroke-width="0.5"
   stroke-linecap="round"
   stroke-linejoin="round"
   d="M128.834,46.167    c0,0-2.5,3.667-12.167,3.667c-2.667,0-0.667-2.167-0.667-2.167s-1,2.5-5.333,2.5c-4.167,0-4.5-3.167-5.5-4"
   id="path29" />
		<path
   fill="none"
   stroke="#6F6F6F"
   stroke-width="0.5"
   stroke-linecap="round"
   stroke-linejoin="round"
   d="M101.161,80.666    c2.756,3.7,7.126,5.668,10.506,5.668c2,0,2.667-1.333,2.667-1.333s-1.667,3.333,10.333,3.333c7,0,9.166-2.333,9.166-2.333"
   id="path30" />
		<path
   fill="none"
   stroke="#6F6F6F"
   stroke-width="0.5"
   stroke-linecap="round"
   stroke-linejoin="round"
   d="M202,54.5    c0,0-0.5,3-4.167,3c-4.833,0-7-3.833-7-3.833"
   id="path31" />
		<path
   fill="none"
   stroke="#6F6F6F"
   stroke-width="0.5"
   stroke-linecap="round"
   stroke-linejoin="round"
   d="M184.667,74.5    c0,0-5.5,6.167-14.5,6.167c-4,0-4.167-2-4.167-2"
   id="path32" />
		<path
   fill="none"
   stroke="#6F6F6F"
   stroke-width="0.5"
   stroke-linecap="round"
   stroke-linejoin="round"
   d="M162.5,100.667    c0,0-0.333,4.5-9.833,4.5c-11,0-9.667-5.667-9.667-5.667"
   id="path33" />
		<path
   fill="none"
   stroke="#6F6F6F"
   stroke-width="0.5"
   stroke-linecap="round"
   stroke-linejoin="round"
   d="M145.25,103.688    c0,0-0.25,4.479-9.917,4.479c-8,0-9-3.167-9-3.167"
   id="path34" />
		<path
   fill="none"
   stroke="#6F6F6F"
   stroke-width="0.5"
   stroke-linecap="round"
   stroke-linejoin="round"
   d="M129,100.5    c0,0,0.167,6.167-9.333,6.167c-11.5,0-10-6.834-10-6.834"
   id="path35" />
		<path
   fill="none"
   stroke="#6F6F6F"
   stroke-width="0.5"
   stroke-linecap="round"
   stroke-linejoin="round"
   d="M158.833,83.833    c0,0-3.166,5.667-16.666,3.333"
   id="path36" />
		<path
   fill="none"
   stroke="#6F6F6F"
   stroke-width="0.5"
   stroke-linecap="round"
   stroke-linejoin="round"
   d="M105.5,66.333    c0,0,6.834,6,19.334,0.5"
   id="path37" />
		<path
   fill="none"
   stroke="#6F6F6F"
   stroke-width="0.5"
   stroke-linecap="round"
   stroke-linejoin="round"
   d="M140.167,59.5    c0,0,1.333,2.833,9.666,2.833c7,0,9.667-2.5,9.667-2.5s-7.5,4.5,8.333,4.5c5,0,9-2.333,9-2.333"
   id="path38" />
		<path
   fill="none"
   stroke="#6F6F6F"
   stroke-width="0.5"
   stroke-linecap="round"
   stroke-linejoin="round"
   d="M178.167,55.5    c0,0,8.021,2.646,14.521,0.313"
   id="path39" />
		<path
   fill="none"
   stroke="#6F6F6F"
   stroke-width="0.5"
   stroke-linecap="round"
   stroke-linejoin="round"
   d="M137.334,46.5    c0,0,7.5,6,19.333-1.833"
   id="path40" />
		<path
   fill="none"
   stroke="#6F6F6F"
   stroke-width="0.5"
   stroke-linecap="round"
   stroke-linejoin="round"
   d="M167.834,41.667    c0,0,4.166,2.5,9.166,0.333"
   id="path41" />
	</g>
</g>
</svg>
